<?xml version="1.0" encoding="UTF-8"?><svg xmlns="http://www.w3.org/2000/svg" xmlns:xlink="http://www.w3.org/1999/xlink" fill-opacity="1" color-rendering="auto" color-interpolation="auto" text-rendering="auto" stroke="black" stroke-linecap="square" width="740" stroke-miterlimit="10" shape-rendering="auto" stroke-opacity="1" fill="black" stroke-dasharray="none" font-weight="normal" stroke-width="1" height="182" font-family="'Dialog'" font-style="normal" stroke-linejoin="miter" font-size="12px" stroke-dashoffset="0" image-rendering="auto">
  <!--Generated by ySVG 2.5-->
  <defs id="genericDefs"/>
  <g>
    <defs id="defs1">
      <clipPath clipPathUnits="userSpaceOnUse" id="clipPath1">
        <path d="M0 0 L740 0 L740 182 L0 182 L0 0 Z"/>
      </clipPath>
      <clipPath clipPathUnits="userSpaceOnUse" id="clipPath2">
        <path d="M40 140 L780 140 L780 322 L40 322 L40 140 Z"/>
      </clipPath>
    </defs>
    <g fill="white" text-rendering="geometricPrecision" shape-rendering="geometricPrecision" transform="translate(-40,-140)" stroke="white">
      <rect x="40" width="740" height="182" y="140" clip-path="url(#clipPath2)" stroke="none"/>
    </g>
    <g font-size="16px" stroke-linecap="butt" transform="matrix(1,0,0,1,-40,-140)" text-rendering="geometricPrecision" font-family="sans-serif" shape-rendering="geometricPrecision" stroke-miterlimit="1.45">
      <text x="317.625" xml:space="preserve" y="183.7643" clip-path="url(#clipPath2)" stroke="none">Nanopublication URI</text>
    </g>
    <g stroke-linecap="round" transform="matrix(1,0,0,1,-40,-140)" stroke-dashoffset="2" text-rendering="geometricPrecision" shape-rendering="geometricPrecision" stroke-dasharray="0,4" stroke-miterlimit="1.45">
      <rect x="303.4537" y="155.4792" clip-path="url(#clipPath2)" fill="none" width="175.0925" rx="4" ry="4" height="44"/>
    </g>
    <g fill="yellow" text-rendering="geometricPrecision" shape-rendering="geometricPrecision" transform="matrix(1,0,0,1,-40,-140)" stroke="yellow">
      <rect x="55.0159" y="263" clip-path="url(#clipPath2)" width="91.9682" rx="4" ry="4" height="44" stroke="none"/>
    </g>
    <g font-size="16px" stroke-linecap="butt" transform="matrix(1,0,0,1,-40,-140)" text-rendering="geometricPrecision" font-family="sans-serif" shape-rendering="geometricPrecision" stroke-miterlimit="1.45">
      <text x="63.207" xml:space="preserve" y="291.2852" clip-path="url(#clipPath2)" stroke="none">prov:Entity</text>
      <rect x="55.0159" y="263" clip-path="url(#clipPath2)" fill="none" width="91.9682" rx="4" ry="4" height="44"/>
    </g>
    <g fill="rgb(204,255,204)" text-rendering="geometricPrecision" shape-rendering="geometricPrecision" transform="matrix(1,0,0,1,-40,-140)" stroke="rgb(204,255,204)">
      <path d="M650.562 263.5 L764.0475 263.5 L751.438 306.5 L637.9525 306.5 Z" fill-rule="evenodd" clip-path="url(#clipPath2)" stroke="none"/>
    </g>
    <g font-size="16px" stroke-linecap="butt" transform="matrix(1,0,0,1,-40,-140)" text-rendering="geometricPrecision" font-family="sans-serif" shape-rendering="geometricPrecision" stroke-miterlimit="1.45">
      <text x="652.9805" xml:space="preserve" y="291.2852" clip-path="url(#clipPath2)" stroke="none">xsd:dateTime</text>
      <path fill="none" d="M650.562 263.5 L764.0475 263.5 L751.438 306.5 L637.9525 306.5 Z" fill-rule="evenodd" clip-path="url(#clipPath2)"/>
    </g>
    <g stroke-linecap="butt" transform="matrix(1,0,0,1,-40,-140)" fill="navy" text-rendering="geometricPrecision" shape-rendering="geometricPrecision" stroke="navy" stroke-miterlimit="1.45">
      <path fill="none" d="M299.4548 177.4792 L101 177.4792 L101 251.9761" clip-path="url(#clipPath2)"/>
      <path d="M307.4548 177.4792 C307.4548 179.6883 305.664 181.4792 303.4548 181.4792 C301.2457 181.4792 299.4548 179.6883 299.4548 177.4792 C299.4548 175.27 301.2457 173.4792 303.4548 173.4792 C305.664 173.4792 307.4548 175.27 307.4548 177.4792 Z" clip-path="url(#clipPath2)" stroke="none"/>
      <path d="M101 262.9761 L107 250.9761 L95 250.9761 Z" clip-path="url(#clipPath2)" stroke="none"/>
      <rect x="120.0745" y="165.6784" clip-path="url(#clipPath2)" fill="white" width="155.1797" height="23.6016" stroke="none"/>
      <text x="122.0745" font-size="16px" y="183.7643" clip-path="url(#clipPath2)" font-family="sans-serif" stroke="none" xml:space="preserve">prov:wasAttributedTo</text>
      <path fill="none" d="M482.5281 177.4792 L701 177.4792 L701 248.5011" clip-path="url(#clipPath2)" stroke="green"/>
    </g>
    <g stroke-linecap="butt" transform="matrix(1,0,0,1,-40,-140)" fill-opacity="0" fill="rgb(0,0,0)" text-rendering="geometricPrecision" shape-rendering="geometricPrecision" stroke="rgb(0,0,0)" stroke-opacity="0" stroke-miterlimit="1.45">
      <path d="M474.5281 177.4792 C474.5281 175.27 476.3189 173.4792 478.5281 173.4792 C480.7372 173.4792 482.5281 175.27 482.5281 177.4792 C482.5281 179.6883 480.7372 181.4792 478.5281 181.4792 C476.3189 181.4792 474.5281 179.6883 474.5281 177.4792 Z" stroke="none" clip-path="url(#clipPath2)"/>
    </g>
    <g stroke-linecap="butt" transform="matrix(1,0,0,1,-40,-140)" fill="green" text-rendering="geometricPrecision" shape-rendering="geometricPrecision" stroke="green" stroke-miterlimit="1.45">
      <path fill="none" d="M474.5281 177.4792 C474.5281 175.27 476.3189 173.4792 478.5281 173.4792 C480.7372 173.4792 482.5281 175.27 482.5281 177.4792 C482.5281 179.6883 480.7372 181.4792 478.5281 181.4792 C476.3189 181.4792 474.5281 179.6883 474.5281 177.4792 Z" clip-path="url(#clipPath2)"/>
      <path fill="white" d="M701 263.5011 L707 247.5011 L695 247.5011 Z" clip-path="url(#clipPath2)" stroke="none"/>
      <path fill="none" d="M701 263.5011 L707 247.5011 L695 247.5011 Z" clip-path="url(#clipPath2)"/>
      <rect x="513.1833" y="165.6784" clip-path="url(#clipPath2)" fill="white" width="162.3047" height="23.6016" stroke="none"/>
      <text x="515.1833" font-size="16px" y="183.7643" clip-path="url(#clipPath2)" font-family="sans-serif" stroke="none" xml:space="preserve">prov:generatedAtTime</text>
    </g>
  </g>
</svg>
