<?xml version="1.0" encoding="UTF-8"?><svg xmlns="http://www.w3.org/2000/svg" xmlns:xlink="http://www.w3.org/1999/xlink" fill-opacity="1" color-rendering="auto" color-interpolation="auto" text-rendering="auto" stroke="black" stroke-linecap="square" width="1318" stroke-miterlimit="10" shape-rendering="auto" stroke-opacity="1" fill="black" stroke-dasharray="none" font-weight="normal" stroke-width="1" height="600" font-family="'Dialog'" font-style="normal" stroke-linejoin="miter" font-size="12px" stroke-dashoffset="0" image-rendering="auto">
  <!--Generated by ySVG 2.5-->
  <defs id="genericDefs"/>
  <g>
    <defs id="defs1">
      <clipPath clipPathUnits="userSpaceOnUse" id="clipPath1">
        <path d="M0 0 L1318 0 L1318 600 L0 600 L0 0 Z"/>
      </clipPath>
      <clipPath clipPathUnits="userSpaceOnUse" id="clipPath2">
        <path d="M409 -77 L1727 -77 L1727 523 L409 523 L409 -77 Z"/>
      </clipPath>
    </defs>
    <g fill="white" text-rendering="geometricPrecision" shape-rendering="geometricPrecision" transform="translate(-409,77)" stroke="white">
      <rect x="409" width="1318" height="600" y="-77" clip-path="url(#clipPath2)" stroke="none"/>
    </g>
    <g fill="yellow" text-rendering="geometricPrecision" shape-rendering="geometricPrecision" transform="matrix(1,0,0,1,-409,77)" stroke="yellow">
      <rect x="424.2513" y="281.761" clip-path="url(#clipPath2)" width="253.2692" rx="4" ry="4" height="44" stroke="none"/>
    </g>
    <g font-size="16px" stroke-linecap="butt" transform="matrix(1,0,0,1,-409,77)" text-rendering="geometricPrecision" font-family="sans-serif" shape-rendering="geometricPrecision" stroke-miterlimit="1.45">
      <text x="434.8429" xml:space="preserve" y="310.0462" clip-path="url(#clipPath2)" stroke="none">tex:TX7_Written_Text_Fragment</text>
      <rect x="424.2513" y="281.761" clip-path="url(#clipPath2)" fill="none" width="253.2692" rx="4" ry="4" height="44"/>
    </g>
    <g fill="yellow" text-rendering="geometricPrecision" shape-rendering="geometricPrecision" transform="matrix(1,0,0,1,-409,77)" stroke="yellow">
      <rect x="1283.4077" y="70.1985" clip-path="url(#clipPath2)" width="128.0243" rx="4" ry="4" height="44" stroke="none"/>
    </g>
    <g font-size="16px" stroke-linecap="butt" transform="matrix(1,0,0,1,-409,77)" text-rendering="geometricPrecision" font-family="sans-serif" shape-rendering="geometricPrecision" stroke-miterlimit="1.45">
      <text x="1295.4003" xml:space="preserve" y="98.4837" clip-path="url(#clipPath2)" stroke="none">crm:E55_Type</text>
      <rect x="1283.4077" y="70.1985" clip-path="url(#clipPath2)" fill="none" width="128.0243" rx="4" ry="4" height="44"/>
    </g>
    <g fill="yellow" text-rendering="geometricPrecision" shape-rendering="geometricPrecision" transform="matrix(1,0,0,1,-409,77)" stroke="yellow">
      <rect x="1264.5159" y="286.625" clip-path="url(#clipPath2)" width="163.5458" rx="4" ry="4" height="44" stroke="none"/>
    </g>
    <g font-size="16px" stroke-linecap="butt" transform="matrix(1,0,0,1,-409,77)" text-rendering="geometricPrecision" font-family="sans-serif" shape-rendering="geometricPrecision" stroke-miterlimit="1.45">
      <text x="1272.4685" xml:space="preserve" y="314.9102" clip-path="url(#clipPath2)" stroke="none">crm:E41_Appellation</text>
      <rect x="1264.5159" y="286.625" clip-path="url(#clipPath2)" fill="none" width="163.5458" rx="4" ry="4" height="44"/>
    </g>
    <g fill="yellow" text-rendering="geometricPrecision" shape-rendering="geometricPrecision" transform="matrix(1,0,0,1,-409,77)" stroke="yellow">
      <rect x="674.7365" y="463.2647" clip-path="url(#clipPath2)" width="202.5442" rx="4" ry="4" height="44" stroke="none"/>
    </g>
    <g font-size="16px" stroke-linecap="butt" transform="matrix(1,0,0,1,-409,77)" text-rendering="geometricPrecision" font-family="sans-serif" shape-rendering="geometricPrecision" stroke-miterlimit="1.45">
      <text x="680.8524" xml:space="preserve" y="491.5498" clip-path="url(#clipPath2)" stroke="none">crm:E33_Linguistic_Object</text>
      <rect x="674.7365" y="463.2647" clip-path="url(#clipPath2)" fill="none" width="202.5442" rx="4" ry="4" height="44"/>
    </g>
    <g fill="yellow" text-rendering="geometricPrecision" shape-rendering="geometricPrecision" transform="matrix(1,0,0,1,-409,77)" stroke="yellow">
      <rect x="1118.7029" y="463.2647" clip-path="url(#clipPath2)" width="159.1557" rx="4" ry="4" height="44" stroke="none"/>
    </g>
    <g font-size="16px" stroke-linecap="butt" transform="matrix(1,0,0,1,-409,77)" text-rendering="geometricPrecision" font-family="sans-serif" shape-rendering="geometricPrecision" stroke-miterlimit="1.45">
      <text x="1128.4526" xml:space="preserve" y="491.5498" clip-path="url(#clipPath2)" stroke="none">crm:E56_Language</text>
      <rect x="1118.7029" y="463.2647" clip-path="url(#clipPath2)" fill="none" width="159.1557" rx="4" ry="4" height="44"/>
    </g>
    <g fill="yellow" text-rendering="geometricPrecision" shape-rendering="geometricPrecision" transform="matrix(1,0,0,1,-409,77)" stroke="yellow">
      <rect x="479.9018" y="154.5735" clip-path="url(#clipPath2)" width="141.9682" rx="4" ry="4" height="44" stroke="none"/>
    </g>
    <g font-size="16px" stroke-linecap="butt" transform="matrix(1,0,0,1,-409,77)" text-rendering="geometricPrecision" font-family="sans-serif" shape-rendering="geometricPrecision" stroke-miterlimit="1.45">
      <text x="493.9796" xml:space="preserve" y="182.8587" clip-path="url(#clipPath2)" stroke="none">tex:TX2_Writing</text>
      <rect x="479.9018" y="154.5735" clip-path="url(#clipPath2)" fill="none" width="141.9682" rx="4" ry="4" height="44"/>
    </g>
    <g fill="yellow" text-rendering="geometricPrecision" shape-rendering="geometricPrecision" transform="matrix(1,0,0,1,-409,77)" stroke="yellow">
      <rect x="449.6138" y="22.5221" clip-path="url(#clipPath2)" width="202.5442" rx="4" ry="4" height="44" stroke="none"/>
    </g>
    <g font-size="16px" stroke-linecap="butt" transform="matrix(1,0,0,1,-409,77)" text-rendering="geometricPrecision" font-family="sans-serif" shape-rendering="geometricPrecision" stroke-miterlimit="1.45">
      <text x="462.8586" xml:space="preserve" y="50.8072" clip-path="url(#clipPath2)" stroke="none">tex:TX3_Writing_System</text>
      <rect x="449.6138" y="22.5221" clip-path="url(#clipPath2)" fill="none" width="202.5442" rx="4" ry="4" height="44"/>
    </g>
    <g fill="yellow" text-rendering="geometricPrecision" shape-rendering="geometricPrecision" transform="matrix(1,0,0,1,-409,77)" stroke="yellow">
      <rect x="920.1585" y="154.5735" clip-path="url(#clipPath2)" width="224.3398" rx="4" ry="4" height="44" stroke="none"/>
    </g>
    <g font-size="16px" stroke-linecap="butt" transform="matrix(1,0,0,1,-409,77)" text-rendering="geometricPrecision" font-family="sans-serif" shape-rendering="geometricPrecision" stroke-miterlimit="1.45">
      <text x="930.051" xml:space="preserve" y="182.8587" clip-path="url(#clipPath2)" stroke="none">crm:E28_Conceptual_Object</text>
      <rect x="920.1585" y="154.5735" clip-path="url(#clipPath2)" fill="none" width="224.3398" rx="4" ry="4" height="44"/>
    </g>
    <g fill="rgb(255,153,204)" text-rendering="geometricPrecision" shape-rendering="geometricPrecision" transform="matrix(1,0,0,1,-409,77)" stroke="rgb(255,153,204)">
      <circle r="10" clip-path="url(#clipPath2)" cx="1510.7178" cy="291.6562" stroke="none"/>
    </g>
    <g font-size="16px" stroke-linecap="butt" transform="matrix(1,0,0,1,-409,77)" text-rendering="geometricPrecision" font-family="sans-serif" shape-rendering="geometricPrecision" stroke-miterlimit="1.45">
      <text x="1526.7179" xml:space="preserve" y="297.9414" clip-path="url(#clipPath2)" stroke="none">ScritturaDiTipoBastardo</text>
      <circle fill="none" stroke-width="3" r="10" clip-path="url(#clipPath2)" cx="1510.7178" cy="291.6562"/>
    </g>
    <g fill="rgb(255,153,204)" text-rendering="geometricPrecision" shape-rendering="geometricPrecision" transform="matrix(1,0,0,1,-409,77)" stroke="rgb(255,153,204)">
      <circle r="10" clip-path="url(#clipPath2)" cx="1510.7178" cy="249.4688" stroke="none"/>
    </g>
    <g font-size="16px" stroke-linecap="butt" transform="matrix(1,0,0,1,-409,77)" text-rendering="geometricPrecision" font-family="sans-serif" shape-rendering="geometricPrecision" stroke-miterlimit="1.45">
      <text x="1526.7179" xml:space="preserve" y="255.7539" clip-path="url(#clipPath2)" stroke="none">ScrittureImitative</text>
      <circle fill="none" stroke-width="3" r="10" clip-path="url(#clipPath2)" cx="1510.7178" cy="249.4688"/>
    </g>
    <g fill="rgb(255,153,204)" text-rendering="geometricPrecision" shape-rendering="geometricPrecision" transform="matrix(1,0,0,1,-409,77)" stroke="rgb(255,153,204)">
      <circle r="10" clip-path="url(#clipPath2)" cx="1510.7178" cy="329.3952" stroke="none"/>
    </g>
    <g font-size="16px" stroke-linecap="butt" transform="matrix(1,0,0,1,-409,77)" text-rendering="geometricPrecision" font-family="sans-serif" shape-rendering="geometricPrecision" stroke-miterlimit="1.45">
      <text x="1526.7179" xml:space="preserve" y="335.6804" clip-path="url(#clipPath2)" stroke="none">ScritturaGreca</text>
      <circle fill="none" stroke-width="3" r="10" clip-path="url(#clipPath2)" cx="1510.7178" cy="329.3952"/>
    </g>
    <g fill="rgb(255,153,204)" text-rendering="geometricPrecision" shape-rendering="geometricPrecision" transform="matrix(1,0,0,1,-409,77)" stroke="rgb(255,153,204)">
      <circle r="10" clip-path="url(#clipPath2)" cx="1510.7178" cy="366.8952" stroke="none"/>
    </g>
    <g font-size="16px" stroke-linecap="butt" transform="matrix(1,0,0,1,-409,77)" text-rendering="geometricPrecision" font-family="sans-serif" shape-rendering="geometricPrecision" stroke-miterlimit="1.45">
      <text x="1526.7179" xml:space="preserve" y="373.1804" clip-path="url(#clipPath2)" stroke="none">CapitaleRustica</text>
      <circle fill="none" stroke-width="3" r="10" clip-path="url(#clipPath2)" cx="1510.7178" cy="366.8952"/>
    </g>
    <g fill="rgb(255,153,204)" text-rendering="geometricPrecision" shape-rendering="geometricPrecision" transform="matrix(1,0,0,1,-409,77)" stroke="rgb(255,153,204)">
      <circle r="10" clip-path="url(#clipPath2)" cx="1510.7178" cy="207.2812" stroke="none"/>
    </g>
    <g font-size="16px" stroke-linecap="butt" transform="matrix(1,0,0,1,-409,77)" text-rendering="geometricPrecision" font-family="sans-serif" shape-rendering="geometricPrecision" stroke-miterlimit="1.45">
      <text x="1526.7179" xml:space="preserve" y="213.5664" clip-path="url(#clipPath2)" stroke="none">CapitaleEpigrafica</text>
      <circle fill="none" stroke-width="3" r="10" clip-path="url(#clipPath2)" cx="1510.7178" cy="207.2812"/>
    </g>
    <g fill="rgb(255,153,204)" text-rendering="geometricPrecision" shape-rendering="geometricPrecision" transform="matrix(1,0,0,1,-409,77)" stroke="rgb(255,153,204)">
      <circle r="10" clip-path="url(#clipPath2)" cx="1510.7178" cy="405.2812" stroke="none"/>
    </g>
    <g font-size="16px" stroke-linecap="butt" transform="matrix(1,0,0,1,-409,77)" text-rendering="geometricPrecision" font-family="sans-serif" shape-rendering="geometricPrecision" stroke-miterlimit="1.45">
      <text x="1526.7179" xml:space="preserve" y="411.5664" clip-path="url(#clipPath2)" stroke="none">CorsivaUmanistica</text>
      <circle fill="none" stroke-width="3" r="10" clip-path="url(#clipPath2)" cx="1510.7178" cy="405.2812"/>
    </g>
    <g stroke-linecap="round" transform="matrix(1,0,0,1,-409,77)" stroke-dashoffset="2" text-rendering="geometricPrecision" shape-rendering="geometricPrecision" stroke-dasharray="0,4" stroke-miterlimit="1.45">
      <rect x="1472.3119" y="185.7812" clip-path="url(#clipPath2)" fill="none" width="238.78" rx="4" ry="4" height="245.6875"/>
    </g>
    <g fill="yellow" text-rendering="geometricPrecision" shape-rendering="geometricPrecision" transform="matrix(1,0,0,1,-409,77)" stroke="yellow">
      <rect x="931.0563" y="-61.8529" clip-path="url(#clipPath2)" width="202.5442" rx="4" ry="4" height="44" stroke="none"/>
    </g>
    <g font-size="16px" stroke-linecap="butt" transform="matrix(1,0,0,1,-409,77)" text-rendering="geometricPrecision" font-family="sans-serif" shape-rendering="geometricPrecision" stroke-miterlimit="1.45">
      <text x="935.8479" xml:space="preserve" y="-33.5678" clip-path="url(#clipPath2)" stroke="none">crm:E90_Symbolic _Object</text>
      <rect x="931.0563" y="-61.8529" clip-path="url(#clipPath2)" fill="none" width="202.5442" rx="4" ry="4" height="44"/>
    </g>
    <g fill="rgb(255,153,204)" text-rendering="geometricPrecision" shape-rendering="geometricPrecision" transform="matrix(1,0,0,1,-409,77)" stroke="rgb(255,153,204)">
      <circle r="10" clip-path="url(#clipPath2)" cx="1534.9516" cy="76.8567" stroke="none"/>
    </g>
    <g font-size="16px" stroke-linecap="butt" transform="matrix(1,0,0,1,-409,77)" text-rendering="geometricPrecision" font-family="sans-serif" shape-rendering="geometricPrecision" stroke-miterlimit="1.45">
      <text x="1550.9517" xml:space="preserve" y="83.1418" clip-path="url(#clipPath2)" stroke="none">GraphicTypology</text>
      <circle fill="none" stroke-width="3" r="10" clip-path="url(#clipPath2)" cx="1534.9516" cy="76.8567"/>
    </g>
    <g fill="rgb(255,153,204)" text-rendering="geometricPrecision" shape-rendering="geometricPrecision" transform="matrix(1,0,0,1,-409,77)" stroke="rgb(255,153,204)">
      <circle r="10" clip-path="url(#clipPath2)" cx="1534.9516" cy="112.5331" stroke="none"/>
    </g>
    <g font-size="16px" stroke-linecap="butt" transform="matrix(1,0,0,1,-409,77)" text-rendering="geometricPrecision" font-family="sans-serif" shape-rendering="geometricPrecision" stroke-miterlimit="1.45">
      <text x="1550.9517" xml:space="preserve" y="118.8183" clip-path="url(#clipPath2)" stroke="none">ScriptorialStyle</text>
      <circle fill="none" stroke-width="3" r="10" clip-path="url(#clipPath2)" cx="1534.9516" cy="112.5331"/>
    </g>
    <g stroke-linecap="round" transform="matrix(1,0,0,1,-409,77)" stroke-dashoffset="2" text-rendering="geometricPrecision" shape-rendering="geometricPrecision" stroke-dasharray="0,4" stroke-miterlimit="1.45">
      <rect x="1514.2957" y="51.386" clip-path="url(#clipPath2)" fill="none" width="181.9682" rx="4" ry="4" height="81.625"/>
    </g>
    <g stroke-linecap="butt" transform="matrix(1,0,0,1,-409,77)" fill="navy" text-rendering="geometricPrecision" shape-rendering="geometricPrecision" stroke="navy" stroke-miterlimit="1.45">
      <path fill="none" d="M1376.0679 66.6588 L1376.113 66.5696 L1377.0409 64.2025 L1378.1875 60.1757 L1378.9431 56.0331 L1379.2922 51.8015 L1379.22 47.5077 L1378.7108 43.1785 L1377.7496 38.8408 L1376.3563 34.622 L1374.579 30.6417 L1372.4445 26.9154 L1369.9795 23.4581 L1367.2111 20.2853 L1364.1658 17.412 L1360.8705 14.8535 L1357.3522 12.6252 L1353.6376 10.7421 L1349.7535 9.2197 L1345.7267 8.0731 L1341.5841 7.3176 L1337.3525 6.9683 L1333.0587 7.0407 L1328.7296 7.5498 L1324.3918 8.511 L1320.173 9.9043 L1316.1927 11.6816 L1312.4664 13.8162 L1309.0092 16.2811 L1305.8363 19.0496 L1302.963 22.0949 L1300.4045 25.3901 L1298.1761 28.9084 L1296.2932 32.623 L1294.7708 36.5071 L1293.6241 40.5339 L1292.8685 44.6765 L1292.5194 48.9081 L1292.5917 53.2019 L1293.1008 57.5311 L1293.6157 59.8545 L1293.6521 59.9476" clip-path="url(#clipPath2)"/>
      <path d="M1372.738 73.9329 C1370.7294 73.0135 1369.8464 70.6397 1370.7659 68.631 C1371.6854 66.6223 1374.0591 65.7393 1376.0679 66.6588 C1378.0765 67.5783 1378.9595 69.952 1378.04 71.9607 C1377.1205 73.9694 1374.7468 74.8524 1372.738 73.9329 Z" clip-path="url(#clipPath2)" stroke="none"/>
      <path d="M1297.3496 70.3076 L1298.9668 56.989 L1287.665 61.0227 Z" clip-path="url(#clipPath2)" stroke="none"/>
      <rect x="1204.6626" y="22.9915" clip-path="url(#clipPath2)" fill="white" width="253.9219" height="23.6016" stroke="none"/>
      <text x="1206.6626" font-size="16px" y="41.0774" clip-path="url(#clipPath2)" font-family="sans-serif" stroke="none" xml:space="preserve">crm:P150_defines_typical_parts_of</text>
      <path fill="none" d="M681.5449 303.761 L776.0086 303.761 L776.0086 452.2414" clip-path="url(#clipPath2)"/>
      <path d="M673.5449 303.761 C673.5449 301.5519 675.3358 299.761 677.5449 299.761 C679.7541 299.761 681.5449 301.5519 681.5449 303.761 C681.5449 305.9702 679.7541 307.761 677.5449 307.761 C675.3358 307.761 673.5449 305.9702 673.5449 303.761 Z" clip-path="url(#clipPath2)" stroke="none"/>
      <path d="M776.0086 463.2414 L782.0086 451.2414 L770.0086 451.2414 Z" clip-path="url(#clipPath2)" stroke="none"/>
      <rect x="711.3211" y="367.1496" clip-path="url(#clipPath2)" fill="white" width="129.375" height="23.6016" stroke="none"/>
      <text x="713.3211" font-size="16px" y="385.2355" clip-path="url(#clipPath2)" font-family="sans-serif" stroke="none" xml:space="preserve">crm:P128_carries</text>
      <path fill="none" d="M881.2725 485.2647 L1107.6948 485.2647" clip-path="url(#clipPath2)"/>
      <path d="M873.2725 485.2647 C873.2725 483.0555 875.0633 481.2647 877.2725 481.2647 C879.4816 481.2647 881.2725 483.0555 881.2725 485.2647 C881.2725 487.4738 879.4816 489.2647 877.2725 489.2647 C875.0633 489.2647 873.2725 487.4738 873.2725 485.2647 Z" clip-path="url(#clipPath2)" stroke="none"/>
      <path d="M1118.6948 485.2647 L1106.6948 479.2647 L1106.6948 491.2647 Z" clip-path="url(#clipPath2)" stroke="none"/>
      <rect x="911.4879" y="473.4639" clip-path="url(#clipPath2)" fill="white" width="173.0078" height="23.6016" stroke="none"/>
      <text x="913.4879" font-size="16px" y="491.5498" clip-path="url(#clipPath2)" font-family="sans-serif" stroke="none" xml:space="preserve">crm:P72_has_language</text>
      <path fill="none" d="M550.8859 277.7454 L550.8859 209.5785" clip-path="url(#clipPath2)"/>
      <path d="M550.8859 285.7454 C548.6768 285.7454 546.8859 283.9546 546.8859 281.7454 C546.8859 279.5363 548.6768 277.7454 550.8859 277.7454 C553.0951 277.7454 554.8859 279.5363 554.8859 281.7454 C554.8859 283.9546 553.0951 285.7454 550.8859 285.7454 Z" clip-path="url(#clipPath2)" stroke="none"/>
      <path d="M550.8859 198.5785 L544.8859 210.5785 L556.8859 210.5785 Z" clip-path="url(#clipPath2)" stroke="none"/>
      <rect x="445.2687" y="228.3665" clip-path="url(#clipPath2)" fill="white" width="211.2344" height="23.6016" stroke="none"/>
      <text x="447.2687" font-size="16px" y="246.4525" clip-path="url(#clipPath2)" font-family="sans-serif" stroke="none" xml:space="preserve">crm:P108_was_produced_by</text>
      <path fill="none" d="M550.8859 150.5542 L550.8859 77.5231" clip-path="url(#clipPath2)"/>
      <path d="M550.8859 158.5542 C548.6768 158.5542 546.8859 156.7634 546.8859 154.5542 C546.8859 152.3451 548.6768 150.5542 550.8859 150.5542 C553.0951 150.5542 554.8859 152.3451 554.8859 154.5542 C554.8859 156.7634 553.0951 158.5542 550.8859 158.5542 Z" clip-path="url(#clipPath2)" stroke="none"/>
      <path d="M550.8859 66.5231 L544.8859 78.5231 L556.8859 78.5231 Z" clip-path="url(#clipPath2)" stroke="none"/>
      <rect x="436.8351" y="98.747" clip-path="url(#clipPath2)" fill="white" width="228.1016" height="23.6016" stroke="none"/>
      <text x="438.8351" font-size="16px" y="116.833" clip-path="url(#clipPath2)" font-family="sans-serif" stroke="none" xml:space="preserve">tex:TXP1_used_writing_system</text>
      <path fill="none" d="M625.8505 176.5735 L909.1635 176.5735" clip-path="url(#clipPath2)"/>
      <path d="M617.8505 176.5735 C617.8505 174.3644 619.6413 172.5735 621.8505 172.5735 C624.0596 172.5735 625.8505 174.3644 625.8505 176.5735 C625.8505 178.7827 624.0596 180.5735 621.8505 180.5735 C619.6413 180.5735 617.8505 178.7827 617.8505 176.5735 Z" clip-path="url(#clipPath2)" stroke="none"/>
      <path d="M920.1635 176.5735 L908.1635 170.5735 L908.1635 182.5735 Z" clip-path="url(#clipPath2)" stroke="none"/>
      <rect x="660.5103" y="164.7728" clip-path="url(#clipPath2)" fill="white" width="221.0078" height="23.6016" stroke="none"/>
      <text x="662.5103" font-size="16px" y="182.8587" clip-path="url(#clipPath2)" font-family="sans-serif" stroke="none" xml:space="preserve">crm:P16_used_specific_object</text>
      <path fill="none" d="M1050.8262 151.3637 L1093.2264 93.5783 L1272.4061 92.6057" clip-path="url(#clipPath2)"/>
      <path d="M1046.0935 157.8137 C1044.3124 156.5068 1043.928 154.0035 1045.2349 152.2224 C1046.5417 150.4413 1049.045 150.0569 1050.8262 151.3637 C1052.6073 152.6706 1052.9917 155.174 1051.6848 156.955 C1050.3779 158.7361 1047.8746 159.1206 1046.0935 157.8137 Z" clip-path="url(#clipPath2)" stroke="none"/>
      <path d="M1283.406 92.546 L1271.3737 86.6112 L1271.4387 98.6111 Z" clip-path="url(#clipPath2)" stroke="none"/>
      <rect x="1119.5006" y="81.2861" clip-path="url(#clipPath2)" fill="white" width="128.5078" height="23.6016" stroke="none"/>
      <text x="1121.5006" font-size="16px" y="99.3721" clip-path="url(#clipPath2)" font-family="sans-serif" stroke="none" xml:space="preserve">crm:P2_has_type</text>
      <path fill="none" d="M1032.3284 202.5929 L1032.3284 308.625 L1253.541 308.625" clip-path="url(#clipPath2)"/>
      <path d="M1032.3284 194.5929 C1034.5375 194.5929 1036.3284 196.3837 1036.3284 198.5929 C1036.3284 200.802 1034.5375 202.5929 1032.3284 202.5929 C1030.1193 202.5929 1028.3284 200.802 1028.3284 198.5929 C1028.3284 196.3837 1030.1193 194.5929 1032.3284 194.5929 Z" clip-path="url(#clipPath2)" stroke="none"/>
      <path d="M1264.541 308.625 L1252.541 302.625 L1252.541 314.625 Z" clip-path="url(#clipPath2)" stroke="none"/>
      <rect x="1054.7034" y="296.8242" clip-path="url(#clipPath2)" fill="white" width="178.3125" height="23.6016" stroke="none"/>
      <text x="1056.7034" font-size="16px" y="314.9102" clip-path="url(#clipPath2)" font-family="sans-serif" stroke="none" xml:space="preserve">crm:P1_is_identified_by </text>
      <path fill="none" d="M1472.3207 308.625 L1436.0433 308.625" clip-path="url(#clipPath2)" stroke="black"/>
      <path fill="black" d="M1428.0433 308.625 L1440.0433 313.625 L1437.0433 308.625 L1440.0433 303.625 Z" clip-path="url(#clipPath2)" stroke="none"/>
      <path fill="none" d="M1032.3284 150.5663 L1032.3284 -6.8763" clip-path="url(#clipPath2)"/>
      <path d="M1032.3284 158.5663 C1030.1193 158.5663 1028.3284 156.7755 1028.3284 154.5663 C1028.3284 152.3572 1030.1193 150.5663 1032.3284 150.5663 C1034.5375 150.5663 1036.3284 152.3572 1036.3284 154.5663 C1036.3284 156.7755 1034.5375 158.5663 1032.3284 158.5663 Z" clip-path="url(#clipPath2)" stroke="none"/>
      <path d="M1032.3284 -17.8763 L1026.3284 -5.8763 L1038.3284 -5.8763 Z" clip-path="url(#clipPath2)" stroke="none"/>
      <rect x="964.5237" y="56.5595" clip-path="url(#clipPath2)" fill="white" width="135.6094" height="23.6016" stroke="none"/>
      <text x="966.5237" font-size="16px" y="74.6455" clip-path="url(#clipPath2)" font-family="sans-serif" stroke="none" xml:space="preserve">crm:P67_refers_to</text>
      <path fill="none" d="M1514.2797 92.1985 L1419.4181 92.1985" clip-path="url(#clipPath2)" stroke="black"/>
      <path fill="black" d="M1411.4181 92.1985 L1423.4181 97.1985 L1420.4181 92.1985 L1423.4181 87.1985 Z" clip-path="url(#clipPath2)" stroke="none"/>
    </g>
  </g>
</svg>
