<?xml version="1.0" encoding="UTF-8"?><svg xmlns="http://www.w3.org/2000/svg" xmlns:xlink="http://www.w3.org/1999/xlink" fill-opacity="1" color-rendering="auto" color-interpolation="auto" text-rendering="auto" stroke="black" stroke-linecap="square" width="1268" stroke-miterlimit="10" shape-rendering="auto" stroke-opacity="1" fill="black" stroke-dasharray="none" font-weight="normal" stroke-width="1" height="959" font-family="'Dialog'" font-style="normal" stroke-linejoin="miter" font-size="12px" stroke-dashoffset="0" image-rendering="auto">
  <!--Generated by ySVG 2.5-->
  <defs id="genericDefs"/>
  <g>
    <defs id="defs1">
      <clipPath clipPathUnits="userSpaceOnUse" id="clipPath1">
        <path d="M0 0 L1268 0 L1268 959 L0 959 L0 0 Z"/>
      </clipPath>
      <clipPath clipPathUnits="userSpaceOnUse" id="clipPath2">
        <path d="M-817 -147 L451 -147 L451 812 L-817 812 L-817 -147 Z"/>
      </clipPath>
    </defs>
    <g fill="white" text-rendering="geometricPrecision" shape-rendering="geometricPrecision" transform="translate(817,147)" stroke="white">
      <rect x="-817" width="1268" height="959" y="-147" clip-path="url(#clipPath2)" stroke="none"/>
    </g>
    <g fill="yellow" text-rendering="geometricPrecision" shape-rendering="geometricPrecision" transform="matrix(1,0,0,1,817,147)" stroke="yellow">
      <rect x="-100.3018" y="250.8964" clip-path="url(#clipPath2)" width="210.9995" rx="4" ry="4" height="44" stroke="none"/>
    </g>
    <g font-size="16px" stroke-linecap="butt" transform="matrix(1,0,0,1,817,147)" text-rendering="geometricPrecision" font-family="sans-serif" shape-rendering="geometricPrecision" stroke-miterlimit="1.45">
      <text x="-91.2942" xml:space="preserve" y="279.1815" clip-path="url(#clipPath2)" stroke="none">vir:IC1_Iconographic_Atom</text>
      <rect x="-100.3018" y="250.8964" clip-path="url(#clipPath2)" fill="none" width="210.9995" rx="4" ry="4" height="44"/>
    </g>
    <g fill="yellow" text-rendering="geometricPrecision" shape-rendering="geometricPrecision" transform="matrix(1,0,0,1,817,147)" stroke="yellow">
      <rect x="-389.7944" y="633.6734" clip-path="url(#clipPath2)" width="113.9995" rx="4" ry="4" height="44" stroke="none"/>
    </g>
    <g font-size="16px" stroke-linecap="butt" transform="matrix(1,0,0,1,817,147)" text-rendering="geometricPrecision" font-family="sans-serif" shape-rendering="geometricPrecision" stroke-miterlimit="1.45">
      <text x="-380.3767" xml:space="preserve" y="661.9586" clip-path="url(#clipPath2)" stroke="none">oaentry:Copy</text>
      <rect x="-389.7944" y="633.6734" clip-path="url(#clipPath2)" fill="none" width="113.9995" rx="4" ry="4" height="44"/>
    </g>
    <g fill="yellow" text-rendering="geometricPrecision" shape-rendering="geometricPrecision" transform="matrix(1,0,0,1,817,147)" stroke="yellow">
      <rect x="-605.545" y="389.2898" clip-path="url(#clipPath2)" width="215.5491" rx="4" ry="4" height="44" stroke="none"/>
    </g>
    <g font-size="16px" stroke-linecap="butt" transform="matrix(1,0,0,1,817,147)" text-rendering="geometricPrecision" font-family="sans-serif" shape-rendering="geometricPrecision" stroke-miterlimit="1.45">
      <text x="-590.2549" xml:space="preserve" y="417.575" clip-path="url(#clipPath2)" stroke="none">oaentry:CopyOrDerivation</text>
      <rect x="-605.545" y="389.2898" clip-path="url(#clipPath2)" fill="none" width="215.5491" rx="4" ry="4" height="44"/>
    </g>
    <g fill="yellow" text-rendering="geometricPrecision" shape-rendering="geometricPrecision" transform="matrix(1,0,0,1,817,147)" stroke="yellow">
      <rect x="-305.5096" y="752.2088" clip-path="url(#clipPath2)" width="199.7803" rx="4" ry="4" height="44" stroke="none"/>
    </g>
    <g font-size="16px" stroke-linecap="butt" transform="matrix(1,0,0,1,817,147)" text-rendering="geometricPrecision" font-family="sans-serif" shape-rendering="geometricPrecision" stroke-miterlimit="1.45">
      <text x="-298.5492" xml:space="preserve" y="780.4939" clip-path="url(#clipPath2)" stroke="none">oaentry:CopyWithVariants</text>
      <rect x="-305.5096" y="752.2088" clip-path="url(#clipPath2)" fill="none" width="199.7803" rx="4" ry="4" height="44"/>
    </g>
    <g fill="yellow" text-rendering="geometricPrecision" shape-rendering="geometricPrecision" transform="matrix(1,0,0,1,817,147)" stroke="yellow">
      <rect x="-771.4121" y="630.017" clip-path="url(#clipPath2)" width="148.0034" rx="4" ry="4" height="44" stroke="none"/>
    </g>
    <g font-size="16px" stroke-linecap="butt" transform="matrix(1,0,0,1,817,147)" text-rendering="geometricPrecision" font-family="sans-serif" shape-rendering="geometricPrecision" stroke-miterlimit="1.45">
      <text x="-762.3323" xml:space="preserve" y="658.3021" clip-path="url(#clipPath2)" stroke="none">oaentry:Derivation</text>
      <rect x="-771.4121" y="630.017" clip-path="url(#clipPath2)" fill="none" width="148.0034" rx="4" ry="4" height="44"/>
    </g>
    <g fill="yellow" text-rendering="geometricPrecision" shape-rendering="geometricPrecision" transform="matrix(1,0,0,1,817,147)" stroke="yellow">
      <rect x="-407.7866" y="511.4816" clip-path="url(#clipPath2)" width="149.9838" rx="4" ry="4" height="44" stroke="none"/>
    </g>
    <g font-size="16px" stroke-linecap="butt" transform="matrix(1,0,0,1,817,147)" text-rendering="geometricPrecision" font-family="sans-serif" shape-rendering="geometricPrecision" stroke-miterlimit="1.45">
      <text x="-403.0525" xml:space="preserve" y="539.7668" clip-path="url(#clipPath2)" stroke="none">oaentry:PartialCopy</text>
      <rect x="-407.7866" y="511.4816" clip-path="url(#clipPath2)" fill="none" width="149.9838" rx="4" ry="4" height="44"/>
    </g>
    <g fill="yellow" text-rendering="geometricPrecision" shape-rendering="geometricPrecision" transform="matrix(1,0,0,1,817,147)" stroke="yellow">
      <rect x="-135.333" y="631.8452" clip-path="url(#clipPath2)" width="246.0307" rx="4" ry="4" height="44" stroke="none"/>
    </g>
    <g font-size="16px" stroke-linecap="butt" transform="matrix(1,0,0,1,817,147)" text-rendering="geometricPrecision" font-family="sans-serif" shape-rendering="geometricPrecision" stroke-miterlimit="1.45">
      <text x="-130.1458" xml:space="preserve" y="660.1304" clip-path="url(#clipPath2)" stroke="none"> oaentry:PartialCopyWithVariants</text>
      <rect x="-135.333" y="631.8452" clip-path="url(#clipPath2)" fill="none" width="246.0307" rx="4" ry="4" height="44"/>
    </g>
    <g fill="yellow" text-rendering="geometricPrecision" shape-rendering="geometricPrecision" transform="matrix(1,0,0,1,817,147)" stroke="yellow">
      <rect x="-797.3005" y="511.4816" clip-path="url(#clipPath2)" width="199.7803" rx="4" ry="4" height="44" stroke="none"/>
    </g>
    <g font-size="16px" stroke-linecap="butt" transform="matrix(1,0,0,1,817,147)" text-rendering="geometricPrecision" font-family="sans-serif" shape-rendering="geometricPrecision" stroke-miterlimit="1.45">
      <text x="-785.0081" xml:space="preserve" y="539.7668" clip-path="url(#clipPath2)" stroke="none">oaentry:PartialDerivation</text>
      <rect x="-797.3005" y="511.4816" clip-path="url(#clipPath2)" fill="none" width="199.7803" rx="4" ry="4" height="44"/>
    </g>
    <g fill="yellow" text-rendering="geometricPrecision" shape-rendering="geometricPrecision" transform="matrix(1,0,0,1,817,147)" stroke="yellow">
      <rect x="-546.7626" y="752.2088" clip-path="url(#clipPath2)" width="175.9682" rx="4" ry="4" height="44" stroke="none"/>
    </g>
    <g font-size="16px" stroke-linecap="butt" transform="matrix(1,0,0,1,817,147)" text-rendering="geometricPrecision" font-family="sans-serif" shape-rendering="geometricPrecision" stroke-miterlimit="1.45">
      <text x="-537.9348" xml:space="preserve" y="780.4939" clip-path="url(#clipPath2)" stroke="none">oaentry:SpecularCopy</text>
      <rect x="-546.7626" y="752.2088" clip-path="url(#clipPath2)" fill="none" width="175.9682" rx="4" ry="4" height="44"/>
    </g>
    <g fill="yellow" text-rendering="geometricPrecision" shape-rendering="geometricPrecision" transform="matrix(1,0,0,1,817,147)" stroke="yellow">
      <rect x="-557.9667" y="-52.7156" clip-path="url(#clipPath2)" width="149.9838" rx="4" ry="4" height="44" stroke="none"/>
    </g>
    <g font-size="16px" stroke-linecap="butt" transform="matrix(1,0,0,1,817,147)" text-rendering="geometricPrecision" font-family="sans-serif" shape-rendering="geometricPrecision" stroke-miterlimit="1.45">
      <text x="-547.4474" xml:space="preserve" y="-24.4304" clip-path="url(#clipPath2)" stroke="none">crm:E65_Creation</text>
      <rect x="-557.9667" y="-52.7156" clip-path="url(#clipPath2)" fill="none" width="149.9838" rx="4" ry="4" height="44"/>
    </g>
    <g fill="yellow" text-rendering="geometricPrecision" shape-rendering="geometricPrecision" transform="matrix(1,0,0,1,817,147)" stroke="yellow">
      <rect x="-595.1551" y="103.9705" clip-path="url(#clipPath2)" width="224.3607" rx="4" ry="4" height="44" stroke="none"/>
    </g>
    <g font-size="16px" stroke-linecap="butt" transform="matrix(1,0,0,1,817,147)" text-rendering="geometricPrecision" font-family="sans-serif" shape-rendering="geometricPrecision" stroke-miterlimit="1.45">
      <text x="-585.2521" xml:space="preserve" y="132.2556" clip-path="url(#clipPath2)" stroke="none">crm:E28_Conceptual_Object</text>
      <rect x="-595.1551" y="103.9705" clip-path="url(#clipPath2)" fill="none" width="224.3607" rx="4" ry="4" height="44"/>
    </g>
    <g fill="yellow" text-rendering="geometricPrecision" shape-rendering="geometricPrecision" transform="matrix(1,0,0,1,817,147)" stroke="yellow">
      <rect x="-100.3018" y="-52.7156" clip-path="url(#clipPath2)" width="128.9682" rx="4" ry="4" height="44" stroke="none"/>
    </g>
    <g font-size="16px" stroke-linecap="butt" transform="matrix(1,0,0,1,817,147)" text-rendering="geometricPrecision" font-family="sans-serif" shape-rendering="geometricPrecision" stroke-miterlimit="1.45">
      <text x="-86.0599" xml:space="preserve" y="-24.4304" clip-path="url(#clipPath2)" stroke="none">crm:E5_Event</text>
      <rect x="-100.3018" y="-52.7156" clip-path="url(#clipPath2)" fill="none" width="128.9682" rx="4" ry="4" height="44"/>
    </g>
    <g fill="yellow" text-rendering="geometricPrecision" shape-rendering="geometricPrecision" transform="matrix(1,0,0,1,817,147)" stroke="yellow">
      <rect x="-100.3018" y="103.9705" clip-path="url(#clipPath2)" width="210.9995" rx="4" ry="4" height="44" stroke="none"/>
    </g>
    <g font-size="16px" stroke-linecap="butt" transform="matrix(1,0,0,1,817,147)" text-rendering="geometricPrecision" font-family="sans-serif" shape-rendering="geometricPrecision" stroke-miterlimit="1.45">
      <text x="-94.845" xml:space="preserve" y="132.2556" clip-path="url(#clipPath2)" stroke="none">crm:E22_Man-Made_Object</text>
      <rect x="-100.3018" y="103.9705" clip-path="url(#clipPath2)" fill="none" width="210.9995" rx="4" ry="4" height="44"/>
    </g>
    <g fill="yellow" text-rendering="geometricPrecision" shape-rendering="geometricPrecision" transform="matrix(1,0,0,1,817,147)" stroke="yellow">
      <rect x="259.3667" y="250.8964" clip-path="url(#clipPath2)" width="175.9682" rx="4" ry="4" height="44" stroke="none"/>
    </g>
    <g font-size="16px" stroke-linecap="butt" transform="matrix(1,0,0,1,817,147)" text-rendering="geometricPrecision" font-family="sans-serif" shape-rendering="geometricPrecision" stroke-miterlimit="1.45">
      <text x="265.5305" xml:space="preserve" y="279.1815" clip-path="url(#clipPath2)" stroke="none">vir:IC9_Representation</text>
      <rect x="259.3667" y="250.8964" clip-path="url(#clipPath2)" fill="none" width="175.9682" rx="4" ry="4" height="44"/>
    </g>
    <g stroke-linecap="butt" transform="matrix(1,0,0,1,817,147)" fill="navy" text-rendering="geometricPrecision" shape-rendering="geometricPrecision" stroke="navy" stroke-miterlimit="1.45">
      <path fill="none" d="M-111.1171 257.827 L-148.9857 250.6174 L-497.7705 250.6174 L-497.7705 385.2837" clip-path="url(#clipPath2)"/>
      <path d="M-100.3112 259.8843 L-110.9773 251.7459 L-113.2216 263.5341 Z" clip-path="url(#clipPath2)" stroke="none"/>
      <path d="M-497.7705 393.2837 C-499.9796 393.2837 -501.7705 391.4928 -501.7705 389.2837 C-501.7705 387.0745 -499.9796 385.2837 -497.7705 385.2837 C-495.5613 385.2837 -493.7705 387.0745 -493.7705 389.2837 C-493.7705 391.4928 -495.5613 393.2837 -497.7705 393.2837 Z" clip-path="url(#clipPath2)" stroke="none"/>
      <rect x="-404.9836" y="238.8166" clip-path="url(#clipPath2)" fill="white" width="163.2109" height="23.6016" stroke="none"/>
      <text x="-402.9836" font-size="16px" y="256.9025" clip-path="url(#clipPath2)" font-family="sans-serif" stroke="none" xml:space="preserve">oaentry:hasConceived</text>
      <path fill="none" d="M-103.9793 290.9843 L-145.5832 308.994 L-443.9506 308.994 L-443.9506 378.2761" clip-path="url(#clipPath2)"/>
      <path d="M-96.6376 287.8062 C-95.76 289.8336 -96.6921 292.1885 -98.7194 293.0661 C-100.7468 293.9437 -103.1017 293.0116 -103.9793 290.9843 C-104.8569 288.9569 -103.9248 286.602 -101.8975 285.7244 C-99.8701 284.8468 -97.5152 285.7789 -96.6376 287.8062 Z" clip-path="url(#clipPath2)" stroke="none"/>
      <path d="M-443.9506 389.2761 L-437.9506 377.2761 L-449.9506 377.2761 Z" clip-path="url(#clipPath2)" stroke="none"/>
      <rect x="-411.0443" y="297.1932" clip-path="url(#clipPath2)" fill="white" width="232.5547" height="23.6016" stroke="none"/>
      <text x="-409.0443" font-size="16px" y="315.2792" clip-path="url(#clipPath2)" font-family="sans-serif" stroke="none" xml:space="preserve">oaentry:isConceivedByMeansOf</text>
      <path fill="none" d="M-205.6195 752.186 L-205.6195 655.6735 L-267.8205 655.6735" clip-path="url(#clipPath2)" stroke="black"/>
      <path fill="black" d="M-275.8205 655.6735 L-263.8205 660.6735 L-266.8205 655.6735 L-263.8205 650.6735 Z" clip-path="url(#clipPath2)" stroke="none"/>
      <rect x="-264.5257" y="687.5778" clip-path="url(#clipPath2)" fill="white" width="117.8125" height="23.6016" stroke="none"/>
    </g>
    <g font-size="16px" stroke-linecap="butt" transform="matrix(1,0,0,1,817,147)" text-rendering="geometricPrecision" font-family="sans-serif" shape-rendering="geometricPrecision" stroke-miterlimit="1.45">
      <text x="-262.5257" xml:space="preserve" y="705.6638" clip-path="url(#clipPath2)" stroke="none">rdfs:subClassOf</text>
      <path fill="none" d="M-332.7947 633.6873 L-332.7947 563.4506" clip-path="url(#clipPath2)"/>
      <path d="M-332.7947 555.4506 L-337.7947 567.4506 L-332.7947 564.4506 L-327.7947 567.4506 Z" stroke="none" clip-path="url(#clipPath2)"/>
    </g>
    <g stroke-linecap="butt" transform="matrix(1,0,0,1,817,147)" fill="white" text-rendering="geometricPrecision" shape-rendering="geometricPrecision" stroke="white" stroke-miterlimit="1.45">
      <rect x="-391.701" width="117.8125" height="23.6016" y="582.7768" clip-path="url(#clipPath2)" stroke="none"/>
    </g>
    <g font-size="16px" stroke-linecap="butt" transform="matrix(1,0,0,1,817,147)" text-rendering="geometricPrecision" font-family="sans-serif" shape-rendering="geometricPrecision" stroke-miterlimit="1.45">
      <text x="-389.701" xml:space="preserve" y="600.8627" clip-path="url(#clipPath2)" stroke="none">rdfs:subClassOf</text>
      <path fill="none" d="M-407.7507 533.4816 L-497.7705 533.4816 L-497.7705 441.276" clip-path="url(#clipPath2)"/>
      <path d="M-497.7705 433.276 L-502.7705 445.276 L-497.7705 442.276 L-492.7705 445.276 Z" stroke="none" clip-path="url(#clipPath2)"/>
    </g>
    <g stroke-linecap="butt" transform="matrix(1,0,0,1,817,147)" fill="white" text-rendering="geometricPrecision" shape-rendering="geometricPrecision" stroke="white" stroke-miterlimit="1.45">
      <rect x="-556.6767" width="117.8125" height="23.6016" y="476.1474" clip-path="url(#clipPath2)" stroke="none"/>
    </g>
    <g font-size="16px" stroke-linecap="butt" transform="matrix(1,0,0,1,817,147)" text-rendering="geometricPrecision" font-family="sans-serif" shape-rendering="geometricPrecision" stroke-miterlimit="1.45">
      <text x="-554.6768" xml:space="preserve" y="494.2334" clip-path="url(#clipPath2)" stroke="none">rdfs:subClassOf</text>
      <path fill="none" d="M-12.3177 631.8195 L-12.3177 534.9816 L-249.8004 533.8701" clip-path="url(#clipPath2)"/>
      <path d="M-257.8003 533.8326 L-245.8238 538.8887 L-248.8004 533.8748 L-245.777 528.8888 Z" stroke="none" clip-path="url(#clipPath2)"/>
    </g>
    <g stroke-linecap="butt" transform="matrix(1,0,0,1,817,147)" fill="white" text-rendering="geometricPrecision" shape-rendering="geometricPrecision" stroke="white" stroke-miterlimit="1.45">
      <rect x="-189.404" width="117.8125" height="23.6016" y="522.6277" clip-path="url(#clipPath2)" stroke="none"/>
    </g>
    <g font-size="16px" stroke-linecap="butt" transform="matrix(1,0,0,1,817,147)" text-rendering="geometricPrecision" font-family="sans-serif" shape-rendering="geometricPrecision" stroke-miterlimit="1.45">
      <text x="-187.404" xml:space="preserve" y="540.7136" clip-path="url(#clipPath2)" stroke="none">rdfs:subClassOf</text>
      <path fill="none" d="M-697.4104 629.9941 L-697.4104 563.4891" clip-path="url(#clipPath2)"/>
      <path d="M-697.4104 555.4891 L-702.4104 567.4891 L-697.4104 564.4891 L-692.4104 567.4891 Z" stroke="none" clip-path="url(#clipPath2)"/>
    </g>
    <g stroke-linecap="butt" transform="matrix(1,0,0,1,817,147)" fill="white" text-rendering="geometricPrecision" shape-rendering="geometricPrecision" stroke="white" stroke-miterlimit="1.45">
      <rect x="-756.3166" width="117.8125" height="23.6016" y="580.9485" clip-path="url(#clipPath2)" stroke="none"/>
    </g>
    <g font-size="16px" stroke-linecap="butt" transform="matrix(1,0,0,1,817,147)" text-rendering="geometricPrecision" font-family="sans-serif" shape-rendering="geometricPrecision" stroke-miterlimit="1.45">
      <text x="-754.3167" xml:space="preserve" y="599.0345" clip-path="url(#clipPath2)" stroke="none">rdfs:subClassOf</text>
      <path fill="none" d="M-697.4104 511.4955 L-697.4104 411.2898 L-613.5351 411.2898" clip-path="url(#clipPath2)"/>
      <path d="M-605.5351 411.2898 L-617.5351 406.2898 L-614.5351 411.2898 L-617.5351 416.2898 Z" stroke="none" clip-path="url(#clipPath2)"/>
    </g>
    <g stroke-linecap="butt" transform="matrix(1,0,0,1,817,147)" fill="white" text-rendering="geometricPrecision" shape-rendering="geometricPrecision" stroke="white" stroke-miterlimit="1.45">
      <rect x="-756.3166" width="117.8125" height="23.6016" y="445.0224" clip-path="url(#clipPath2)" stroke="none"/>
    </g>
    <g font-size="16px" stroke-linecap="butt" transform="matrix(1,0,0,1,817,147)" text-rendering="geometricPrecision" font-family="sans-serif" shape-rendering="geometricPrecision" stroke-miterlimit="1.45">
      <text x="-754.3167" xml:space="preserve" y="463.1084" clip-path="url(#clipPath2)" stroke="none">rdfs:subClassOf</text>
      <path fill="none" d="M-459.2099 752.186 L-461.1003 655.6735 L-397.7741 655.6735" clip-path="url(#clipPath2)"/>
      <path d="M-389.7741 655.6735 L-401.7741 650.6735 L-398.7741 655.6735 L-401.7741 660.6735 Z" stroke="none" clip-path="url(#clipPath2)"/>
    </g>
    <g stroke-linecap="butt" transform="matrix(1,0,0,1,817,147)" fill="white" text-rendering="geometricPrecision" shape-rendering="geometricPrecision" stroke="white" stroke-miterlimit="1.45">
      <rect x="-519.1504" width="117.8125" height="23.6016" y="687.5778" clip-path="url(#clipPath2)" stroke="none"/>
    </g>
    <g font-size="16px" stroke-linecap="butt" transform="matrix(1,0,0,1,817,147)" text-rendering="geometricPrecision" font-family="sans-serif" shape-rendering="geometricPrecision" stroke-miterlimit="1.45">
      <text x="-517.1505" xml:space="preserve" y="705.6638" clip-path="url(#clipPath2)" stroke="none">rdfs:subClassOf</text>
    </g>
    <g stroke-linecap="butt" transform="matrix(1,0,0,1,817,147)" fill="navy" text-rendering="geometricPrecision" shape-rendering="geometricPrecision" stroke="navy" stroke-miterlimit="1.45">
      <path fill="none" d="M-482.9748 -4.7199 L-482.9748 92.9715" clip-path="url(#clipPath2)"/>
      <path d="M-482.9748 -12.7199 C-480.7656 -12.7199 -478.9748 -10.929 -478.9748 -8.7199 C-478.9748 -6.5107 -480.7656 -4.7199 -482.9748 -4.7199 C-485.1839 -4.7199 -486.9748 -6.5107 -486.9748 -8.7199 C-486.9748 -10.929 -485.1839 -12.7199 -482.9748 -12.7199 Z" clip-path="url(#clipPath2)" stroke="none"/>
      <path d="M-482.9748 103.9715 L-476.9748 91.9715 L-488.9748 91.9715 Z" clip-path="url(#clipPath2)" stroke="none"/>
      <rect x="-563.2404" y="35.8267" clip-path="url(#clipPath2)" fill="white" width="160.5312" height="23.6016" stroke="none"/>
      <text x="-561.2404" font-size="16px" y="53.9126" clip-path="url(#clipPath2)" font-family="sans-serif" stroke="none" xml:space="preserve">crm:P94_has_created</text>
      <path fill="none" d="M-561.9697 -30.7156 L-697.4104 -30.7156 L-697.4104 125.9705 L-606.1399 125.9705" clip-path="url(#clipPath2)"/>
      <path d="M-553.9697 -30.7156 C-553.9697 -28.5064 -555.7605 -26.7156 -557.9697 -26.7156 C-560.1788 -26.7156 -561.9697 -28.5064 -561.9697 -30.7156 C-561.9697 -32.9247 -560.1788 -34.7156 -557.9697 -34.7156 C-555.7605 -34.7156 -553.9697 -32.9247 -553.9697 -30.7156 Z" clip-path="url(#clipPath2)" stroke="none"/>
      <path d="M-595.1399 125.9705 L-607.1399 119.9705 L-607.1399 131.9705 Z" clip-path="url(#clipPath2)" stroke="none"/>
      <rect x="-801.6916" y="35.8267" clip-path="url(#clipPath2)" fill="white" width="208.5625" height="23.6016" stroke="none"/>
      <text x="-799.6917" font-size="16px" y="53.9126" clip-path="url(#clipPath2)" font-family="sans-serif" stroke="none" xml:space="preserve">crm:P15_was_influenced_by</text>
      <path fill="none" d="M-403.9672 -30.8626 L-111.3045 -31.4072" clip-path="url(#clipPath2)"/>
      <path d="M-411.9672 -30.8477 C-411.9713 -33.0569 -410.1837 -34.851 -407.9746 -34.8552 C-405.7655 -34.8593 -403.9713 -33.0717 -403.9672 -30.8626 C-403.9631 -28.6535 -405.7506 -26.8593 -407.9597 -26.8552 C-410.1689 -26.8511 -411.963 -28.6386 -411.9672 -30.8477 Z" clip-path="url(#clipPath2)" stroke="none"/>
      <path d="M-100.3045 -31.4276 L-112.3157 -37.4053 L-112.2933 -25.4053 Z" clip-path="url(#clipPath2)" stroke="none"/>
      <rect x="-358.4236" y="-42.9422" clip-path="url(#clipPath2)" fill="white" width="208.5625" height="23.6016" stroke="none"/>
      <text x="-356.4236" font-size="16px" y="-24.8562" clip-path="url(#clipPath2)" font-family="sans-serif" stroke="none" xml:space="preserve">crm:P15_was_influenced_by</text>
      <path fill="none" d="M5.1979 151.9591 L5.1979 239.9043" clip-path="url(#clipPath2)"/>
      <path d="M5.1979 143.9591 C7.4071 143.9591 9.1979 145.75 9.1979 147.9591 C9.1979 150.1683 7.4071 151.9591 5.1979 151.9591 C2.9888 151.9591 1.1979 150.1683 1.1979 147.9591 C1.1979 145.75 2.9888 143.9591 5.1979 143.9591 Z" clip-path="url(#clipPath2)" stroke="none"/>
      <path d="M5.1979 250.9043 L11.1979 238.9043 L-0.8021 238.9043 Z" clip-path="url(#clipPath2)" stroke="none"/>
      <rect x="-89.2942" y="187.6326" clip-path="url(#clipPath2)" fill="white" width="188.9844" height="23.6016" stroke="none"/>
      <text x="-87.2942" font-size="16px" y="205.7186" clip-path="url(#clipPath2)" font-family="sans-serif" stroke="none" xml:space="preserve">crm:P46_is_composed_of</text>
      <path fill="none" d="M-104.3086 125.9705 L-359.8188 125.9705" clip-path="url(#clipPath2)"/>
      <path d="M-96.3086 125.9705 C-96.3086 128.1796 -98.0995 129.9705 -100.3086 129.9705 C-102.5178 129.9705 -104.3086 128.1796 -104.3086 125.9705 C-104.3086 123.7613 -102.5178 121.9705 -100.3086 121.9705 C-98.0995 121.9705 -96.3086 123.7613 -96.3086 125.9705 Z" clip-path="url(#clipPath2)" stroke="none"/>
      <path d="M-370.8188 125.9705 L-358.8188 131.9705 L-358.8188 119.9705 Z" clip-path="url(#clipPath2)" stroke="none"/>
      <rect x="-302.4582" y="114.1697" clip-path="url(#clipPath2)" fill="white" width="133.8203" height="23.6016" stroke="none"/>
      <text x="-300.4583" font-size="16px" y="132.2556" clip-path="url(#clipPath2)" font-family="sans-serif" stroke="none" xml:space="preserve">crm:P128_carries </text>
      <path fill="none" d="M114.6589 272.8964 L248.3714 272.8964" clip-path="url(#clipPath2)"/>
      <path d="M106.6589 272.8964 C106.6589 270.6873 108.4497 268.8964 110.6589 268.8964 C112.868 268.8964 114.6589 270.6873 114.6589 272.8964 C114.6589 275.1055 112.868 276.8964 110.6589 276.8964 C108.4497 276.8964 106.6589 275.1055 106.6589 272.8964 Z" clip-path="url(#clipPath2)" stroke="none"/>
      <path d="M259.3714 272.8964 L247.3714 266.8964 L247.3714 278.8964 Z" clip-path="url(#clipPath2)" stroke="none"/>
      <rect x="129.665" y="261.0956" clip-path="url(#clipPath2)" fill="white" width="110.7344" height="23.6016" stroke="none"/>
      <text x="131.665" font-size="16px" y="279.1815" clip-path="url(#clipPath2)" font-family="sans-serif" stroke="none" xml:space="preserve">vir:K1_denotes</text>
      <path fill="none" d="M-482.9748 -56.7397 L-482.9748 -119.3314 L347.3508 -119.3314 L347.3508 239.9198" clip-path="url(#clipPath2)"/>
      <path d="M-482.9748 -48.7397 C-485.1839 -48.7397 -486.9748 -50.5306 -486.9748 -52.7397 C-486.9748 -54.9489 -485.1839 -56.7397 -482.9748 -56.7397 C-480.7656 -56.7397 -478.9748 -54.9489 -478.9748 -52.7397 C-478.9748 -50.5306 -480.7656 -48.7397 -482.9748 -48.7397 Z" clip-path="url(#clipPath2)" stroke="none"/>
      <path d="M347.3508 250.9198 L353.3508 238.9198 L341.3508 238.9198 Z" clip-path="url(#clipPath2)" stroke="none"/>
      <rect x="-148.0776" y="-131.1322" clip-path="url(#clipPath2)" fill="white" width="160.5312" height="23.6016" stroke="none"/>
      <text x="-146.0776" font-size="16px" y="-113.0462" clip-path="url(#clipPath2)" font-family="sans-serif" stroke="none" xml:space="preserve">crm:P94_has_created</text>
    </g>
  </g>
</svg>
