<?xml version="1.0" encoding="UTF-8"?><svg xmlns="http://www.w3.org/2000/svg" xmlns:xlink="http://www.w3.org/1999/xlink" fill-opacity="1" color-rendering="auto" color-interpolation="auto" text-rendering="auto" stroke="black" stroke-linecap="square" width="801" stroke-miterlimit="10" shape-rendering="auto" stroke-opacity="1" fill="black" stroke-dasharray="none" font-weight="normal" stroke-width="1" height="664" font-family="'Dialog'" font-style="normal" stroke-linejoin="miter" font-size="12px" stroke-dashoffset="0" image-rendering="auto">
  <!--Generated by ySVG 2.5-->
  <defs id="genericDefs"/>
  <g>
    <defs id="defs1">
      <clipPath clipPathUnits="userSpaceOnUse" id="clipPath1">
        <path d="M0 0 L801 0 L801 664 L0 664 L0 0 Z"/>
      </clipPath>
      <clipPath clipPathUnits="userSpaceOnUse" id="clipPath2">
        <path d="M-67 -266 L734 -266 L734 398 L-67 398 L-67 -266 Z"/>
      </clipPath>
    </defs>
    <g fill="white" text-rendering="geometricPrecision" shape-rendering="geometricPrecision" transform="translate(67,266)" stroke="white">
      <rect x="-67" width="801" height="664" y="-266" clip-path="url(#clipPath2)" stroke="none"/>
    </g>
    <g fill="yellow" text-rendering="geometricPrecision" shape-rendering="geometricPrecision" transform="matrix(1,0,0,1,67,266)" stroke="yellow">
      <rect x="79.6163" y="229.125" clip-path="url(#clipPath2)" width="184.9057" rx="4" ry="4" height="44" stroke="none"/>
    </g>
    <g font-size="16px" stroke-linecap="butt" transform="matrix(1,0,0,1,67,266)" text-rendering="geometricPrecision" font-family="sans-serif" shape-rendering="geometricPrecision" stroke-miterlimit="1.45">
      <text x="88.0262" xml:space="preserve" y="257.4102" clip-path="url(#clipPath2)" stroke="none"> vir:IC9_Representation</text>
      <rect x="79.6163" y="229.125" clip-path="url(#clipPath2)" fill="none" width="184.9057" rx="4" ry="4" height="44"/>
    </g>
    <g fill="yellow" text-rendering="geometricPrecision" shape-rendering="geometricPrecision" transform="matrix(1,0,0,1,67,266)" stroke="yellow">
      <rect x="58.384" y="92.0758" clip-path="url(#clipPath2)" width="227.3704" rx="4" ry="4" height="44" stroke="none"/>
    </g>
    <g font-size="16px" stroke-linecap="butt" transform="matrix(1,0,0,1,67,266)" text-rendering="geometricPrecision" font-family="sans-serif" shape-rendering="geometricPrecision" stroke-miterlimit="1.45">
      <text x="69.3504" xml:space="preserve" y="120.3609" clip-path="url(#clipPath2)" stroke="none">vir:IC1_Iconographical_Atom</text>
      <rect x="58.384" y="92.0758" clip-path="url(#clipPath2)" fill="none" width="227.3704" rx="4" ry="4" height="44"/>
    </g>
    <g fill="yellow" text-rendering="geometricPrecision" shape-rendering="geometricPrecision" transform="matrix(1,0,0,1,67,266)" stroke="yellow">
      <rect x="344.5444" y="92.0758" clip-path="url(#clipPath2)" width="249.8559" rx="4" ry="4" height="44" stroke="none"/>
    </g>
    <g font-size="16px" stroke-linecap="butt" transform="matrix(1,0,0,1,67,266)" text-rendering="geometricPrecision" font-family="sans-serif" shape-rendering="geometricPrecision" stroke-miterlimit="1.45">
      <text x="353.4294" xml:space="preserve" y="120.3609" clip-path="url(#clipPath2)" stroke="none">tex:TX7_Written_Text_Fragment</text>
      <rect x="344.5444" y="92.0758" clip-path="url(#clipPath2)" fill="none" width="249.8559" rx="4" ry="4" height="44"/>
    </g>
    <g fill="yellow" text-rendering="geometricPrecision" shape-rendering="geometricPrecision" transform="matrix(1,0,0,1,67,266)" stroke="yellow">
      <rect x="366.7695" y="229.125" clip-path="url(#clipPath2)" width="205.4057" rx="4" ry="4" height="44" stroke="none"/>
    </g>
    <g font-size="16px" stroke-linecap="butt" transform="matrix(1,0,0,1,67,266)" text-rendering="geometricPrecision" font-family="sans-serif" shape-rendering="geometricPrecision" stroke-miterlimit="1.45">
      <text x="374.3161" xml:space="preserve" y="257.4102" clip-path="url(#clipPath2)" stroke="none">crm:E33_Linguistic_Object</text>
      <rect x="366.7695" y="229.125" clip-path="url(#clipPath2)" fill="none" width="205.4057" rx="4" ry="4" height="44"/>
    </g>
    <g fill="rgb(204,255,204)" text-rendering="geometricPrecision" shape-rendering="geometricPrecision" transform="matrix(1,0,0,1,67,266)" stroke="rgb(204,255,204)">
      <path d="M419.0344 339.0938 L532.5199 339.0938 L519.9104 382.0938 L406.4249 382.0938 Z" fill-rule="evenodd" clip-path="url(#clipPath2)" stroke="none"/>
    </g>
    <g font-size="16px" stroke-linecap="butt" transform="matrix(1,0,0,1,67,266)" text-rendering="geometricPrecision" font-family="sans-serif" shape-rendering="geometricPrecision" stroke-miterlimit="1.45">
      <text x="433.9021" xml:space="preserve" y="366.8789" clip-path="url(#clipPath2)" stroke="none">xsd:String</text>
      <path fill="none" d="M419.0344 339.0938 L532.5199 339.0938 L519.9104 382.0938 L406.4249 382.0938 Z" fill-rule="evenodd" clip-path="url(#clipPath2)"/>
    </g>
    <g fill="rgb(204,255,204)" text-rendering="geometricPrecision" shape-rendering="geometricPrecision" transform="matrix(1,0,0,1,67,266)" stroke="rgb(204,255,204)">
      <path d="M121.6312 339.0938 L235.1166 339.0938 L222.5071 382.0938 L109.0217 382.0938 Z" fill-rule="evenodd" clip-path="url(#clipPath2)" stroke="none"/>
    </g>
    <g font-size="16px" stroke-linecap="butt" transform="matrix(1,0,0,1,67,266)" text-rendering="geometricPrecision" font-family="sans-serif" shape-rendering="geometricPrecision" stroke-miterlimit="1.45">
      <text x="136.4988" xml:space="preserve" y="366.8789" clip-path="url(#clipPath2)" stroke="none">xsd:String</text>
      <path fill="none" d="M121.6312 339.0938 L235.1166 339.0938 L222.5071 382.0938 L109.0217 382.0938 Z" fill-rule="evenodd" clip-path="url(#clipPath2)"/>
    </g>
    <g fill="yellow" text-rendering="geometricPrecision" shape-rendering="geometricPrecision" transform="matrix(1,0,0,1,67,266)" stroke="yellow">
      <rect x="206.711" y="-109.9245" clip-path="url(#clipPath2)" width="227.3704" rx="4" ry="4" height="44" stroke="none"/>
    </g>
    <g font-size="16px" stroke-linecap="butt" transform="matrix(1,0,0,1,67,266)" text-rendering="geometricPrecision" font-family="sans-serif" shape-rendering="geometricPrecision" stroke-miterlimit="1.45">
      <text x="220.3533" xml:space="preserve" y="-81.6394" clip-path="url(#clipPath2)" stroke="none">crm:E22_Man-Made_Object</text>
      <rect x="206.711" y="-109.9245" clip-path="url(#clipPath2)" fill="none" width="227.3704" rx="4" ry="4" height="44"/>
    </g>
    <g fill="yellow" text-rendering="geometricPrecision" shape-rendering="geometricPrecision" transform="matrix(1,0,0,1,67,266)" stroke="yellow">
      <rect x="212.7153" y="-250.5432" clip-path="url(#clipPath2)" width="215.3619" rx="4" ry="4" height="44" stroke="none"/>
    </g>
    <g font-size="16px" stroke-linecap="butt" transform="matrix(1,0,0,1,67,266)" text-rendering="geometricPrecision" font-family="sans-serif" shape-rendering="geometricPrecision" stroke-miterlimit="1.45">
      <text x="218.1189" xml:space="preserve" y="-222.2581" clip-path="url(#clipPath2)" stroke="none">crm:E28_Conceptual_Object</text>
      <rect x="212.7153" y="-250.5432" clip-path="url(#clipPath2)" fill="none" width="215.3619" rx="4" ry="4" height="44"/>
    </g>
    <g fill="rgb(204,255,204)" text-rendering="geometricPrecision" shape-rendering="geometricPrecision" transform="matrix(1,0,0,1,67,266)" stroke="rgb(204,255,204)">
      <path d="M-38.7969 -250.0432 L74.6885 -250.0432 L62.0791 -207.0432 L-51.4064 -207.0432 Z" fill-rule="evenodd" clip-path="url(#clipPath2)" stroke="none"/>
    </g>
    <g font-size="16px" stroke-linecap="butt" transform="matrix(1,0,0,1,67,266)" text-rendering="geometricPrecision" font-family="sans-serif" shape-rendering="geometricPrecision" stroke-miterlimit="1.45">
      <text x="-23.9292" xml:space="preserve" y="-222.2581" clip-path="url(#clipPath2)" stroke="none">xsd:String</text>
      <path fill="none" d="M-38.7969 -250.0432 L74.6885 -250.0432 L62.0791 -207.0432 L-51.4064 -207.0432 Z" fill-rule="evenodd" clip-path="url(#clipPath2)"/>
    </g>
    <g fill="rgb(204,255,204)" text-rendering="geometricPrecision" shape-rendering="geometricPrecision" transform="matrix(1,0,0,1,67,266)" stroke="rgb(204,255,204)">
      <path d="M604.666 339.0938 L718.1514 339.0938 L705.5419 382.0938 L592.0565 382.0938 Z" fill-rule="evenodd" clip-path="url(#clipPath2)" stroke="none"/>
    </g>
    <g font-size="16px" stroke-linecap="butt" transform="matrix(1,0,0,1,67,266)" text-rendering="geometricPrecision" font-family="sans-serif" shape-rendering="geometricPrecision" stroke-miterlimit="1.45">
      <text x="619.5336" xml:space="preserve" y="366.8789" clip-path="url(#clipPath2)" stroke="none">xsd:String</text>
      <path fill="none" d="M604.666 339.0938 L718.1514 339.0938 L705.5419 382.0938 L592.0565 382.0938 Z" fill-rule="evenodd" clip-path="url(#clipPath2)"/>
    </g>
    <g stroke-linecap="butt" transform="matrix(1,0,0,1,67,266)" fill="navy" text-rendering="geometricPrecision" shape-rendering="geometricPrecision" stroke="navy" stroke-miterlimit="1.45">
      <path fill="none" d="M172.0692 140.0585 L172.0692 218.1286" clip-path="url(#clipPath2)"/>
      <path d="M172.0692 132.0585 C174.2783 132.0585 176.0692 133.8494 176.0692 136.0585 C176.0692 138.2677 174.2783 140.0585 172.0692 140.0585 C169.86 140.0585 168.0692 138.2677 168.0692 136.0585 C168.0692 133.8494 169.86 132.0585 172.0692 132.0585 Z" clip-path="url(#clipPath2)" stroke="none"/>
      <path d="M172.0692 229.1286 L178.0692 217.1286 L166.0692 217.1286 Z" clip-path="url(#clipPath2)" stroke="none"/>
      <rect x="116.702" y="170.7996" clip-path="url(#clipPath2)" fill="white" width="110.7344" height="23.6016" stroke="none"/>
      <text x="118.702" font-size="16px" y="188.8855" clip-path="url(#clipPath2)" font-family="sans-serif" stroke="none" xml:space="preserve">vir:K1_denotes</text>
      <path fill="none" d="M469.4724 140.0585 L469.4724 218.1286" clip-path="url(#clipPath2)"/>
      <path d="M469.4724 132.0585 C471.6815 132.0585 473.4724 133.8494 473.4724 136.0585 C473.4724 138.2677 471.6815 140.0585 469.4724 140.0585 C467.2632 140.0585 465.4724 138.2677 465.4724 136.0585 C465.4724 133.8494 467.2632 132.0585 469.4724 132.0585 Z" clip-path="url(#clipPath2)" stroke="none"/>
      <path d="M469.4724 229.1286 L475.4724 217.1286 L463.4724 217.1286 Z" clip-path="url(#clipPath2)" stroke="none"/>
      <rect x="404.7849" y="170.7996" clip-path="url(#clipPath2)" fill="white" width="129.375" height="23.6016" stroke="none"/>
      <text x="406.7849" font-size="16px" y="188.8855" clip-path="url(#clipPath2)" font-family="sans-serif" stroke="none" xml:space="preserve">crm:P128_carries</text>
      <path fill="none" d="M469.4724 277.1203 L469.4724 324.1098" clip-path="url(#clipPath2)" stroke="green"/>
    </g>
    <g stroke-linecap="butt" transform="matrix(1,0,0,1,67,266)" fill-opacity="0" fill="rgb(0,0,0)" text-rendering="geometricPrecision" shape-rendering="geometricPrecision" stroke="rgb(0,0,0)" stroke-opacity="0" stroke-miterlimit="1.45">
      <path d="M469.4724 269.1203 C471.6815 269.1203 473.4724 270.9112 473.4724 273.1203 C473.4724 275.3294 471.6815 277.1203 469.4724 277.1203 C467.2632 277.1203 465.4724 275.3294 465.4724 273.1203 C465.4724 270.9112 467.2632 269.1203 469.4724 269.1203 Z" stroke="none" clip-path="url(#clipPath2)"/>
    </g>
    <g stroke-linecap="butt" transform="matrix(1,0,0,1,67,266)" fill="green" text-rendering="geometricPrecision" shape-rendering="geometricPrecision" stroke="green" stroke-miterlimit="1.45">
      <path fill="none" d="M469.4724 269.1203 C471.6815 269.1203 473.4724 270.9112 473.4724 273.1203 C473.4724 275.3294 471.6815 277.1203 469.4724 277.1203 C467.2632 277.1203 465.4724 275.3294 465.4724 273.1203 C465.4724 270.9112 467.2632 269.1203 469.4724 269.1203 Z" clip-path="url(#clipPath2)"/>
      <path fill="white" d="M469.4724 339.1098 L475.4724 323.1098 L463.4724 323.1098 Z" clip-path="url(#clipPath2)" stroke="none"/>
      <path fill="none" d="M469.4724 339.1098 L475.4724 323.1098 L463.4724 323.1098 Z" clip-path="url(#clipPath2)"/>
      <rect x="424.3513" y="294.3086" clip-path="url(#clipPath2)" fill="white" width="90.2422" height="23.6016" stroke="none"/>
      <text x="426.3513" font-size="16px" y="312.3945" clip-path="url(#clipPath2)" font-family="sans-serif" stroke="none" xml:space="preserve">dcterms:title</text>
      <path fill="none" d="M172.0692 277.1203 L172.0692 324.1098" clip-path="url(#clipPath2)"/>
    </g>
    <g stroke-linecap="butt" transform="matrix(1,0,0,1,67,266)" fill-opacity="0" fill="rgb(0,0,0)" text-rendering="geometricPrecision" shape-rendering="geometricPrecision" stroke="rgb(0,0,0)" stroke-opacity="0" stroke-miterlimit="1.45">
      <path d="M172.0692 269.1203 C174.2783 269.1203 176.0692 270.9112 176.0692 273.1203 C176.0692 275.3294 174.2783 277.1203 172.0692 277.1203 C169.86 277.1203 168.0692 275.3294 168.0692 273.1203 C168.0692 270.9112 169.86 269.1203 172.0692 269.1203 Z" stroke="none" clip-path="url(#clipPath2)"/>
    </g>
    <g stroke-linecap="butt" transform="matrix(1,0,0,1,67,266)" fill="green" text-rendering="geometricPrecision" shape-rendering="geometricPrecision" stroke="green" stroke-miterlimit="1.45">
      <path fill="none" d="M172.0692 269.1203 C174.2783 269.1203 176.0692 270.9112 176.0692 273.1203 C176.0692 275.3294 174.2783 277.1203 172.0692 277.1203 C169.86 277.1203 168.0692 275.3294 168.0692 273.1203 C168.0692 270.9112 169.86 269.1203 172.0692 269.1203 Z" clip-path="url(#clipPath2)"/>
      <path fill="white" d="M172.0692 339.1098 L178.0692 323.1098 L166.0692 323.1098 Z" clip-path="url(#clipPath2)" stroke="none"/>
      <path fill="none" d="M172.0692 339.1098 L178.0692 323.1098 L166.0692 323.1098 Z" clip-path="url(#clipPath2)"/>
      <rect x="126.9481" y="294.3086" clip-path="url(#clipPath2)" fill="white" width="90.2422" height="23.6016" stroke="none"/>
      <text x="128.9481" font-size="16px" y="312.3945" clip-path="url(#clipPath2)" font-family="sans-serif" stroke="none" xml:space="preserve">dcterms:title</text>
      <path fill="none" d="M202.7247 -87.9245 L172.0692 -87.9245 L172.0692 81.0313" clip-path="url(#clipPath2)" stroke="navy"/>
      <path fill="navy" d="M210.7247 -87.9245 C210.7247 -85.7154 208.9338 -83.9245 206.7247 -83.9245 C204.5155 -83.9245 202.7247 -85.7154 202.7247 -87.9245 C202.7247 -90.1337 204.5155 -91.9245 206.7247 -91.9245 C208.9338 -91.9245 210.7247 -90.1337 210.7247 -87.9245 Z" clip-path="url(#clipPath2)" stroke="none"/>
      <path fill="navy" d="M172.0692 92.0313 L178.0692 80.0313 L166.0692 80.0313 Z" clip-path="url(#clipPath2)" stroke="none"/>
      <rect x="77.577" y="-14.2877" clip-path="url(#clipPath2)" fill="white" width="188.9844" height="23.6016" stroke="none"/>
    </g>
    <g stroke-linecap="butt" font-size="16px" transform="matrix(1,0,0,1,67,266)" fill="navy" text-rendering="geometricPrecision" font-family="sans-serif" shape-rendering="geometricPrecision" stroke="navy" stroke-miterlimit="1.45">
      <text x="79.577" xml:space="preserve" y="3.7983" clip-path="url(#clipPath2)" stroke="none">crm:P46_is_composed_of</text>
      <path fill="none" d="M438.0595 -87.9245 L469.4724 -87.9245 L469.4724 81.0313" clip-path="url(#clipPath2)"/>
      <path d="M430.0595 -87.9245 C430.0595 -90.1337 431.8504 -91.9245 434.0595 -91.9245 C436.2686 -91.9245 438.0595 -90.1337 438.0595 -87.9245 C438.0595 -85.7154 436.2686 -83.9245 434.0595 -83.9245 C431.8504 -83.9245 430.0595 -85.7154 430.0595 -87.9245 Z" stroke="none" clip-path="url(#clipPath2)"/>
      <path d="M469.4724 92.0313 L475.4724 80.0313 L463.4724 80.0313 Z" stroke="none" clip-path="url(#clipPath2)"/>
    </g>
    <g stroke-linecap="butt" transform="matrix(1,0,0,1,67,266)" fill="white" text-rendering="geometricPrecision" shape-rendering="geometricPrecision" stroke="white" stroke-miterlimit="1.45">
      <rect x="374.9802" width="188.9844" height="23.6016" y="-14.2877" clip-path="url(#clipPath2)" stroke="none"/>
    </g>
    <g stroke-linecap="butt" font-size="16px" transform="matrix(1,0,0,1,67,266)" fill="navy" text-rendering="geometricPrecision" font-family="sans-serif" shape-rendering="geometricPrecision" stroke="navy" stroke-miterlimit="1.45">
      <text x="376.9802" xml:space="preserve" y="3.7983" clip-path="url(#clipPath2)" stroke="none">crm:P46_is_composed_of</text>
      <path fill="none" d="M320.3962 -113.9305 L320.3962 -195.564" clip-path="url(#clipPath2)"/>
      <path d="M320.3962 -105.9305 C318.1871 -105.9305 316.3962 -107.7214 316.3962 -109.9305 C316.3962 -112.1397 318.1871 -113.9305 320.3962 -113.9305 C322.6053 -113.9305 324.3962 -112.1397 324.3962 -109.9305 C324.3962 -107.7214 322.6053 -105.9305 320.3962 -105.9305 Z" stroke="none" clip-path="url(#clipPath2)"/>
      <path d="M320.3962 -206.564 L314.3962 -194.564 L326.3962 -194.564 Z" stroke="none" clip-path="url(#clipPath2)"/>
    </g>
    <g stroke-linecap="butt" transform="matrix(1,0,0,1,67,266)" fill="white" text-rendering="geometricPrecision" shape-rendering="geometricPrecision" stroke="white" stroke-miterlimit="1.45">
      <rect x="255.7087" width="129.375" height="23.6016" y="-170.0347" clip-path="url(#clipPath2)" stroke="none"/>
    </g>
    <g stroke-linecap="butt" font-size="16px" transform="matrix(1,0,0,1,67,266)" fill="navy" text-rendering="geometricPrecision" font-family="sans-serif" shape-rendering="geometricPrecision" stroke="navy" stroke-miterlimit="1.45">
      <text x="257.7087" xml:space="preserve" y="-151.9487" clip-path="url(#clipPath2)" stroke="none">crm:P128_carries</text>
    </g>
    <g stroke-linecap="butt" transform="matrix(1,0,0,1,67,266)" fill="green" text-rendering="geometricPrecision" shape-rendering="geometricPrecision" stroke="green" stroke-miterlimit="1.45">
      <path fill="none" d="M208.7164 -228.5432 L83.3408 -228.5432" clip-path="url(#clipPath2)"/>
    </g>
    <g stroke-linecap="butt" transform="matrix(1,0,0,1,67,266)" fill-opacity="0" fill="rgb(0,0,0)" text-rendering="geometricPrecision" shape-rendering="geometricPrecision" stroke="rgb(0,0,0)" stroke-opacity="0" stroke-miterlimit="1.45">
      <path d="M216.7164 -228.5432 C216.7164 -226.3341 214.9255 -224.5432 212.7164 -224.5432 C210.5072 -224.5432 208.7164 -226.3341 208.7164 -228.5432 C208.7164 -230.7524 210.5072 -232.5432 212.7164 -232.5432 C214.9255 -232.5432 216.7164 -230.7524 216.7164 -228.5432 Z" stroke="none" clip-path="url(#clipPath2)"/>
    </g>
    <g stroke-linecap="butt" transform="matrix(1,0,0,1,67,266)" fill="green" text-rendering="geometricPrecision" shape-rendering="geometricPrecision" stroke="green" stroke-miterlimit="1.45">
      <path fill="none" d="M216.7164 -228.5432 C216.7164 -226.3341 214.9255 -224.5432 212.7164 -224.5432 C210.5072 -224.5432 208.7164 -226.3341 208.7164 -228.5432 C208.7164 -230.7524 210.5072 -232.5432 212.7164 -232.5432 C214.9255 -232.5432 216.7164 -230.7524 216.7164 -228.5432 Z" clip-path="url(#clipPath2)"/>
      <path fill="white" d="M68.3408 -228.5432 L84.3408 -222.5432 L84.3408 -234.5432 Z" clip-path="url(#clipPath2)" stroke="none"/>
      <path fill="none" d="M68.3408 -228.5432 L84.3408 -222.5432 L84.3408 -234.5432 Z" clip-path="url(#clipPath2)"/>
      <rect x="98.5808" y="-240.344" clip-path="url(#clipPath2)" fill="white" width="90.2422" height="23.6016" stroke="none"/>
      <text x="100.5808" font-size="16px" y="-222.2581" clip-path="url(#clipPath2)" font-family="sans-serif" stroke="none" xml:space="preserve">dcterms:title</text>
      <path fill="none" d="M576.2133 251.125 L655.1039 251.125 L655.1039 324.0795" clip-path="url(#clipPath2)"/>
    </g>
    <g stroke-linecap="butt" transform="matrix(1,0,0,1,67,266)" fill-opacity="0" fill="rgb(0,0,0)" text-rendering="geometricPrecision" shape-rendering="geometricPrecision" stroke="rgb(0,0,0)" stroke-opacity="0" stroke-miterlimit="1.45">
      <path d="M568.2133 251.125 C568.2133 248.9159 570.0042 247.125 572.2133 247.125 C574.4225 247.125 576.2133 248.9159 576.2133 251.125 C576.2133 253.3341 574.4225 255.125 572.2133 255.125 C570.0042 255.125 568.2133 253.3341 568.2133 251.125 Z" stroke="none" clip-path="url(#clipPath2)"/>
    </g>
    <g stroke-linecap="butt" transform="matrix(1,0,0,1,67,266)" fill="green" text-rendering="geometricPrecision" shape-rendering="geometricPrecision" stroke="green" stroke-miterlimit="1.45">
      <path fill="none" d="M568.2133 251.125 C568.2133 248.9159 570.0042 247.125 572.2133 247.125 C574.4225 247.125 576.2133 248.9159 576.2133 251.125 C576.2133 253.3341 574.4225 255.125 572.2133 255.125 C570.0042 255.125 568.2133 253.3341 568.2133 251.125 Z" clip-path="url(#clipPath2)"/>
      <path fill="white" d="M655.1039 339.0795 L661.1039 323.0795 L649.1039 323.0795 Z" clip-path="url(#clipPath2)" stroke="none"/>
      <path fill="none" d="M655.1039 339.0795 L661.1039 323.0795 L649.1039 323.0795 Z" clip-path="url(#clipPath2)"/>
      <rect x="618.4204" y="278.7461" clip-path="url(#clipPath2)" fill="white" width="73.3672" height="23.6016" stroke="none"/>
      <text x="620.4203" font-size="16px" y="296.832" clip-path="url(#clipPath2)" font-family="sans-serif" stroke="none" xml:space="preserve">rdfs:value</text>
    </g>
  </g>
</svg>
