<?xml version="1.0" encoding="UTF-8"?><svg xmlns="http://www.w3.org/2000/svg" xmlns:xlink="http://www.w3.org/1999/xlink" fill-opacity="1" color-rendering="auto" color-interpolation="auto" text-rendering="auto" stroke="black" stroke-linecap="square" width="990" stroke-miterlimit="10" shape-rendering="auto" stroke-opacity="1" fill="black" stroke-dasharray="none" font-weight="normal" stroke-width="1" height="675" font-family="'Dialog'" font-style="normal" stroke-linejoin="miter" font-size="12px" stroke-dashoffset="0" image-rendering="auto">
  <!--Generated by ySVG 2.5-->
  <defs id="genericDefs"/>
  <g>
    <defs id="defs1">
      <clipPath clipPathUnits="userSpaceOnUse" id="clipPath1">
        <path d="M0 0 L990 0 L990 675 L0 675 L0 0 Z"/>
      </clipPath>
      <clipPath clipPathUnits="userSpaceOnUse" id="clipPath2">
        <path d="M-99 -120 L891 -120 L891 555 L-99 555 L-99 -120 Z"/>
      </clipPath>
    </defs>
    <g fill="white" text-rendering="geometricPrecision" shape-rendering="geometricPrecision" transform="translate(99,120)" stroke="white">
      <rect x="-99" width="990" height="675" y="-120" clip-path="url(#clipPath2)" stroke="none"/>
    </g>
    <g fill="yellow" text-rendering="geometricPrecision" shape-rendering="geometricPrecision" transform="matrix(1,0,0,1,99,120)" stroke="yellow">
      <rect x="170.5159" y="54" clip-path="url(#clipPath2)" width="168.9682" rx="4" ry="4" height="44" stroke="none"/>
    </g>
    <g font-size="16px" stroke-linecap="butt" transform="matrix(1,0,0,1,99,120)" text-rendering="geometricPrecision" font-family="sans-serif" shape-rendering="geometricPrecision" stroke-miterlimit="1.45">
      <text x="179.4023" xml:space="preserve" y="82.2852" clip-path="url(#clipPath2)" stroke="none">hico:InterpretationAct</text>
      <rect x="170.5159" y="54" clip-path="url(#clipPath2)" fill="none" width="168.9682" rx="4" ry="4" height="44"/>
    </g>
    <g fill="yellow" text-rendering="geometricPrecision" shape-rendering="geometricPrecision" transform="matrix(1,0,0,1,99,120)" stroke="yellow">
      <rect x="439.8459" y="182" clip-path="url(#clipPath2)" width="183.828" rx="4" ry="4" height="44" stroke="none"/>
    </g>
    <g font-size="16px" stroke-linecap="butt" transform="matrix(1,0,0,1,99,120)" text-rendering="geometricPrecision" font-family="sans-serif" shape-rendering="geometricPrecision" stroke-miterlimit="1.45">
      <text x="449.9357" xml:space="preserve" y="210.2852" clip-path="url(#clipPath2)" stroke="none">hico:InterpretationType</text>
      <rect x="439.8459" y="182" clip-path="url(#clipPath2)" fill="none" width="183.828" rx="4" ry="4" height="44"/>
    </g>
    <g fill="yellow" text-rendering="geometricPrecision" shape-rendering="geometricPrecision" transform="matrix(1,0,0,1,99,120)" stroke="yellow">
      <rect x="-83.6924" y="196.625" clip-path="url(#clipPath2)" width="125.3016" rx="4" ry="4" height="44" stroke="none"/>
    </g>
    <g font-size="16px" stroke-linecap="butt" transform="matrix(1,0,0,1,99,120)" text-rendering="geometricPrecision" font-family="sans-serif" shape-rendering="geometricPrecision" stroke-miterlimit="1.45">
      <text x="-80.1862" xml:space="preserve" y="224.9102" clip-path="url(#clipPath2)" stroke="none">fabio:Expression</text>
      <rect x="-83.6924" y="196.625" clip-path="url(#clipPath2)" fill="none" width="125.3016" rx="4" ry="4" height="44"/>
    </g>
    <g fill="yellow" text-rendering="geometricPrecision" shape-rendering="geometricPrecision" transform="matrix(1,0,0,1,99,120)" stroke="yellow">
      <rect x="153.2379" y="284" clip-path="url(#clipPath2)" width="203.5243" rx="4" ry="4" height="44" stroke="none"/>
    </g>
    <g font-size="16px" stroke-linecap="butt" transform="matrix(1,0,0,1,99,120)" text-rendering="geometricPrecision" font-family="sans-serif" shape-rendering="geometricPrecision" stroke-miterlimit="1.45">
      <text x="160.7305" xml:space="preserve" y="312.2852" clip-path="url(#clipPath2)" stroke="none">hico:InterpretationCriterion</text>
      <rect x="153.2379" y="284" clip-path="url(#clipPath2)" fill="none" width="203.5243" rx="4" ry="4" height="44"/>
    </g>
    <g fill="rgb(255,153,204)" text-rendering="geometricPrecision" shape-rendering="geometricPrecision" transform="matrix(1,0,0,1,99,120)" stroke="rgb(255,153,204)">
      <circle r="10" clip-path="url(#clipPath2)" cx="474.0925" cy="279" stroke="none"/>
    </g>
    <g font-size="16px" stroke-linecap="butt" transform="matrix(1,0,0,1,99,120)" text-rendering="geometricPrecision" font-family="sans-serif" shape-rendering="geometricPrecision" stroke-miterlimit="1.45">
      <text x="490.0925" xml:space="preserve" y="285.2852" clip-path="url(#clipPath2)" stroke="none">iconographical</text>
      <circle fill="none" stroke-width="3" r="10" clip-path="url(#clipPath2)" cx="474.0925" cy="279"/>
    </g>
    <g fill="rgb(255,153,204)" text-rendering="geometricPrecision" shape-rendering="geometricPrecision" transform="matrix(1,0,0,1,99,120)" stroke="rgb(255,153,204)">
      <circle r="10" clip-path="url(#clipPath2)" cx="126.6587" cy="400.1542" stroke="none"/>
    </g>
    <g font-size="16px" stroke-linecap="butt" transform="matrix(1,0,0,1,99,120)" text-rendering="geometricPrecision" font-family="sans-serif" shape-rendering="geometricPrecision" stroke-miterlimit="1.45">
      <text x="142.6587" xml:space="preserve" y="406.4393" clip-path="url(#clipPath2)" stroke="none">SimilarityDetectionBetweenArtworks</text>
      <circle fill="none" stroke-width="3" r="10" clip-path="url(#clipPath2)" cx="126.6587" cy="400.1542"/>
    </g>
    <g fill="rgb(255,153,204)" text-rendering="geometricPrecision" shape-rendering="geometricPrecision" transform="matrix(1,0,0,1,99,120)" stroke="rgb(255,153,204)">
      <circle r="10" clip-path="url(#clipPath2)" cx="474.0925" cy="306" stroke="none"/>
    </g>
    <g font-size="16px" stroke-linecap="butt" transform="matrix(1,0,0,1,99,120)" text-rendering="geometricPrecision" font-family="sans-serif" shape-rendering="geometricPrecision" stroke-miterlimit="1.45">
      <text x="490.0925" xml:space="preserve" y="312.2852" clip-path="url(#clipPath2)" stroke="none">palaeographical</text>
      <circle fill="none" stroke-width="3" r="10" clip-path="url(#clipPath2)" cx="474.0925" cy="306"/>
    </g>
    <g fill="rgb(255,153,204)" text-rendering="geometricPrecision" shape-rendering="geometricPrecision" transform="matrix(1,0,0,1,99,120)" stroke="rgb(255,153,204)">
      <circle r="10" clip-path="url(#clipPath2)" cx="126.6587" cy="440.1542" stroke="none"/>
    </g>
    <g font-size="16px" stroke-linecap="butt" transform="matrix(1,0,0,1,99,120)" text-rendering="geometricPrecision" font-family="sans-serif" shape-rendering="geometricPrecision" stroke-miterlimit="1.45">
      <text x="142.6587" xml:space="preserve" y="446.4393" clip-path="url(#clipPath2)" stroke="none">HermeneuticAnalysis</text>
      <circle fill="none" stroke-width="3" r="10" clip-path="url(#clipPath2)" cx="126.6587" cy="440.1542"/>
    </g>
    <g fill="rgb(255,153,204)" text-rendering="geometricPrecision" shape-rendering="geometricPrecision" transform="matrix(1,0,0,1,99,120)" stroke="rgb(255,153,204)">
      <circle r="10" clip-path="url(#clipPath2)" cx="126.6587" cy="480.1542" stroke="none"/>
    </g>
    <g font-size="16px" stroke-linecap="butt" transform="matrix(1,0,0,1,99,120)" text-rendering="geometricPrecision" font-family="sans-serif" shape-rendering="geometricPrecision" stroke-miterlimit="1.45">
      <text x="142.6587" xml:space="preserve" y="486.4393" clip-path="url(#clipPath2)" stroke="none">SourcesOrInfluencesDetection</text>
      <circle fill="none" stroke-width="3" r="10" clip-path="url(#clipPath2)" cx="126.6587" cy="480.1542"/>
    </g>
    <g fill="rgb(255,153,204)" text-rendering="geometricPrecision" shape-rendering="geometricPrecision" transform="matrix(1,0,0,1,99,120)" stroke="rgb(255,153,204)">
      <circle r="10" clip-path="url(#clipPath2)" cx="126.6587" cy="520.1542" stroke="none"/>
    </g>
    <g font-size="16px" stroke-linecap="butt" transform="matrix(1,0,0,1,99,120)" text-rendering="geometricPrecision" font-family="sans-serif" shape-rendering="geometricPrecision" stroke-miterlimit="1.45">
      <text x="142.6587" xml:space="preserve" y="526.4393" clip-path="url(#clipPath2)" stroke="none">HandwritingAnalysis</text>
      <circle fill="none" stroke-width="3" r="10" clip-path="url(#clipPath2)" cx="126.6587" cy="520.1542"/>
    </g>
    <g stroke-linecap="round" transform="matrix(1,0,0,1,99,120)" stroke-dashoffset="2" text-rendering="geometricPrecision" shape-rendering="geometricPrecision" stroke-dasharray="0,4" stroke-miterlimit="1.45">
      <rect x="99.625" y="380.6542" clip-path="url(#clipPath2)" fill="none" width="317.6508" rx="4" ry="4" height="159"/>
      <rect x="447.2758" y="256" clip-path="url(#clipPath2)" fill="none" width="168.9682" rx="4" ry="4" height="103"/>
    </g>
    <g fill="rgb(255,153,204)" text-rendering="geometricPrecision" shape-rendering="geometricPrecision" transform="matrix(1,0,0,1,99,120)" stroke="rgb(255,153,204)">
      <circle r="10" clip-path="url(#clipPath2)" cx="474.0925" cy="333" stroke="none"/>
    </g>
    <g font-size="16px" stroke-linecap="butt" transform="matrix(1,0,0,1,99,120)" text-rendering="geometricPrecision" font-family="sans-serif" shape-rendering="geometricPrecision" stroke-miterlimit="1.45">
      <text x="490.0925" xml:space="preserve" y="339.2852" clip-path="url(#clipPath2)" stroke="none">philological</text>
      <circle fill="none" stroke-width="3" r="10" clip-path="url(#clipPath2)" cx="474.0925" cy="333"/>
    </g>
    <g fill="yellow" text-rendering="geometricPrecision" shape-rendering="geometricPrecision" transform="matrix(1,0,0,1,99,120)" stroke="yellow">
      <rect x="516.7758" y="54" clip-path="url(#clipPath2)" width="125.3016" rx="4" ry="4" height="44" stroke="none"/>
    </g>
    <g font-size="16px" stroke-linecap="butt" transform="matrix(1,0,0,1,99,120)" text-rendering="geometricPrecision" font-family="sans-serif" shape-rendering="geometricPrecision" stroke-miterlimit="1.45">
      <text x="528.7508" xml:space="preserve" y="82.2852" clip-path="url(#clipPath2)" stroke="none">cwrc:Certainty</text>
      <rect x="516.7758" y="54" clip-path="url(#clipPath2)" fill="none" width="125.3016" rx="4" ry="4" height="44"/>
    </g>
    <g fill="rgb(255,153,204)" text-rendering="geometricPrecision" shape-rendering="geometricPrecision" transform="matrix(1,0,0,1,99,120)" stroke="rgb(255,153,204)">
      <circle r="10" clip-path="url(#clipPath2)" cx="722.5748" cy="26" stroke="none"/>
    </g>
    <g font-size="16px" stroke-linecap="butt" transform="matrix(1,0,0,1,99,120)" text-rendering="geometricPrecision" font-family="sans-serif" shape-rendering="geometricPrecision" stroke-miterlimit="1.45">
      <text x="738.5748" xml:space="preserve" y="32.2852" clip-path="url(#clipPath2)" stroke="none">lowCertainty</text>
      <circle fill="none" stroke-width="3" r="10" clip-path="url(#clipPath2)" cx="722.5748" cy="26"/>
    </g>
    <g fill="rgb(255,153,204)" text-rendering="geometricPrecision" shape-rendering="geometricPrecision" transform="matrix(1,0,0,1,99,120)" stroke="rgb(255,153,204)">
      <circle r="10" clip-path="url(#clipPath2)" cx="722.5748" cy="64" stroke="none"/>
    </g>
    <g font-size="16px" stroke-linecap="butt" transform="matrix(1,0,0,1,99,120)" text-rendering="geometricPrecision" font-family="sans-serif" shape-rendering="geometricPrecision" stroke-miterlimit="1.45">
      <text x="738.5748" xml:space="preserve" y="70.2852" clip-path="url(#clipPath2)" stroke="none">mediumCertainty</text>
      <circle fill="none" stroke-width="3" r="10" clip-path="url(#clipPath2)" cx="722.5748" cy="64"/>
    </g>
    <g fill="rgb(255,153,204)" text-rendering="geometricPrecision" shape-rendering="geometricPrecision" transform="matrix(1,0,0,1,99,120)" stroke="rgb(255,153,204)">
      <circle r="10" clip-path="url(#clipPath2)" cx="722.5748" cy="96" stroke="none"/>
    </g>
    <g font-size="16px" stroke-linecap="butt" transform="matrix(1,0,0,1,99,120)" text-rendering="geometricPrecision" font-family="sans-serif" shape-rendering="geometricPrecision" stroke-miterlimit="1.45">
      <text x="738.5748" xml:space="preserve" y="102.2852" clip-path="url(#clipPath2)" stroke="none">highCertainty</text>
      <circle fill="none" stroke-width="3" r="10" clip-path="url(#clipPath2)" cx="722.5748" cy="96"/>
    </g>
    <g fill="rgb(255,153,204)" text-rendering="geometricPrecision" shape-rendering="geometricPrecision" transform="matrix(1,0,0,1,99,120)" stroke="rgb(255,153,204)">
      <circle r="10" clip-path="url(#clipPath2)" cx="722.5748" cy="129" stroke="none"/>
    </g>
    <g font-size="16px" stroke-linecap="butt" transform="matrix(1,0,0,1,99,120)" text-rendering="geometricPrecision" font-family="sans-serif" shape-rendering="geometricPrecision" stroke-miterlimit="1.45">
      <text x="738.5748" xml:space="preserve" y="135.2852" clip-path="url(#clipPath2)" stroke="none">unkownCertainty</text>
      <circle fill="none" stroke-width="3" r="10" clip-path="url(#clipPath2)" cx="722.5748" cy="129"/>
    </g>
    <g stroke-linecap="round" transform="matrix(1,0,0,1,99,120)" stroke-dashoffset="2" text-rendering="geometricPrecision" shape-rendering="geometricPrecision" stroke-dasharray="0,4" stroke-miterlimit="1.45">
      <rect x="698.3188" y="4" clip-path="url(#clipPath2)" fill="none" width="176.9682" rx="4" ry="4" height="144"/>
    </g>
    <g font-size="16px" stroke-linecap="butt" transform="matrix(1,0,0,1,99,120)" text-rendering="geometricPrecision" font-family="sans-serif" shape-rendering="geometricPrecision" stroke-miterlimit="1.45">
      <text x="191.668" xml:space="preserve" y="-76.2357" clip-path="url(#clipPath2)" stroke="none">Assertion's Graph</text>
    </g>
    <g stroke-linecap="round" transform="matrix(1,0,0,1,99,120)" stroke-dashoffset="2" text-rendering="geometricPrecision" shape-rendering="geometricPrecision" stroke-dasharray="0,4" stroke-miterlimit="1.45">
      <rect x="187.9537" y="-104.5208" clip-path="url(#clipPath2)" fill="none" width="134.0925" rx="4" ry="4" height="44"/>
    </g>
    <g stroke-linecap="butt" transform="matrix(1,0,0,1,99,120)" fill="navy" text-rendering="geometricPrecision" shape-rendering="geometricPrecision" stroke="navy" stroke-miterlimit="1.45">
      <path fill="none" d="M306.1648 99.6635 L474.2352 177.3951" clip-path="url(#clipPath2)"/>
      <path d="M298.9038 96.3053 C299.8311 94.3002 302.2083 93.4265 304.2134 94.3539 C306.2185 95.2812 307.0922 97.6584 306.1648 99.6635 C305.2375 101.6685 302.8603 102.5422 300.8552 101.6149 C298.8501 100.6875 297.9764 98.3103 298.9038 96.3053 Z" clip-path="url(#clipPath2)" stroke="none"/>
      <path d="M484.2191 182.0126 L475.8462 171.5296 L470.8089 182.4211 Z" clip-path="url(#clipPath2)" stroke="none"/>
      <rect x="296.6573" y="128.1992" clip-path="url(#clipPath2)" fill="white" width="193.4453" height="23.6016" stroke="none"/>
      <text x="298.6573" font-size="16px" y="146.2852" clip-path="url(#clipPath2)" font-family="sans-serif" stroke="none" xml:space="preserve">hico:hasInterpretationType</text>
      <path fill="none" d="M208.8876 99.8253 L31.2835 191.5897" clip-path="url(#clipPath2)"/>
      <path d="M215.995 96.1531 C217.0091 98.1157 216.2401 100.5288 214.2775 101.5429 C212.3148 102.5569 209.9017 101.7879 208.8876 99.8253 C207.8736 97.8626 208.6426 95.4496 210.6052 94.4355 C212.5679 93.4214 214.981 94.1904 215.995 96.1531 Z" clip-path="url(#clipPath2)" stroke="none"/>
      <path d="M21.5108 196.639 L34.9261 196.4612 L29.4177 185.8001 Z" clip-path="url(#clipPath2)" stroke="none"/>
      <rect x="39.8464" y="135.5117" clip-path="url(#clipPath2)" fill="white" width="154.2656" height="23.6016" stroke="none"/>
      <text x="41.8464" font-size="16px" y="153.5977" clip-path="url(#clipPath2)" font-family="sans-serif" stroke="none" xml:space="preserve">hico:isExtractedFrom</text>
      <path fill="none" d="M-61.5164 244.0783 L-61.5683 244.1637 L-62.5053 246.109 L-64.0186 250.2434 L-65.1274 254.5559 L-65.8093 259.024 L-66.0417 263.625 L-65.8093 268.226 L-65.1274 272.6941 L-64.0186 277.0066 L-62.5053 281.141 L-60.6104 285.0747 L-58.3564 288.7849 L-55.7659 292.2492 L-52.8615 295.4448 L-49.6658 298.3492 L-46.2016 300.9397 L-42.4913 303.1938 L-38.5577 305.0887 L-34.4233 306.6019 L-30.1107 307.7108 L-25.6427 308.3927 L-21.0417 308.625 L-16.4407 308.3927 L-11.9726 307.7108 L-7.66 306.6019 L-3.5256 305.0887 L0.408 303.1938 L4.1183 300.9397 L7.5825 298.3492 L10.7781 295.4448 L13.6825 292.2492 L16.273 288.7849 L18.5271 285.0747 L20.422 281.141 L21.9352 277.0066 L23.0441 272.6941 L23.726 268.226 L23.9583 263.625 L23.726 259.024 L23.0441 254.5559 L22.0514 250.6954 L22.0102 250.6042" clip-path="url(#clipPath2)"/>
      <path d="M-57.7437 237.0237 C-55.7956 238.0655 -55.0609 240.4893 -56.1027 242.4373 C-57.1445 244.3854 -59.5683 245.1201 -61.5164 244.0783 C-63.4644 243.0365 -64.1991 240.6127 -63.1573 238.6646 C-62.1155 236.7166 -59.6917 235.9819 -57.7437 237.0237 Z" clip-path="url(#clipPath2)" stroke="none"/>
      <path d="M17.5533 240.5476 L16.93 253.9496 L27.9008 249.0874 Z" clip-path="url(#clipPath2)" stroke="none"/>
      <rect x="-54.1628" y="267.3867" clip-path="url(#clipPath2)" fill="white" width="66.2422" height="23.6016" stroke="none"/>
      <text x="-52.1628" font-size="16px" y="285.4727" clip-path="url(#clipPath2)" font-family="sans-serif" stroke="none" xml:space="preserve">cito:cites</text>
      <path fill="none" d="M255 101.9836 L255 272.9846" clip-path="url(#clipPath2)"/>
      <path d="M255 93.9836 C257.2091 93.9836 259 95.7745 259 97.9836 C259 100.1928 257.2091 101.9836 255 101.9836 C252.7909 101.9836 251 100.1928 251 97.9836 C251 95.7745 252.7909 93.9836 255 93.9836 Z" clip-path="url(#clipPath2)" stroke="none"/>
      <path d="M255 283.9846 L261 271.9846 L249 271.9846 Z" clip-path="url(#clipPath2)" stroke="none"/>
      <rect x="145.832" y="179.1992" clip-path="url(#clipPath2)" fill="white" width="218.3359" height="23.6016" stroke="none"/>
      <text x="147.832" font-size="16px" y="197.2852" clip-path="url(#clipPath2)" font-family="sans-serif" stroke="none" xml:space="preserve">hico:hasInterpretationCriterion</text>
      <path fill="none" d="M256.6704 380.6308 L255.6709 335.9718" clip-path="url(#clipPath2)" stroke="black"/>
      <path fill="black" d="M255.4918 327.9738 L250.7616 340.0827 L255.6932 336.9716 L260.7591 339.8589 Z" clip-path="url(#clipPath2)" stroke="none"/>
      <path fill="none" d="M531.7599 255.9774 L531.7599 234.0041" clip-path="url(#clipPath2)" stroke="black"/>
      <path fill="black" d="M531.7599 226.0041 L526.7599 238.0041 L531.7599 235.0041 L536.7599 238.0041 Z" clip-path="url(#clipPath2)" stroke="none"/>
      <path fill="none" d="M343.4729 76 L505.7726 76" clip-path="url(#clipPath2)"/>
      <path d="M335.4729 76 C335.4729 73.7909 337.2637 72 339.4729 72 C341.682 72 343.4729 73.7909 343.4729 76 C343.4729 78.2091 341.682 80 339.4729 80 C337.2637 80 335.4729 78.2091 335.4729 76 Z" clip-path="url(#clipPath2)" stroke="none"/>
      <path d="M516.7726 76 L504.7726 70 L504.7726 82 Z" clip-path="url(#clipPath2)" stroke="none"/>
      <rect x="362.5557" y="64.1992" clip-path="url(#clipPath2)" fill="white" width="131.1484" height="23.6016" stroke="none"/>
      <text x="364.5557" font-size="16px" y="82.2852" clip-path="url(#clipPath2)" font-family="sans-serif" stroke="none" xml:space="preserve">cwrc:hasCertainty</text>
      <path fill="none" d="M698.3287 76 L650.0999 76" clip-path="url(#clipPath2)" stroke="black"/>
      <path fill="black" d="M642.0999 76 L654.0999 81 L651.0999 76 L654.0999 71 Z" clip-path="url(#clipPath2)" stroke="none"/>
      <path fill="none" d="M255 -56.4998 L255 42.9721" clip-path="url(#clipPath2)"/>
      <path d="M255 -64.4998 C257.2091 -64.4998 259 -62.7089 259 -60.4998 C259 -58.2906 257.2091 -56.4998 255 -56.4998 C252.7909 -56.4998 251 -58.2906 251 -60.4998 C251 -62.7089 252.7909 -64.4998 255 -64.4998 Z" clip-path="url(#clipPath2)" stroke="none"/>
      <path d="M255 53.9721 L261 41.9721 L249 41.9721 Z" clip-path="url(#clipPath2)" stroke="none"/>
      <rect x="173.8477" y="-15.0612" clip-path="url(#clipPath2)" fill="white" width="162.3047" height="23.6016" stroke="none"/>
      <text x="175.8477" font-size="16px" y="3.0247" clip-path="url(#clipPath2)" font-family="sans-serif" stroke="none" xml:space="preserve">prov:wasGeneratedBy</text>
    </g>
  </g>
</svg>
