<?xml version="1.0" encoding="UTF-8"?><svg xmlns="http://www.w3.org/2000/svg" xmlns:xlink="http://www.w3.org/1999/xlink" fill-opacity="1" color-rendering="auto" color-interpolation="auto" text-rendering="auto" stroke="black" stroke-linecap="square" width="931" stroke-miterlimit="10" shape-rendering="auto" stroke-opacity="1" fill="black" stroke-dasharray="none" font-weight="normal" stroke-width="1" height="569" font-family="'Dialog'" font-style="normal" stroke-linejoin="miter" font-size="12px" stroke-dashoffset="0" image-rendering="auto">
  <!--Generated by ySVG 2.5-->
  <defs id="genericDefs"/>
  <g>
    <defs id="defs1">
      <clipPath clipPathUnits="userSpaceOnUse" id="clipPath1">
        <path d="M0 0 L931 0 L931 569 L0 569 L0 0 Z"/>
      </clipPath>
      <clipPath clipPathUnits="userSpaceOnUse" id="clipPath2">
        <path d="M-36 57 L895 57 L895 626 L-36 626 L-36 57 Z"/>
      </clipPath>
    </defs>
    <g fill="white" text-rendering="geometricPrecision" shape-rendering="geometricPrecision" transform="translate(36,-57)" stroke="white">
      <rect x="-36" width="931" height="569" y="57" clip-path="url(#clipPath2)" stroke="none"/>
    </g>
    <g fill="yellow" text-rendering="geometricPrecision" shape-rendering="geometricPrecision" transform="matrix(1,0,0,1,36,-57)" stroke="yellow">
      <rect x="-15.6924" y="440" clip-path="url(#clipPath2)" width="120.7182" rx="4" ry="4" height="44" stroke="none"/>
    </g>
    <g font-size="16px" stroke-linecap="butt" transform="matrix(1,0,0,1,36,-57)" text-rendering="geometricPrecision" font-family="sans-serif" shape-rendering="geometricPrecision" stroke-miterlimit="1.45">
      <text x="-8.2396" xml:space="preserve" y="468.2852" clip-path="url(#clipPath2)" stroke="none">crm:E39_Actor</text>
      <rect x="-15.6924" y="440" clip-path="url(#clipPath2)" fill="none" width="120.7182" rx="4" ry="4" height="44"/>
    </g>
    <g fill="yellow" text-rendering="geometricPrecision" shape-rendering="geometricPrecision" transform="matrix(1,0,0,1,36,-57)" stroke="yellow">
      <rect x="369.0451" y="440" clip-path="url(#clipPath2)" width="144.1714" rx="4" ry="4" height="44" stroke="none"/>
    </g>
    <g font-size="16px" stroke-linecap="butt" transform="matrix(1,0,0,1,36,-57)" text-rendering="geometricPrecision" font-family="sans-serif" shape-rendering="geometricPrecision" stroke-miterlimit="1.45">
      <text x="383.7871" xml:space="preserve" y="468.2852" clip-path="url(#clipPath2)" stroke="none">crm:E7_Actitvity</text>
      <rect x="369.0451" y="440" clip-path="url(#clipPath2)" fill="none" width="144.1714" rx="4" ry="4" height="44"/>
    </g>
    <g fill="yellow" text-rendering="geometricPrecision" shape-rendering="geometricPrecision" transform="matrix(1,0,0,1,36,-57)" stroke="yellow">
      <rect x="380.7717" y="238.5" clip-path="url(#clipPath2)" width="120.7182" rx="4" ry="4" height="44" stroke="none"/>
    </g>
    <g font-size="16px" stroke-linecap="butt" transform="matrix(1,0,0,1,36,-57)" text-rendering="geometricPrecision" font-family="sans-serif" shape-rendering="geometricPrecision" stroke-miterlimit="1.45">
      <text x="390.8886" xml:space="preserve" y="266.7852" clip-path="url(#clipPath2)" stroke="none">crm:E5_Event</text>
      <rect x="380.7717" y="238.5" clip-path="url(#clipPath2)" fill="none" width="120.7182" rx="4" ry="4" height="44"/>
    </g>
    <g fill="yellow" text-rendering="geometricPrecision" shape-rendering="geometricPrecision" transform="matrix(1,0,0,1,36,-57)" stroke="yellow">
      <rect x="44.9326" y="120.5" clip-path="url(#clipPath2)" width="120.7182" rx="4" ry="4" height="44" stroke="none"/>
    </g>
    <g font-size="16px" stroke-linecap="butt" transform="matrix(1,0,0,1,36,-57)" text-rendering="geometricPrecision" font-family="sans-serif" shape-rendering="geometricPrecision" stroke-miterlimit="1.45">
      <text x="51.0456" xml:space="preserve" y="148.7852" clip-path="url(#clipPath2)" stroke="none">crm:E53_Place</text>
      <rect x="44.9326" y="120.5" clip-path="url(#clipPath2)" fill="none" width="120.7182" rx="4" ry="4" height="44"/>
    </g>
    <g fill="yellow" text-rendering="geometricPrecision" shape-rendering="geometricPrecision" transform="matrix(1,0,0,1,36,-57)" stroke="yellow">
      <rect x="711.8326" y="238.5" clip-path="url(#clipPath2)" width="156.2041" rx="4" ry="4" height="44" stroke="none"/>
    </g>
    <g font-size="16px" stroke-linecap="butt" transform="matrix(1,0,0,1,36,-57)" text-rendering="geometricPrecision" font-family="sans-serif" shape-rendering="geometricPrecision" stroke-miterlimit="1.45">
      <text x="716.5753" xml:space="preserve" y="266.7852" clip-path="url(#clipPath2)" stroke="none">crm:E52_Time-Span</text>
      <rect x="711.8326" y="238.5" clip-path="url(#clipPath2)" fill="none" width="156.2041" rx="4" ry="4" height="44"/>
    </g>
    <g fill="yellow" text-rendering="geometricPrecision" shape-rendering="geometricPrecision" transform="matrix(1,0,0,1,36,-57)" stroke="yellow">
      <rect x="44.9326" y="238.5" clip-path="url(#clipPath2)" width="120.7182" rx="4" ry="4" height="44" stroke="none"/>
    </g>
    <g font-size="16px" stroke-linecap="butt" transform="matrix(1,0,0,1,36,-57)" text-rendering="geometricPrecision" font-family="sans-serif" shape-rendering="geometricPrecision" stroke-miterlimit="1.45">
      <text x="52.3815" xml:space="preserve" y="266.7852" clip-path="url(#clipPath2)" stroke="none">crm:E4_Period</text>
      <rect x="44.9326" y="238.5" clip-path="url(#clipPath2)" fill="none" width="120.7182" rx="4" ry="4" height="44"/>
    </g>
    <g fill="yellow" text-rendering="geometricPrecision" shape-rendering="geometricPrecision" transform="matrix(1,0,0,1,36,-57)" stroke="yellow">
      <rect x="-20.9604" y="560.0224" clip-path="url(#clipPath2)" width="131.2542" rx="4" ry="4" height="44" stroke="none"/>
    </g>
    <g font-size="16px" stroke-linecap="butt" transform="matrix(1,0,0,1,36,-57)" text-rendering="geometricPrecision" font-family="sans-serif" shape-rendering="geometricPrecision" stroke-miterlimit="1.45">
      <text x="-11.8021" xml:space="preserve" y="588.3076" clip-path="url(#clipPath2)" stroke="none">crm:E74_Group</text>
      <rect x="-20.9604" y="560.0224" clip-path="url(#clipPath2)" fill="none" width="131.2542" rx="4" ry="4" height="44"/>
    </g>
    <g fill="yellow" text-rendering="geometricPrecision" shape-rendering="geometricPrecision" transform="matrix(1,0,0,1,36,-57)" stroke="yellow">
      <rect x="185.4553" y="566.7716" clip-path="url(#clipPath2)" width="131.2542" rx="4" ry="4" height="44" stroke="none"/>
    </g>
    <g font-size="16px" stroke-linecap="butt" transform="matrix(1,0,0,1,36,-57)" text-rendering="geometricPrecision" font-family="sans-serif" shape-rendering="geometricPrecision" stroke-miterlimit="1.45">
      <text x="191.5004" xml:space="preserve" y="595.0568" clip-path="url(#clipPath2)" stroke="none">crm:E21_Person</text>
      <rect x="185.4553" y="566.7716" clip-path="url(#clipPath2)" fill="none" width="131.2542" rx="4" ry="4" height="44"/>
    </g>
    <g fill="yellow" text-rendering="geometricPrecision" shape-rendering="geometricPrecision" transform="matrix(1,0,0,1,36,-57)" stroke="yellow">
      <rect x="509.1308" y="120.5" clip-path="url(#clipPath2)" width="207.9682" rx="4" ry="4" height="44" stroke="none"/>
    </g>
    <g font-size="16px" stroke-linecap="butt" transform="matrix(1,0,0,1,36,-57)" text-rendering="geometricPrecision" font-family="sans-serif" shape-rendering="geometricPrecision" stroke-miterlimit="1.45">
      <text x="516.1813" xml:space="preserve" y="148.7852" clip-path="url(#clipPath2)" stroke="none">crm:E22_Man-Made_Thing</text>
      <rect x="509.1308" y="120.5" clip-path="url(#clipPath2)" fill="none" width="207.9682" rx="4" ry="4" height="44"/>
    </g>
    <g stroke-linecap="butt" transform="matrix(1,0,0,1,36,-57)" fill="navy" text-rendering="geometricPrecision" shape-rendering="geometricPrecision" stroke="navy" stroke-miterlimit="1.45">
      <path fill="none" d="M116.0171 462 L365.042 462" clip-path="url(#clipPath2)"/>
      <path d="M105.0171 462 L117.0171 468 L117.0171 456 Z" clip-path="url(#clipPath2)" stroke="none"/>
      <path d="M373.042 462 C373.042 464.2091 371.2511 466 369.042 466 C366.8329 466 365.042 464.2091 365.042 462 C365.042 459.7909 366.8329 458 369.042 458 C371.2511 458 373.042 459.7909 373.042 462 Z" clip-path="url(#clipPath2)" stroke="none"/>
      <rect x="147.8792" y="450.1992" clip-path="url(#clipPath2)" fill="white" width="178.3125" height="23.6016" stroke="none"/>
      <text x="149.8792" font-size="16px" y="468.2852" clip-path="url(#clipPath2)" font-family="sans-serif" stroke="none" xml:space="preserve">crm:P14_carried_out_by</text>
      <path fill="none" d="M473.2012 234.7574 L473.2356 234.6635 L473.3428 234.2465 L473.8411 230.9818 L474.0109 227.62 L473.8411 224.2582 L473.3429 220.9935 L472.5327 217.8425 L471.427 214.8216 L470.0424 211.9475 L468.3955 209.2365 L466.5027 206.7053 L464.3805 204.3703 L462.0456 202.2482 L459.5144 200.3554 L456.8034 198.7085 L453.9293 197.3239 L450.9084 196.2182 L447.7573 195.408 L444.4926 194.9098 L441.1309 194.74 L437.7691 194.9098 L434.5044 195.408 L431.3534 196.2182 L428.3325 197.3239 L425.4583 198.7084 L422.7473 200.3554 L420.2161 202.2482 L417.8812 204.3703 L415.7591 206.7053 L413.8662 209.2365 L412.2193 211.9474 L410.8347 214.8216 L409.7291 217.8425 L408.9189 220.9935 L408.4206 224.2582 L408.2509 227.62 L408.2533 227.6689 L408.2755 227.7664" clip-path="url(#clipPath2)"/>
      <path d="M470.9971 242.4478 C468.8734 241.8392 467.6453 239.6242 468.254 237.5006 C468.8626 235.3769 471.0776 234.1488 473.2012 234.7574 C475.3249 235.3661 476.553 237.5811 475.9443 239.7047 C475.3357 241.8283 473.1207 243.0565 470.9971 242.4478 Z" clip-path="url(#clipPath2)" stroke="none"/>
      <path d="M410.1521 238.6051 L414.017 225.7575 L402.1929 227.8046 Z" clip-path="url(#clipPath2)" stroke="none"/>
      <rect x="349.7519" y="200.2567" clip-path="url(#clipPath2)" fill="white" width="182.7578" height="23.6016" stroke="none"/>
      <text x="351.7519" font-size="16px" y="218.3427" clip-path="url(#clipPath2)" font-family="sans-serif" stroke="none" xml:space="preserve">crm:P120_occurs_before</text>
      <path fill="none" d="M441.1308 440.0101 L441.1308 290.4567" clip-path="url(#clipPath2)" stroke="black"/>
      <path fill="black" d="M441.1308 282.4567 L436.1308 294.4567 L441.1308 291.4567 L446.1308 294.4567 Z" clip-path="url(#clipPath2)" stroke="none"/>
      <rect x="382.2246" y="349.4492" clip-path="url(#clipPath2)" fill="white" width="117.8125" height="23.6016" stroke="none"/>
    </g>
    <g font-size="16px" stroke-linecap="butt" transform="matrix(1,0,0,1,36,-57)" text-rendering="geometricPrecision" font-family="sans-serif" shape-rendering="geometricPrecision" stroke-miterlimit="1.45">
      <text x="384.2246" xml:space="preserve" y="367.5352" clip-path="url(#clipPath2)" stroke="none">rdfs:subClassOf</text>
    </g>
    <g stroke-linecap="butt" transform="matrix(1,0,0,1,36,-57)" fill="navy" text-rendering="geometricPrecision" shape-rendering="geometricPrecision" stroke="navy" stroke-miterlimit="1.45">
      <path fill="none" d="M394.2743 284.3145 L97.8004 434.9952" clip-path="url(#clipPath2)"/>
      <path d="M401.4061 280.6898 C402.407 282.6592 401.6219 285.0671 399.6525 286.0681 C397.6831 287.069 395.2752 286.2839 394.2743 284.3145 C393.2734 282.3451 394.0585 279.9372 396.0279 278.9363 C397.9973 277.9354 400.4052 278.7205 401.4061 280.6898 Z" clip-path="url(#clipPath2)" stroke="none"/>
      <path d="M87.9942 439.9791 L101.4103 439.8909 L95.9734 429.1933 Z" clip-path="url(#clipPath2)" stroke="none"/>
      <rect x="151.9573" y="349.4492" clip-path="url(#clipPath2)" fill="white" width="181.8828" height="23.6016" stroke="none"/>
      <text x="153.9574" font-size="16px" y="367.5352" clip-path="url(#clipPath2)" font-family="sans-serif" stroke="none" xml:space="preserve">crm:P11_had_participant</text>
      <path fill="none" d="M138.9947 116.7924 L139.0291 116.6985 L139.5806 114.5537 L140.111 111.0785 L140.2917 107.5 L140.111 103.9214 L139.5806 100.4463 L138.7181 97.0921 L137.5412 93.8764 L136.0674 90.8169 L134.3142 87.9312 L132.2994 85.2367 L130.0404 82.7513 L127.5549 80.4923 L124.8605 78.4774 L121.9747 76.7243 L118.9152 75.2505 L115.6996 74.0735 L112.3454 73.2111 L108.8702 72.6807 L105.2917 72.5 L101.7131 72.6807 L98.2379 73.2111 L94.8837 74.0735 L91.6681 75.2505 L88.6086 76.7243 L85.7228 78.4775 L83.0284 80.4923 L80.5429 82.7513 L78.284 85.2368 L76.2691 87.9312 L74.516 90.8169 L73.0421 93.8764 L71.8652 97.0921 L71.0027 100.4463 L70.4724 103.9215 L70.2917 107.5 L70.4059 109.762 L70.43 109.859" clip-path="url(#clipPath2)"/>
      <path d="M136.4847 124.3884 C134.3871 123.6953 133.2486 121.433 133.9417 119.3354 C134.6348 117.2378 136.8972 116.0993 138.9947 116.7924 C141.0923 117.4855 142.2309 119.7479 141.5377 121.8455 C140.8446 123.943 138.5823 125.0816 136.4847 124.3884 Z" clip-path="url(#clipPath2)" stroke="none"/>
      <path d="M72.8341 120.5931 L76.0664 107.5719 L64.3565 110.1945 Z" clip-path="url(#clipPath2)" stroke="none"/>
      <rect x="29.9284" y="80.1367" clip-path="url(#clipPath2)" fill="white" width="150.7266" height="23.6016" stroke="none"/>
      <text x="31.9284" font-size="16px" y="98.2227" clip-path="url(#clipPath2)" font-family="sans-serif" stroke="none" xml:space="preserve">crm:P89_falls_within</text>
      <path fill="none" d="M505.4647 260.5 L700.866 260.5" clip-path="url(#clipPath2)"/>
      <path d="M497.4647 260.5 C497.4647 258.2909 499.2556 256.5 501.4647 256.5 C503.6738 256.5 505.4647 258.2909 505.4647 260.5 C505.4647 262.7091 503.6738 264.5 501.4647 264.5 C499.2556 264.5 497.4647 262.7091 497.4647 260.5 Z" clip-path="url(#clipPath2)" stroke="none"/>
      <path d="M711.866 260.5 L699.866 254.5 L699.866 266.5 Z" clip-path="url(#clipPath2)" stroke="none"/>
      <rect x="522.4034" y="248.6992" clip-path="url(#clipPath2)" fill="white" width="168.5156" height="23.6016" stroke="none"/>
      <text x="524.4034" font-size="16px" y="266.7852" clip-path="url(#clipPath2)" font-family="sans-serif" stroke="none" xml:space="preserve">crm:P4_has_time-span</text>
      <path fill="none" d="M826.6874 234.9486 L826.7289 234.8577 L827.936 231.341 L828.8531 227.45 L829.3842 223.4273 L829.5093 219.2933 L829.2173 215.1678 L828.5242 211.1698 L827.4507 207.3191 L826.0176 203.6356 L824.2454 200.1392 L822.155 196.8499 L819.767 193.7875 L817.1021 190.9718 L814.1812 188.4229 L811.0248 186.1605 L807.6537 184.2047 L804.0886 182.5752 L800.3502 181.2919 L796.4594 180.3748 L792.4365 179.8438 L788.3026 179.7187 L784.1771 180.0107 L780.1791 180.7037 L776.3284 181.7772 L772.6449 183.2104 L769.1485 184.9826 L765.8592 187.073 L762.7968 189.461 L759.9811 192.1258 L757.4322 195.0468 L755.1698 198.2032 L753.2139 201.5743 L751.5844 205.1394 L750.3012 208.8777 L749.3841 212.7686 L748.8531 216.7914 L748.728 220.9254 L749.02 225.0508 L749.5562 228.1445 L749.5908 228.2383" clip-path="url(#clipPath2)"/>
      <path d="M823.4045 242.244 C821.39 241.3375 820.4917 238.9695 821.3983 236.9549 C822.3048 234.9403 824.6728 234.0421 826.6874 234.9486 C828.702 235.8551 829.6002 238.2232 828.6937 240.2377 C827.7871 242.2523 825.4191 243.1505 823.4045 242.244 Z" clip-path="url(#clipPath2)" stroke="none"/>
      <path d="M753.2358 238.6168 L754.9204 225.3066 L743.5984 229.283 Z" clip-path="url(#clipPath2)" stroke="none"/>
      <rect x="713.4409" y="192.7461" clip-path="url(#clipPath2)" fill="white" width="150.7266" height="23.6016" stroke="none"/>
      <text x="715.4409" font-size="16px" y="210.832" clip-path="url(#clipPath2)" font-family="sans-serif" stroke="none" xml:space="preserve">crm:P86_falls_within</text>
      <path fill="none" d="M754.9577 286.1726 L754.9143 286.2627 L754.9133 286.2654 L754.0097 289.7796 L753.454 293.4206 L753.2647 297.1699 L753.454 300.9192 L754.0097 304.5602 L754.9133 308.0744 L756.1464 311.4435 L757.6906 314.6489 L759.5273 317.6724 L761.6383 320.4953 L764.0051 323.0994 L766.6091 325.4662 L769.4321 327.5771 L772.4556 329.4139 L775.661 330.9581 L779.0301 332.1912 L782.5443 333.0948 L786.1853 333.6505 L789.9346 333.8398 L793.6839 333.6505 L797.3248 333.0948 L800.8391 332.1912 L804.2082 330.9581 L807.4136 329.4139 L810.4371 327.5772 L813.2601 325.4662 L815.8641 323.0995 L818.2309 320.4954 L820.3419 317.6724 L822.1786 314.649 L823.7228 311.4435 L824.9559 308.0744 L825.8595 304.5602 L826.4152 300.9192 L826.6045 297.1699 L826.4152 293.4206 L826.3738 293.1499 L826.3434 293.0546" clip-path="url(#clipPath2)"/>
      <path d="M757.767 278.6822 C759.8355 279.4579 760.8834 281.7636 760.1076 283.8321 C759.3318 285.9005 757.0261 286.9484 754.9577 286.1726 C752.8892 285.3969 751.8413 283.0912 752.6171 281.0227 C753.3929 278.9543 755.6986 277.9064 757.767 278.6822 Z" clip-path="url(#clipPath2)" stroke="none"/>
      <path d="M823.5162 282.4242 L820.802 295.5632 L832.3989 292.4789 Z" clip-path="url(#clipPath2)" stroke="none"/>
      <rect x="700.337" y="300.9316" clip-path="url(#clipPath2)" fill="white" width="179.1953" height="23.6016" stroke="none"/>
      <text x="702.337" font-size="16px" y="319.0175" clip-path="url(#clipPath2)" font-family="sans-serif" stroke="none" xml:space="preserve">crm:P132_overlaps_with</text>
      <path fill="none" d="M71.5886 286.2076 L71.5542 286.3015 L71.0027 288.4463 L70.4724 291.9214 L70.2917 295.5 L70.4724 299.0786 L71.0027 302.5537 L71.8652 305.9079 L73.0421 309.1236 L74.516 312.1831 L76.2691 315.0688 L78.284 317.7632 L80.5429 320.2487 L83.0284 322.5077 L85.7228 324.5226 L88.6086 326.2757 L91.6681 327.7495 L94.8837 328.9265 L98.2379 329.7889 L101.7131 330.3193 L105.2917 330.5 L108.8702 330.3193 L112.3454 329.7889 L115.6996 328.9265 L118.9152 327.7495 L121.9747 326.2757 L124.8605 324.5226 L127.5549 322.5077 L130.0404 320.2487 L132.2994 317.7632 L134.3142 315.0688 L136.0674 312.1831 L137.5412 309.1236 L138.7181 305.9079 L139.5806 302.5537 L140.111 299.0786 L140.2917 295.5 L140.1774 293.238 L140.1533 293.141" clip-path="url(#clipPath2)"/>
      <path d="M74.0986 278.6116 C76.1962 279.3047 77.3348 281.567 76.6416 283.6646 C75.9485 285.7622 73.6862 286.9007 71.5886 286.2076 C69.491 285.5145 68.3525 283.2521 69.0456 281.1546 C69.7387 279.057 72.0011 277.9184 74.0986 278.6116 Z" clip-path="url(#clipPath2)" stroke="none"/>
      <path d="M137.7492 282.4069 L134.517 295.4282 L146.2268 292.8055 Z" clip-path="url(#clipPath2)" stroke="none"/>
      <rect x="33.487" y="299.2617" clip-path="url(#clipPath2)" fill="white" width="143.6094" height="23.6016" stroke="none"/>
      <text x="35.487" font-size="16px" y="317.3477" clip-path="url(#clipPath2)" font-family="sans-serif" stroke="none" xml:space="preserve">crm:P9_consists_of</text>
      <path fill="none" d="M380.7437 260.5 L173.6477 260.5" clip-path="url(#clipPath2)" stroke="black"/>
      <path fill="black" d="M165.6477 260.5 L177.6477 265.5 L174.6477 260.5 L177.6477 255.5 Z" clip-path="url(#clipPath2)" stroke="none"/>
      <rect x="214.305" y="248.6992" clip-path="url(#clipPath2)" fill="white" width="117.8125" height="23.6016" stroke="none"/>
    </g>
    <g font-size="16px" stroke-linecap="butt" transform="matrix(1,0,0,1,36,-57)" text-rendering="geometricPrecision" font-family="sans-serif" shape-rendering="geometricPrecision" stroke-miterlimit="1.45">
      <text x="216.305" xml:space="preserve" y="266.7852" clip-path="url(#clipPath2)" stroke="none">rdfs:subClassOf</text>
    </g>
    <g stroke-linecap="butt" transform="matrix(1,0,0,1,36,-57)" fill="navy" text-rendering="geometricPrecision" shape-rendering="geometricPrecision" stroke="navy" stroke-miterlimit="1.45">
      <path fill="none" d="M105.2917 234.519 L105.2917 175.4887" clip-path="url(#clipPath2)"/>
      <path d="M105.2917 242.519 C103.0825 242.519 101.2917 240.7282 101.2917 238.519 C101.2917 236.3099 103.0825 234.519 105.2917 234.519 C107.5008 234.519 109.2917 236.3099 109.2917 238.519 C109.2917 240.7282 107.5008 242.519 105.2917 242.519 Z" clip-path="url(#clipPath2)" stroke="none"/>
      <path d="M105.2917 164.4887 L99.2917 176.4887 L111.2917 176.4887 Z" clip-path="url(#clipPath2)" stroke="none"/>
      <rect x="23.6901" y="189.6992" clip-path="url(#clipPath2)" fill="white" width="163.2031" height="23.6016" stroke="none"/>
      <text x="25.6901" font-size="16px" y="207.7852" clip-path="url(#clipPath2)" font-family="sans-serif" stroke="none" xml:space="preserve">crm:P7_took_place_at</text>
      <path fill="none" d="M44.6667 560.0164 L44.6667 491.9675" clip-path="url(#clipPath2)" stroke="black"/>
      <path fill="black" d="M44.6667 483.9675 L39.6667 495.9675 L44.6667 492.9675 L49.6667 495.9675 Z" clip-path="url(#clipPath2)" stroke="none"/>
      <rect x="-14.2396" y="510.2104" clip-path="url(#clipPath2)" fill="white" width="117.8125" height="23.6016" stroke="none"/>
    </g>
    <g font-size="16px" stroke-linecap="butt" transform="matrix(1,0,0,1,36,-57)" text-rendering="geometricPrecision" font-family="sans-serif" shape-rendering="geometricPrecision" stroke-miterlimit="1.45">
      <text x="-12.2396" xml:space="preserve" y="528.2964" clip-path="url(#clipPath2)" stroke="none">rdfs:subClassOf</text>
      <path fill="none" d="M251.0824 566.7278 L251.0824 541.8426 L108.9477 486.8642" clip-path="url(#clipPath2)"/>
      <path d="M101.4864 483.9781 L110.8746 492.9705 L109.8804 487.2249 L114.4821 483.6439 Z" stroke="none" clip-path="url(#clipPath2)"/>
    </g>
    <g stroke-linecap="butt" transform="matrix(1,0,0,1,36,-57)" fill="white" text-rendering="geometricPrecision" shape-rendering="geometricPrecision" stroke="white" stroke-miterlimit="1.45">
      <rect x="123.7104" width="117.8125" height="23.6016" y="503.5589" clip-path="url(#clipPath2)" stroke="none"/>
    </g>
    <g font-size="16px" stroke-linecap="butt" transform="matrix(1,0,0,1,36,-57)" text-rendering="geometricPrecision" font-family="sans-serif" shape-rendering="geometricPrecision" stroke-miterlimit="1.45">
      <text x="125.7104" xml:space="preserve" y="521.6448" clip-path="url(#clipPath2)" stroke="none">rdfs:subClassOf</text>
    </g>
    <g stroke-linecap="butt" transform="matrix(1,0,0,1,36,-57)" fill="navy" text-rendering="geometricPrecision" shape-rendering="geometricPrecision" stroke="navy" stroke-miterlimit="1.45">
      <path fill="none" d="M176.6391 142.5 L505.1391 142.5" clip-path="url(#clipPath2)"/>
      <path d="M165.6391 142.5 L177.6391 148.5 L177.6391 136.5 Z" clip-path="url(#clipPath2)" stroke="none"/>
      <path d="M513.139 142.5 C513.139 144.7091 511.3482 146.5 509.1391 146.5 C506.9299 146.5 505.1391 144.7091 505.1391 142.5 C505.1391 140.2909 506.9299 138.5 509.1391 138.5 C511.3482 138.5 513.139 140.2909 513.139 142.5 Z" clip-path="url(#clipPath2)" stroke="none"/>
      <rect x="220.6642" y="130.6992" clip-path="url(#clipPath2)" fill="white" width="233.4531" height="23.6016" stroke="none"/>
      <text x="222.6642" font-size="16px" y="148.7852" clip-path="url(#clipPath2)" font-family="sans-serif" stroke="none" xml:space="preserve">crm:P157_is_at_rest_relative_to</text>
    </g>
  </g>
</svg>
