<?xml version="1.0" encoding="UTF-8"?><svg xmlns="http://www.w3.org/2000/svg" xmlns:xlink="http://www.w3.org/1999/xlink" fill-opacity="1" color-rendering="auto" color-interpolation="auto" text-rendering="auto" stroke="black" stroke-linecap="square" width="1169" stroke-miterlimit="10" shape-rendering="auto" stroke-opacity="1" fill="black" stroke-dasharray="none" font-weight="normal" stroke-width="1" height="474" font-family="'Dialog'" font-style="normal" stroke-linejoin="miter" font-size="12px" stroke-dashoffset="0" image-rendering="auto">
  <!--Generated by ySVG 2.5-->
  <defs id="genericDefs"/>
  <g>
    <defs id="defs1">
      <clipPath clipPathUnits="userSpaceOnUse" id="clipPath1">
        <path d="M0 0 L1169 0 L1169 474 L0 474 L0 0 Z"/>
      </clipPath>
      <clipPath clipPathUnits="userSpaceOnUse" id="clipPath2">
        <path d="M-38 -44 L1131 -44 L1131 430 L-38 430 L-38 -44 Z"/>
      </clipPath>
    </defs>
    <g fill="white" text-rendering="geometricPrecision" shape-rendering="geometricPrecision" transform="translate(38,44)" stroke="white">
      <rect x="-38" width="1169" height="474" y="-44" clip-path="url(#clipPath2)" stroke="none"/>
    </g>
    <g fill="yellow" text-rendering="geometricPrecision" shape-rendering="geometricPrecision" transform="matrix(1,0,0,1,38,44)" stroke="yellow">
      <rect x="96.7153" y="177.4568" clip-path="url(#clipPath2)" width="215.3619" rx="4" ry="4" height="44" stroke="none"/>
    </g>
    <g font-size="16px" stroke-linecap="butt" transform="matrix(1,0,0,1,38,44)" text-rendering="geometricPrecision" font-family="sans-serif" shape-rendering="geometricPrecision" stroke-miterlimit="1.45">
      <text x="102.1189" xml:space="preserve" y="205.7419" clip-path="url(#clipPath2)" stroke="none">crm:E28_Conceptual_Object</text>
      <rect x="96.7153" y="177.4568" clip-path="url(#clipPath2)" fill="none" width="215.3619" rx="4" ry="4" height="44"/>
    </g>
    <g fill="yellow" text-rendering="geometricPrecision" shape-rendering="geometricPrecision" transform="matrix(1,0,0,1,38,44)" stroke="yellow">
      <rect x="111.9434" y="279.375" clip-path="url(#clipPath2)" width="184.9057" rx="4" ry="4" height="44" stroke="none"/>
    </g>
    <g font-size="16px" stroke-linecap="butt" transform="matrix(1,0,0,1,38,44)" text-rendering="geometricPrecision" font-family="sans-serif" shape-rendering="geometricPrecision" stroke-miterlimit="1.45">
      <text x="120.3532" xml:space="preserve" y="307.6602" clip-path="url(#clipPath2)" stroke="none"> vir:IC9_Representation</text>
      <rect x="111.9434" y="279.375" clip-path="url(#clipPath2)" fill="none" width="184.9057" rx="4" ry="4" height="44"/>
    </g>
    <g fill="yellow" text-rendering="geometricPrecision" shape-rendering="geometricPrecision" transform="matrix(1,0,0,1,38,44)" stroke="yellow">
      <rect x="101.6934" y="370.25" clip-path="url(#clipPath2)" width="205.4057" rx="4" ry="4" height="44" stroke="none"/>
    </g>
    <g font-size="16px" stroke-linecap="butt" transform="matrix(1,0,0,1,38,44)" text-rendering="geometricPrecision" font-family="sans-serif" shape-rendering="geometricPrecision" stroke-miterlimit="1.45">
      <text x="109.24" xml:space="preserve" y="398.5352" clip-path="url(#clipPath2)" stroke="none">crm:E33_Linguistic_Object</text>
      <rect x="101.6934" y="370.25" clip-path="url(#clipPath2)" fill="none" width="205.4057" rx="4" ry="4" height="44"/>
    </g>
    <g fill="yellow" text-rendering="geometricPrecision" shape-rendering="geometricPrecision" transform="matrix(1,0,0,1,38,44)" stroke="yellow">
      <rect x="132.5527" y="35.125" clip-path="url(#clipPath2)" width="143.687" rx="4" ry="4" height="44" stroke="none"/>
    </g>
    <g font-size="16px" stroke-linecap="butt" transform="matrix(1,0,0,1,38,44)" text-rendering="geometricPrecision" font-family="sans-serif" shape-rendering="geometricPrecision" stroke-miterlimit="1.45">
      <text x="139.9236" xml:space="preserve" y="63.4102" clip-path="url(#clipPath2)" stroke="none">crm:E65_Creation</text>
      <rect x="132.5527" y="35.125" clip-path="url(#clipPath2)" fill="none" width="143.687" rx="4" ry="4" height="44"/>
    </g>
    <g fill="yellow" text-rendering="geometricPrecision" shape-rendering="geometricPrecision" transform="matrix(1,0,0,1,38,44)" stroke="yellow">
      <rect x="492.4201" y="177.4568" clip-path="url(#clipPath2)" width="227.3704" rx="4" ry="4" height="44" stroke="none"/>
    </g>
    <g font-size="16px" stroke-linecap="butt" transform="matrix(1,0,0,1,38,44)" text-rendering="geometricPrecision" font-family="sans-serif" shape-rendering="geometricPrecision" stroke-miterlimit="1.45">
      <text x="506.0623" xml:space="preserve" y="205.7419" clip-path="url(#clipPath2)" stroke="none">crm:E22_Man-Made_Object</text>
      <rect x="492.4201" y="177.4568" clip-path="url(#clipPath2)" fill="none" width="227.3704" rx="4" ry="4" height="44"/>
    </g>
    <g fill="yellow" text-rendering="geometricPrecision" shape-rendering="geometricPrecision" transform="matrix(1,0,0,1,38,44)" stroke="yellow">
      <rect x="492.4201" y="279.375" clip-path="url(#clipPath2)" width="227.3704" rx="4" ry="4" height="44" stroke="none"/>
    </g>
    <g font-size="16px" stroke-linecap="butt" transform="matrix(1,0,0,1,38,44)" text-rendering="geometricPrecision" font-family="sans-serif" shape-rendering="geometricPrecision" stroke-miterlimit="1.45">
      <text x="503.3866" xml:space="preserve" y="307.6602" clip-path="url(#clipPath2)" stroke="none">vir:IC1_Iconographical_Atom</text>
      <rect x="492.4201" y="279.375" clip-path="url(#clipPath2)" fill="none" width="227.3704" rx="4" ry="4" height="44"/>
    </g>
    <g fill="yellow" text-rendering="geometricPrecision" shape-rendering="geometricPrecision" transform="matrix(1,0,0,1,38,44)" stroke="yellow">
      <rect x="481.1774" y="370.25" clip-path="url(#clipPath2)" width="249.8559" rx="4" ry="4" height="44" stroke="none"/>
    </g>
    <g font-size="16px" stroke-linecap="butt" transform="matrix(1,0,0,1,38,44)" text-rendering="geometricPrecision" font-family="sans-serif" shape-rendering="geometricPrecision" stroke-miterlimit="1.45">
      <text x="490.0623" xml:space="preserve" y="398.5352" clip-path="url(#clipPath2)" stroke="none">tex:TX7_Written_Text_Fragment</text>
      <rect x="481.1774" y="370.25" clip-path="url(#clipPath2)" fill="none" width="249.8559" rx="4" ry="4" height="44"/>
    </g>
    <g fill="yellow" text-rendering="geometricPrecision" shape-rendering="geometricPrecision" transform="matrix(1,0,0,1,38,44)" stroke="yellow">
      <rect x="528.7707" y="35.125" clip-path="url(#clipPath2)" width="154.6693" rx="4" ry="4" height="44" stroke="none"/>
    </g>
    <g font-size="16px" stroke-linecap="butt" transform="matrix(1,0,0,1,38,44)" text-rendering="geometricPrecision" font-family="sans-serif" shape-rendering="geometricPrecision" stroke-miterlimit="1.45">
      <text x="533.6249" xml:space="preserve" y="63.4102" clip-path="url(#clipPath2)" stroke="none">crm:E12_Production</text>
      <rect x="528.7707" y="35.125" clip-path="url(#clipPath2)" fill="none" width="154.6693" rx="4" ry="4" height="44"/>
    </g>
    <g fill="yellow" text-rendering="geometricPrecision" shape-rendering="geometricPrecision" transform="matrix(1,0,0,1,38,44)" stroke="yellow">
      <rect x="1005.5784" y="370.25" clip-path="url(#clipPath2)" width="110.0932" rx="4" ry="4" height="44" stroke="none"/>
    </g>
    <g font-size="16px" stroke-linecap="butt" transform="matrix(1,0,0,1,38,44)" text-rendering="geometricPrecision" font-family="sans-serif" shape-rendering="geometricPrecision" stroke-miterlimit="1.45">
      <text x="1016.6133" xml:space="preserve" y="398.5352" clip-path="url(#clipPath2)" stroke="none">TX2_Writing</text>
      <rect x="1005.5784" y="370.25" clip-path="url(#clipPath2)" fill="none" width="110.0932" rx="4" ry="4" height="44"/>
      <path fill="none" d="M204.3962 279.3292 L204.3962 229.4919" clip-path="url(#clipPath2)"/>
      <path d="M204.3962 221.4919 L199.3962 233.4919 L204.3962 230.4919 L209.3962 233.4919 Z" stroke="none" clip-path="url(#clipPath2)"/>
    </g>
    <g stroke-linecap="butt" transform="matrix(1,0,0,1,38,44)" fill="white" text-rendering="geometricPrecision" shape-rendering="geometricPrecision" stroke="white" stroke-miterlimit="1.45">
      <rect x="145.49" width="117.8125" height="23.6016" y="238.6151" clip-path="url(#clipPath2)" stroke="none"/>
    </g>
    <g font-size="16px" stroke-linecap="butt" transform="matrix(1,0,0,1,38,44)" text-rendering="geometricPrecision" font-family="sans-serif" shape-rendering="geometricPrecision" stroke-miterlimit="1.45">
      <text x="147.49" xml:space="preserve" y="256.701" clip-path="url(#clipPath2)" stroke="none">rdfs:subClassOf</text>
      <path fill="none" d="M101.6564 392.25 L36 392.25 L36 199.4568 L88.723 199.4568" clip-path="url(#clipPath2)"/>
      <path d="M96.723 199.4568 L84.723 194.4568 L87.723 199.4568 L84.723 204.4568 Z" stroke="none" clip-path="url(#clipPath2)"/>
    </g>
    <g stroke-linecap="butt" transform="matrix(1,0,0,1,38,44)" fill="white" text-rendering="geometricPrecision" shape-rendering="geometricPrecision" stroke="white" stroke-miterlimit="1.45">
      <rect x="-22.9062" width="117.8125" height="23.6016" y="284.0526" clip-path="url(#clipPath2)" stroke="none"/>
    </g>
    <g font-size="16px" stroke-linecap="butt" transform="matrix(1,0,0,1,38,44)" text-rendering="geometricPrecision" font-family="sans-serif" shape-rendering="geometricPrecision" stroke-miterlimit="1.45">
      <text x="-20.9062" xml:space="preserve" y="302.1385" clip-path="url(#clipPath2)" stroke="none">rdfs:subClassOf</text>
    </g>
    <g stroke-linecap="butt" transform="matrix(1,0,0,1,38,44)" fill="navy" text-rendering="geometricPrecision" shape-rendering="geometricPrecision" stroke="navy" stroke-miterlimit="1.45">
      <path fill="none" d="M204.3962 83.1211 L204.3962 166.452" clip-path="url(#clipPath2)"/>
      <path d="M204.3962 75.1211 C206.6054 75.1211 208.3962 76.912 208.3962 79.1211 C208.3962 81.3302 206.6054 83.1211 204.3962 83.1211 C202.1871 83.1211 200.3962 81.3302 200.3962 79.1211 C200.3962 76.912 202.1871 75.1211 204.3962 75.1211 Z" clip-path="url(#clipPath2)" stroke="none"/>
      <path d="M204.3962 177.452 L210.3962 165.452 L198.3962 165.452 Z" clip-path="url(#clipPath2)" stroke="none"/>
      <rect x="124.1306" y="116.4901" clip-path="url(#clipPath2)" fill="white" width="160.5312" height="23.6016" stroke="none"/>
      <text x="126.1306" font-size="16px" y="134.576" clip-path="url(#clipPath2)" font-family="sans-serif" stroke="none" xml:space="preserve">crm:P94_has_created</text>
      <path fill="none" d="M488.3891 199.4568 L323.0771 199.4568" clip-path="url(#clipPath2)"/>
      <path d="M496.3891 199.4568 C496.3891 201.6659 494.5982 203.4568 492.3891 203.4568 C490.18 203.4568 488.3891 201.6659 488.3891 199.4568 C488.3891 197.2476 490.18 195.4568 492.3891 195.4568 C494.5982 195.4568 496.3891 197.2476 496.3891 199.4568 Z" clip-path="url(#clipPath2)" stroke="none"/>
      <path d="M312.0771 199.4568 L324.0771 205.4568 L324.0771 193.4568 Z" clip-path="url(#clipPath2)" stroke="none"/>
      <rect x="337.5612" y="187.656" clip-path="url(#clipPath2)" fill="white" width="129.375" height="23.6016" stroke="none"/>
      <text x="339.5612" font-size="16px" y="205.7419" clip-path="url(#clipPath2)" font-family="sans-serif" stroke="none" xml:space="preserve">crm:P128_carries</text>
      <path fill="none" d="M488.3891 301.375 L307.8197 301.375" clip-path="url(#clipPath2)"/>
      <path d="M496.3891 301.375 C496.3891 303.5841 494.5982 305.375 492.3891 305.375 C490.18 305.375 488.3891 303.5841 488.3891 301.375 C488.3891 299.1659 490.18 297.375 492.3891 297.375 C494.5982 297.375 496.3891 299.1659 496.3891 301.375 Z" clip-path="url(#clipPath2)" stroke="none"/>
      <path d="M296.8197 301.375 L308.8197 307.375 L308.8197 295.375 Z" clip-path="url(#clipPath2)" stroke="none"/>
      <rect x="339.2674" y="289.5742" clip-path="url(#clipPath2)" fill="white" width="110.7344" height="23.6016" stroke="none"/>
      <text x="341.2674" font-size="16px" y="307.6602" clip-path="url(#clipPath2)" font-family="sans-serif" stroke="none" xml:space="preserve">vir:K1_denotes</text>
      <path fill="none" d="M477.2087 392.25 L318.0858 392.25" clip-path="url(#clipPath2)"/>
      <path d="M485.2087 392.25 C485.2087 394.4591 483.4178 396.25 481.2087 396.25 C478.9996 396.25 477.2087 394.4591 477.2087 392.25 C477.2087 390.0409 478.9996 388.25 481.2087 388.25 C483.4178 388.25 485.2087 390.0409 485.2087 392.25 Z" clip-path="url(#clipPath2)" stroke="none"/>
      <path d="M307.0858 392.25 L319.0858 398.25 L319.0858 386.25 Z" clip-path="url(#clipPath2)" stroke="none"/>
      <rect x="329.4507" y="380.4492" clip-path="url(#clipPath2)" fill="white" width="129.375" height="23.6016" stroke="none"/>
      <text x="331.4507" font-size="16px" y="398.5352" clip-path="url(#clipPath2)" font-family="sans-serif" stroke="none" xml:space="preserve">crm:P128_carries</text>
      <path fill="none" d="M606.1053 83.1211 L606.1053 166.452" clip-path="url(#clipPath2)"/>
      <path d="M606.1053 75.1211 C608.3145 75.1211 610.1053 76.912 610.1053 79.1211 C610.1053 81.3302 608.3145 83.1211 606.1053 83.1211 C603.8962 83.1211 602.1053 81.3302 602.1053 79.1211 C602.1053 76.912 603.8962 75.1211 606.1053 75.1211 Z" clip-path="url(#clipPath2)" stroke="none"/>
      <path d="M606.1053 177.452 L612.1053 165.452 L600.1053 165.452 Z" clip-path="url(#clipPath2)" stroke="none"/>
      <rect x="514.7147" y="116.4901" clip-path="url(#clipPath2)" fill="white" width="182.7812" height="23.6016" stroke="none"/>
      <text x="516.7147" font-size="16px" y="134.576" clip-path="url(#clipPath2)" font-family="sans-serif" stroke="none" xml:space="preserve">crm:P108_has_produced</text>
      <path fill="none" d="M687.4564 57.125 L821.5625 57.125 L821.5625 301.375 L730.8042 301.375" clip-path="url(#clipPath2)"/>
      <path d="M679.4564 57.125 C679.4564 54.9159 681.2472 53.125 683.4564 53.125 C685.6655 53.125 687.4564 54.9159 687.4564 57.125 C687.4564 59.3341 685.6655 61.125 683.4564 61.125 C681.2472 61.125 679.4564 59.3341 679.4564 57.125 Z" clip-path="url(#clipPath2)" stroke="none"/>
      <path d="M719.8042 301.375 L731.8042 307.375 L731.8042 295.375 Z" clip-path="url(#clipPath2)" stroke="none"/>
      <rect x="730.1719" y="167.4492" clip-path="url(#clipPath2)" fill="white" width="182.7812" height="23.6016" stroke="none"/>
      <text x="732.1719" font-size="16px" y="185.5352" clip-path="url(#clipPath2)" font-family="sans-serif" stroke="none" xml:space="preserve">crm:P108_has_produced</text>
      <path fill="none" d="M1001.5577 392.25 L742.0805 392.25" clip-path="url(#clipPath2)"/>
      <path d="M1009.5577 392.25 C1009.5577 394.4591 1007.7669 396.25 1005.5577 396.25 C1003.3486 396.25 1001.5577 394.4591 1001.5577 392.25 C1001.5577 390.0409 1003.3486 388.25 1005.5577 388.25 C1007.7669 388.25 1009.5577 390.0409 1009.5577 392.25 Z" clip-path="url(#clipPath2)" stroke="none"/>
      <path d="M731.0805 392.25 L743.0805 398.25 L743.0805 386.25 Z" clip-path="url(#clipPath2)" stroke="none"/>
      <rect x="776.9152" y="380.4492" clip-path="url(#clipPath2)" fill="white" width="182.7812" height="23.6016" stroke="none"/>
      <text x="778.9152" font-size="16px" y="398.5352" clip-path="url(#clipPath2)" font-family="sans-serif" stroke="none" xml:space="preserve">crm:P108_has_produced</text>
      <path fill="none" d="M1060.625 370.2121 L1060.625 -17.125 L606.1053 -17.125 L606.1053 27.1183" clip-path="url(#clipPath2)" stroke="black"/>
      <path fill="black" d="M606.1053 35.1183 L611.1053 23.1183 L606.1053 26.1183 L601.1053 23.1183 Z" clip-path="url(#clipPath2)" stroke="none"/>
      <rect x="774.4589" y="-28.9258" clip-path="url(#clipPath2)" fill="white" width="117.8125" height="23.6016" stroke="none"/>
    </g>
    <g font-size="16px" stroke-linecap="butt" transform="matrix(1,0,0,1,38,44)" text-rendering="geometricPrecision" font-family="sans-serif" shape-rendering="geometricPrecision" stroke-miterlimit="1.45">
      <text x="776.4589" xml:space="preserve" y="-10.8398" clip-path="url(#clipPath2)" stroke="none">rdfs:subClassOf</text>
    </g>
  </g>
</svg>
