<?xml version="1.0" encoding="UTF-8"?><svg xmlns="http://www.w3.org/2000/svg" xmlns:xlink="http://www.w3.org/1999/xlink" fill-opacity="1" color-rendering="auto" color-interpolation="auto" text-rendering="auto" stroke="black" stroke-linecap="square" width="1113" stroke-miterlimit="10" shape-rendering="auto" stroke-opacity="1" fill="black" stroke-dasharray="none" font-weight="normal" stroke-width="1" height="676" font-family="'Dialog'" font-style="normal" stroke-linejoin="miter" font-size="12px" stroke-dashoffset="0" image-rendering="auto">
  <!--Generated by ySVG 2.5-->
  <defs id="genericDefs"/>
  <g>
    <defs id="defs1">
      <clipPath clipPathUnits="userSpaceOnUse" id="clipPath1">
        <path d="M0 0 L1113 0 L1113 676 L0 676 L0 0 Z"/>
      </clipPath>
      <clipPath clipPathUnits="userSpaceOnUse" id="clipPath2">
        <path d="M-228 -118 L885 -118 L885 558 L-228 558 L-228 -118 Z"/>
      </clipPath>
    </defs>
    <g fill="white" text-rendering="geometricPrecision" shape-rendering="geometricPrecision" transform="translate(228,118)" stroke="white">
      <rect x="-228" width="1113" height="676" y="-118" clip-path="url(#clipPath2)" stroke="none"/>
    </g>
    <g fill="yellow" text-rendering="geometricPrecision" shape-rendering="geometricPrecision" transform="matrix(1,0,0,1,228,118)" stroke="yellow">
      <rect x="-112.5121" y="150" clip-path="url(#clipPath2)" width="218.4675" rx="4" ry="4" height="44" stroke="none"/>
    </g>
    <g font-size="16px" stroke-linecap="butt" transform="matrix(1,0,0,1,228,118)" text-rendering="geometricPrecision" font-family="sans-serif" shape-rendering="geometricPrecision" stroke-miterlimit="1.45">
      <text x="-105.9971" xml:space="preserve" y="178.2852" clip-path="url(#clipPath2)" stroke="none">vir:IC1_Iconographical_Atom</text>
      <rect x="-112.5121" y="150" clip-path="url(#clipPath2)" fill="none" width="218.4675" rx="4" ry="4" height="44"/>
    </g>
    <g fill="yellow" text-rendering="geometricPrecision" shape-rendering="geometricPrecision" transform="matrix(1,0,0,1,228,118)" stroke="yellow">
      <rect x="265.4285" y="150" clip-path="url(#clipPath2)" width="186.143" rx="4" ry="4" height="44" stroke="none"/>
    </g>
    <g font-size="16px" stroke-linecap="butt" transform="matrix(1,0,0,1,228,118)" text-rendering="geometricPrecision" font-family="sans-serif" shape-rendering="geometricPrecision" stroke-miterlimit="1.45">
      <text x="276.6797" xml:space="preserve" y="178.2852" clip-path="url(#clipPath2)" stroke="none">vir:IC9_Representation</text>
      <rect x="265.4285" y="150" clip-path="url(#clipPath2)" fill="none" width="186.143" rx="4" ry="4" height="44"/>
    </g>
    <g fill="yellow" text-rendering="geometricPrecision" shape-rendering="geometricPrecision" transform="matrix(1,0,0,1,228,118)" stroke="yellow">
      <rect x="-35.2628" y="498.077" clip-path="url(#clipPath2)" width="141.2182" rx="4" ry="4" height="44" stroke="none"/>
    </g>
    <g font-size="16px" stroke-linecap="butt" transform="matrix(1,0,0,1,228,118)" text-rendering="geometricPrecision" font-family="sans-serif" shape-rendering="geometricPrecision" stroke-miterlimit="1.45">
      <text x="-26.4583" xml:space="preserve" y="526.3622" clip-path="url(#clipPath2)" stroke="none">vir:IC10_Attribute</text>
      <rect x="-35.2628" y="498.077" clip-path="url(#clipPath2)" fill="none" width="141.2182" rx="4" ry="4" height="44"/>
    </g>
    <g fill="yellow" text-rendering="geometricPrecision" shape-rendering="geometricPrecision" transform="matrix(1,0,0,1,228,118)" stroke="yellow">
      <rect x="-64.8362" y="-1.875" clip-path="url(#clipPath2)" width="202.7666" rx="4" ry="4" height="44" stroke="none"/>
    </g>
    <g font-size="16px" stroke-linecap="butt" transform="matrix(1,0,0,1,228,118)" text-rendering="geometricPrecision" font-family="sans-serif" shape-rendering="geometricPrecision" stroke-miterlimit="1.45">
      <text x="-57.7107" xml:space="preserve" y="26.4102" clip-path="url(#clipPath2)" stroke="none">crm:E90_Symbolic_Object</text>
      <rect x="-64.8362" y="-1.875" clip-path="url(#clipPath2)" fill="none" width="202.7666" rx="4" ry="4" height="44"/>
      <text x="675.5703" xml:space="preserve" y="172.2734" clip-path="url(#clipPath2)" stroke="none">Events, People, Places </text>
      <text x="710.2656" xml:space="preserve" y="191.875" clip-path="url(#clipPath2)" stroke="none">and Time Unit</text>
    </g>
    <g stroke-linecap="round" transform="matrix(1,0,0,1,228,118)" stroke-dashoffset="2" text-rendering="geometricPrecision" shape-rendering="geometricPrecision" stroke-dasharray="0,4" stroke-miterlimit="1.45">
      <rect x="650.8287" y="-16.0156" clip-path="url(#clipPath2)" fill="none" width="218.4675" rx="4" ry="4" height="383.6094"/>
    </g>
    <g fill="yellow" text-rendering="geometricPrecision" shape-rendering="geometricPrecision" transform="matrix(1,0,0,1,228,118)" stroke="yellow">
      <rect x="265.4285" y="402.5055" clip-path="url(#clipPath2)" width="186.143" rx="4" ry="4" height="44" stroke="none"/>
    </g>
    <g font-size="16px" stroke-linecap="butt" transform="matrix(1,0,0,1,228,118)" text-rendering="geometricPrecision" font-family="sans-serif" shape-rendering="geometricPrecision" stroke-miterlimit="1.45">
      <text x="275.3633" xml:space="preserve" y="430.7906" clip-path="url(#clipPath2)" stroke="none">mimo:Missing_Attribute</text>
      <rect x="265.4285" y="402.5055" clip-path="url(#clipPath2)" fill="none" width="186.143" rx="4" ry="4" height="44"/>
    </g>
    <g fill="yellow" text-rendering="geometricPrecision" shape-rendering="geometricPrecision" transform="matrix(1,0,0,1,228,118)" stroke="yellow">
      <rect x="233.104" y="-102.5055" clip-path="url(#clipPath2)" width="218.4675" rx="4" ry="4" height="44" stroke="none"/>
    </g>
    <g font-size="16px" stroke-linecap="butt" transform="matrix(1,0,0,1,228,118)" text-rendering="geometricPrecision" font-family="sans-serif" shape-rendering="geometricPrecision" stroke-miterlimit="1.45">
      <text x="247.1815" xml:space="preserve" y="-74.2203" clip-path="url(#clipPath2)" stroke="none">crm:E33_Linguistic_Object</text>
      <rect x="233.104" y="-102.5055" clip-path="url(#clipPath2)" fill="none" width="218.4675" rx="4" ry="4" height="44"/>
    </g>
    <g fill="yellow" text-rendering="geometricPrecision" shape-rendering="geometricPrecision" transform="matrix(1,0,0,1,228,118)" stroke="yellow">
      <rect x="448.0621" y="317.9531" clip-path="url(#clipPath2)" width="202.7666" rx="4" ry="4" height="44" stroke="none"/>
    </g>
    <g font-size="16px" stroke-linecap="butt" transform="matrix(1,0,0,1,228,118)" text-rendering="geometricPrecision" font-family="sans-serif" shape-rendering="geometricPrecision" stroke-miterlimit="1.45">
      <text x="455.1876" xml:space="preserve" y="346.2383" clip-path="url(#clipPath2)" stroke="none">crm:E90_Symbolic_Object</text>
      <rect x="448.0621" y="317.9531" clip-path="url(#clipPath2)" fill="none" width="202.7666" rx="4" ry="4" height="44"/>
    </g>
    <g stroke-linecap="butt" transform="matrix(1,0,0,1,228,118)" fill="navy" text-rendering="geometricPrecision" shape-rendering="geometricPrecision" stroke="navy" stroke-miterlimit="1.45">
      <path fill="none" d="M109.9353 172 L254.4223 172" clip-path="url(#clipPath2)"/>
      <path d="M101.9353 172 C101.9353 169.7909 103.7262 168 105.9353 168 C108.1444 168 109.9353 169.7909 109.9353 172 C109.9353 174.2091 108.1444 176 105.9353 176 C103.7262 176 101.9353 174.2091 101.9353 172 Z" clip-path="url(#clipPath2)" stroke="none"/>
      <path d="M265.4222 172 L253.4222 166 L253.4222 178 Z" clip-path="url(#clipPath2)" stroke="none"/>
      <rect x="130.3248" y="160.1992" clip-path="url(#clipPath2)" fill="white" width="110.7344" height="23.6016" stroke="none"/>
      <text x="132.3248" font-size="16px" y="178.2852" clip-path="url(#clipPath2)" font-family="sans-serif" stroke="none" xml:space="preserve">vir:K1_denotes</text>
      <path fill="none" d="M302.6251 195.5521 L35.3464 308.2141 L35.3464 487.0683" clip-path="url(#clipPath2)"/>
      <path d="M309.9969 192.4448 C310.855 194.4805 309.9004 196.8263 307.8647 197.6844 C305.829 198.5424 303.4832 197.5878 302.6251 195.5521 C301.767 193.5164 302.7216 191.1706 304.7573 190.3125 C306.793 189.4544 309.1389 190.4091 309.9969 192.4448 Z" clip-path="url(#clipPath2)" stroke="none"/>
      <path d="M35.3464 498.0683 L41.3464 486.0683 L29.3464 486.0683 Z" clip-path="url(#clipPath2)" stroke="none"/>
      <rect x="82.4012" y="243.8688" clip-path="url(#clipPath2)" fill="white" width="155.2031" height="23.6016" stroke="none"/>
      <text x="84.4012" font-size="16px" y="261.9547" clip-path="url(#clipPath2)" font-family="sans-serif" stroke="none" xml:space="preserve">vir:K17_has_attribute</text>
      <path fill="none" d="M308.2321 148.2871 L93.1076 46.8063" clip-path="url(#clipPath2)"/>
      <path d="M315.4675 151.7002 C314.525 153.6982 312.1413 154.5539 310.1432 153.6114 C308.1453 152.6689 307.2896 150.2851 308.2321 148.2871 C309.1747 146.2891 311.5584 145.4335 313.5564 146.376 C315.5544 147.3185 316.41 149.7023 315.4675 151.7002 Z" clip-path="url(#clipPath2)" stroke="none"/>
      <path d="M83.159 42.1133 L91.4522 52.6595 L96.5719 41.8065 Z" clip-path="url(#clipPath2)" stroke="none"/>
      <rect x="119.0431" y="84.2617" clip-path="url(#clipPath2)" fill="white" width="156.9609" height="23.6016" stroke="none"/>
      <text x="121.0431" font-size="16px" y="102.3477" clip-path="url(#clipPath2)" font-family="sans-serif" stroke="none" xml:space="preserve">crm:P138_represents</text>
      <path fill="none" d="M-39.2789 520.077 L-147.1655 520.077 L-147.1655 20.125 L-75.8626 20.125" clip-path="url(#clipPath2)"/>
      <path d="M-31.2789 520.077 C-31.2789 522.2862 -33.0698 524.077 -35.2789 524.077 C-37.4881 524.077 -39.2789 522.2862 -39.2789 520.077 C-39.2789 517.8679 -37.4881 516.077 -35.2789 516.077 C-33.0698 516.077 -31.2789 517.8679 -31.2789 520.077 Z" clip-path="url(#clipPath2)" stroke="none"/>
      <path d="M-64.8626 20.125 L-76.8626 14.125 L-76.8626 26.125 Z" clip-path="url(#clipPath2)" stroke="none"/>
      <rect x="-212.3022" y="258.3002" clip-path="url(#clipPath2)" fill="white" width="130.2734" height="23.6016" stroke="none"/>
      <text x="-210.3022" font-size="16px" y="276.3862" clip-path="url(#clipPath2)" font-family="sans-serif" stroke="none" xml:space="preserve">vir:K14_symbolze</text>
      <path fill="none" d="M109.9867 520.077 L760.0625 520.077 L760.0625 378.5598" clip-path="url(#clipPath2)"/>
      <path d="M101.9867 520.077 C101.9867 517.8679 103.7776 516.077 105.9867 516.077 C108.1959 516.077 109.9867 517.8679 109.9867 520.077 C109.9867 522.2862 108.1959 524.077 105.9867 524.077 C103.7776 524.077 101.9867 522.2862 101.9867 520.077 Z" clip-path="url(#clipPath2)" stroke="none"/>
      <path d="M760.0625 367.5598 L754.0625 379.5598 L766.0625 379.5598 Z" clip-path="url(#clipPath2)" stroke="none"/>
      <rect x="359.091" y="508.2762" clip-path="url(#clipPath2)" fill="white" width="156.9609" height="23.6016" stroke="none"/>
      <text x="361.091" font-size="16px" y="526.3622" clip-path="url(#clipPath2)" font-family="sans-serif" stroke="none" xml:space="preserve">crm:P138_represents</text>
      <path fill="none" d="M455.5866 172.9161 L639.8237 174.6545" clip-path="url(#clipPath2)"/>
      <path d="M447.587 172.8406 C447.6078 170.6315 449.4155 168.8577 451.6246 168.8785 C453.8336 168.8994 455.6075 170.707 455.5866 172.9161 C455.5658 175.1251 453.7581 176.899 451.5491 176.8782 C449.34 176.8573 447.5662 175.0496 447.587 172.8406 Z" clip-path="url(#clipPath2)" stroke="none"/>
      <path d="M650.8232 174.7583 L638.8804 168.6453 L638.7672 180.6448 Z" clip-path="url(#clipPath2)" stroke="none"/>
      <rect x="472.7197" y="162.0175" clip-path="url(#clipPath2)" fill="white" width="156.9609" height="23.6016" stroke="none"/>
      <text x="474.7197" font-size="16px" y="180.1034" clip-path="url(#clipPath2)" font-family="sans-serif" stroke="none" xml:space="preserve">crm:P138_represents</text>
      <path fill="none" d="M358.5 197.9771 L358.5 391.5276" clip-path="url(#clipPath2)"/>
      <path d="M358.5 189.9771 C360.7091 189.9771 362.5 191.768 362.5 193.9771 C362.5 196.1862 360.7091 197.9771 358.5 197.9771 C356.2909 197.9771 354.5 196.1862 354.5 193.9771 C354.5 191.768 356.2909 189.9771 358.5 189.9771 Z" clip-path="url(#clipPath2)" stroke="none"/>
      <path d="M358.5 402.5276 L364.5 390.5276 L352.5 390.5276 Z" clip-path="url(#clipPath2)" stroke="none"/>
      <rect x="256.9023" y="286.452" clip-path="url(#clipPath2)" fill="white" width="203.1953" height="23.6016" stroke="none"/>
      <text x="258.9023" font-size="16px" y="304.5379" clip-path="url(#clipPath2)" font-family="sans-serif" stroke="none" xml:space="preserve">mimo:has_missing_attribute</text>
      <path fill="none" d="M455.601 424.5055 L710.4534 424.5055 L710.4534 378.6123" clip-path="url(#clipPath2)"/>
      <path d="M447.601 424.5055 C447.601 422.2963 449.3918 420.5055 451.601 420.5055 C453.8101 420.5055 455.601 422.2963 455.601 424.5055 C455.601 426.7146 453.8101 428.5055 451.601 428.5055 C449.3918 428.5055 447.601 426.7146 447.601 424.5055 Z" clip-path="url(#clipPath2)" stroke="none"/>
      <path d="M710.4534 367.6123 L704.4534 379.6123 L716.4534 379.6123 Z" clip-path="url(#clipPath2)" stroke="none"/>
      <rect x="507.0945" y="412.7047" clip-path="url(#clipPath2)" fill="white" width="156.9609" height="23.6016" stroke="none"/>
      <text x="509.0945" font-size="16px" y="430.7906" clip-path="url(#clipPath2)" font-family="sans-serif" stroke="none" xml:space="preserve">crm:P138_represents</text>
      <path fill="none" d="M455.5877 -80.5055 L760.0625 -80.5055 L760.0625 -27.0251" clip-path="url(#clipPath2)"/>
      <path d="M447.5877 -80.5055 C447.5877 -82.7146 449.3785 -84.5055 451.5877 -84.5055 C453.7968 -84.5055 455.5877 -82.7146 455.5877 -80.5055 C455.5877 -78.2963 453.7968 -76.5055 451.5877 -76.5055 C449.3785 -76.5055 447.5877 -78.2963 447.5877 -80.5055 Z" clip-path="url(#clipPath2)" stroke="none"/>
      <path d="M760.0625 -16.0251 L766.0625 -28.0251 L754.0625 -28.0251 Z" clip-path="url(#clipPath2)" stroke="none"/>
      <rect x="542.5748" y="-92.3063" clip-path="url(#clipPath2)" fill="white" width="135.6094" height="23.6016" stroke="none"/>
      <text x="544.5748" font-size="16px" y="-74.2203" clip-path="url(#clipPath2)" font-family="sans-serif" stroke="none" xml:space="preserve">crm:P67_refers_to</text>
    </g>
  </g>
</svg>
