<?xml version="1.0" encoding="UTF-8"?><svg xmlns="http://www.w3.org/2000/svg" xmlns:xlink="http://www.w3.org/1999/xlink" fill-opacity="1" color-rendering="auto" color-interpolation="auto" text-rendering="auto" stroke="black" stroke-linecap="square" width="973" stroke-miterlimit="10" shape-rendering="auto" stroke-opacity="1" fill="black" stroke-dasharray="none" font-weight="normal" stroke-width="1" height="598" font-family="'Dialog'" font-style="normal" stroke-linejoin="miter" font-size="12px" stroke-dashoffset="0" image-rendering="auto">
  <!--Generated by ySVG 2.5-->
  <defs id="genericDefs"/>
  <g>
    <defs id="defs1">
      <clipPath clipPathUnits="userSpaceOnUse" id="clipPath1">
        <path d="M0 0 L973 0 L973 598 L0 598 L0 0 Z"/>
      </clipPath>
      <clipPath clipPathUnits="userSpaceOnUse" id="clipPath2">
        <path d="M-589 -226 L384 -226 L384 372 L-589 372 L-589 -226 Z"/>
      </clipPath>
    </defs>
    <g fill="white" text-rendering="geometricPrecision" shape-rendering="geometricPrecision" transform="translate(589,226)" stroke="white">
      <rect x="-589" width="973" height="598" y="-226" clip-path="url(#clipPath2)" stroke="none"/>
    </g>
    <g fill="yellow" text-rendering="geometricPrecision" shape-rendering="geometricPrecision" transform="matrix(1,0,0,1,589,226)" stroke="yellow">
      <rect x="-421.9071" y="-27.082" clip-path="url(#clipPath2)" width="126.095" rx="4" ry="4" height="44" stroke="none"/>
    </g>
    <g font-size="16px" stroke-linecap="butt" transform="matrix(1,0,0,1,589,226)" text-rendering="geometricPrecision" font-family="sans-serif" shape-rendering="geometricPrecision" stroke-miterlimit="1.45">
      <text x="-411.7698" xml:space="preserve" y="1.2031" clip-path="url(#clipPath2)" stroke="none">vir:IC19_Recto</text>
      <rect x="-421.9071" y="-27.082" clip-path="url(#clipPath2)" fill="none" width="126.095" rx="4" ry="4" height="44"/>
    </g>
    <g fill="yellow" text-rendering="geometricPrecision" shape-rendering="geometricPrecision" transform="matrix(1,0,0,1,589,226)" stroke="yellow">
      <rect x="242.4488" y="-27.082" clip-path="url(#clipPath2)" width="126.095" rx="4" ry="4" height="44" stroke="none"/>
    </g>
    <g font-size="16px" stroke-linecap="butt" transform="matrix(1,0,0,1,589,226)" text-rendering="geometricPrecision" font-family="sans-serif" shape-rendering="geometricPrecision" stroke-miterlimit="1.45">
      <text x="252.5861" xml:space="preserve" y="1.2031" clip-path="url(#clipPath2)" stroke="none">vir:IC20_Verso</text>
      <rect x="242.4488" y="-27.082" clip-path="url(#clipPath2)" fill="none" width="126.095" rx="4" ry="4" height="44"/>
    </g>
    <g fill="yellow" text-rendering="geometricPrecision" shape-rendering="geometricPrecision" transform="matrix(1,0,0,1,589,226)" stroke="yellow">
      <rect x="-157.9395" y="149.4188" clip-path="url(#clipPath2)" width="227.3704" rx="4" ry="4" height="44" stroke="none"/>
    </g>
    <g font-size="16px" stroke-linecap="butt" transform="matrix(1,0,0,1,589,226)" text-rendering="geometricPrecision" font-family="sans-serif" shape-rendering="geometricPrecision" stroke-miterlimit="1.45">
      <text x="-148.7465" xml:space="preserve" y="177.7039" clip-path="url(#clipPath2)" stroke="none">crm:E25_Man-Made_Feature</text>
      <rect x="-157.9395" y="149.4188" clip-path="url(#clipPath2)" fill="none" width="227.3704" rx="4" ry="4" height="44"/>
    </g>
    <g fill="yellow" text-rendering="geometricPrecision" shape-rendering="geometricPrecision" transform="matrix(1,0,0,1,589,226)" stroke="yellow">
      <rect x="-29.9097" y="312.6316" clip-path="url(#clipPath2)" width="227.3704" rx="4" ry="4" height="44" stroke="none"/>
    </g>
    <g font-size="16px" stroke-linecap="butt" transform="matrix(1,0,0,1,589,226)" text-rendering="geometricPrecision" font-family="sans-serif" shape-rendering="geometricPrecision" stroke-miterlimit="1.45">
      <text x="-18.9432" xml:space="preserve" y="340.9168" clip-path="url(#clipPath2)" stroke="none">vir:IC1_Iconographical_Atom</text>
      <rect x="-29.9097" y="312.6316" clip-path="url(#clipPath2)" fill="none" width="227.3704" rx="4" ry="4" height="44"/>
    </g>
    <g fill="yellow" text-rendering="geometricPrecision" shape-rendering="geometricPrecision" transform="matrix(1,0,0,1,589,226)" stroke="yellow">
      <rect x="-148.6848" y="-142.0495" clip-path="url(#clipPath2)" width="227.3704" rx="4" ry="4" height="44" stroke="none"/>
    </g>
    <g font-size="16px" stroke-linecap="butt" transform="matrix(1,0,0,1,589,226)" text-rendering="geometricPrecision" font-family="sans-serif" shape-rendering="geometricPrecision" stroke-miterlimit="1.45">
      <text x="-135.0426" xml:space="preserve" y="-113.7644" clip-path="url(#clipPath2)" stroke="none">crm:E22_Man-Made_Object</text>
      <rect x="-148.6848" y="-142.0495" clip-path="url(#clipPath2)" fill="none" width="227.3704" rx="4" ry="4" height="44"/>
    </g>
    <g fill="yellow" text-rendering="geometricPrecision" shape-rendering="geometricPrecision" transform="matrix(1,0,0,1,589,226)" stroke="yellow">
      <rect x="-292.4299" y="312.6316" clip-path="url(#clipPath2)" width="249.8559" rx="4" ry="4" height="44" stroke="none"/>
    </g>
    <g font-size="16px" stroke-linecap="butt" transform="matrix(1,0,0,1,589,226)" text-rendering="geometricPrecision" font-family="sans-serif" shape-rendering="geometricPrecision" stroke-miterlimit="1.45">
      <text x="-283.5449" xml:space="preserve" y="340.9168" clip-path="url(#clipPath2)" stroke="none">tex:TX7_Written_Text_Fragment</text>
      <rect x="-292.4299" y="312.6316" clip-path="url(#clipPath2)" fill="none" width="249.8559" rx="4" ry="4" height="44"/>
    </g>
    <g fill="rgb(204,255,204)" text-rendering="geometricPrecision" shape-rendering="geometricPrecision" transform="matrix(1,0,0,1,589,226)" stroke="rgb(204,255,204)">
      <path d="M205.2233 -210.6306 L318.7087 -210.6306 L306.0992 -167.6306 L192.6138 -167.6306 Z" fill-rule="evenodd" clip-path="url(#clipPath2)" stroke="none"/>
    </g>
    <g font-size="16px" stroke-linecap="butt" transform="matrix(1,0,0,1,589,226)" text-rendering="geometricPrecision" font-family="sans-serif" shape-rendering="geometricPrecision" stroke-miterlimit="1.45">
      <text x="220.0909" xml:space="preserve" y="-182.8455" clip-path="url(#clipPath2)" stroke="none">xsd:String</text>
      <path fill="none" d="M205.2233 -210.6306 L318.7087 -210.6306 L306.0992 -167.6306 L192.6138 -167.6306 Z" fill-rule="evenodd" clip-path="url(#clipPath2)"/>
    </g>
    <g fill="rgb(204,255,204)" text-rendering="geometricPrecision" shape-rendering="geometricPrecision" transform="matrix(1,0,0,1,589,226)" stroke="rgb(204,255,204)">
      <path d="M205.2233 198.9498 L318.7087 198.9498 L306.0992 241.9498 L192.6138 241.9498 Z" fill-rule="evenodd" clip-path="url(#clipPath2)" stroke="none"/>
    </g>
    <g font-size="16px" stroke-linecap="butt" transform="matrix(1,0,0,1,589,226)" text-rendering="geometricPrecision" font-family="sans-serif" shape-rendering="geometricPrecision" stroke-miterlimit="1.45">
      <text x="220.0909" xml:space="preserve" y="226.735" clip-path="url(#clipPath2)" stroke="none">xsd:String</text>
      <path fill="none" d="M205.2233 198.9498 L318.7087 198.9498 L306.0992 241.9498 L192.6138 241.9498 Z" fill-rule="evenodd" clip-path="url(#clipPath2)"/>
    </g>
    <g stroke-linecap="butt" transform="matrix(1,0,0,1,589,226)" fill="navy" text-rendering="geometricPrecision" shape-rendering="geometricPrecision" stroke="navy" stroke-miterlimit="1.45">
      <path fill="none" d="M-318.579 -29.1142 L-273.0125 -56.3 L228.9647 -56.3 L263.5073 -33.1827" clip-path="url(#clipPath2)"/>
      <path d="M-325.4492 -25.0153 C-326.5811 -26.9125 -325.9607 -29.368 -324.0635 -30.4998 C-322.1664 -31.6317 -319.7109 -31.0113 -318.579 -29.1142 C-317.4471 -27.217 -318.0675 -24.7615 -319.9647 -23.6297 C-321.8618 -22.4978 -324.3173 -23.1182 -325.4492 -25.0153 Z" clip-path="url(#clipPath2)" stroke="none"/>
      <path d="M272.649 -27.0647 L266.0133 -38.7253 L259.3392 -28.7525 Z" clip-path="url(#clipPath2)" stroke="none"/>
      <rect x="-84.0552" y="-68.1008" clip-path="url(#clipPath2)" fill="white" width="124.0625" height="23.6016" stroke="none"/>
      <text x="-82.0552" font-size="16px" y="-50.0148" clip-path="url(#clipPath2)" font-family="sans-serif" stroke="none" xml:space="preserve">vir:K6i_has_front</text>
      <path fill="none" d="M262.4262 18.8539 L228.9647 37.45 L-273.0125 37.45 L-304.6123 21.7942" clip-path="url(#clipPath2)"/>
      <path d="M269.4189 14.9678 C270.492 16.8988 269.7966 19.3341 267.8656 20.4072 C265.9346 21.4803 263.4993 20.7849 262.4262 18.8539 C261.3531 16.9229 262.0485 14.4876 263.9795 13.4145 C265.9105 12.3414 268.3458 13.0368 269.4189 14.9678 Z" clip-path="url(#clipPath2)" stroke="none"/>
      <path d="M-314.4689 16.9108 L-306.3799 27.6145 L-301.0526 16.8618 Z" clip-path="url(#clipPath2)" stroke="none"/>
      <rect x="-83.1684" y="25.6492" clip-path="url(#clipPath2)" fill="white" width="122.2891" height="23.6016" stroke="none"/>
      <text x="-81.1684" font-size="16px" y="43.7352" clip-path="url(#clipPath2)" font-family="sans-serif" stroke="none" xml:space="preserve">vir:K6_has_back</text>
      <path fill="none" d="M-358.8596 20.9375 L-358.8596 171.4187 L-168.9685 171.4187" clip-path="url(#clipPath2)"/>
      <path d="M-358.8596 12.9375 C-356.6505 12.9375 -354.8596 14.7283 -354.8596 16.9375 C-354.8596 19.1466 -356.6505 20.9375 -358.8596 20.9375 C-361.0688 20.9375 -362.8596 19.1466 -362.8596 16.9375 C-362.8596 14.7283 -361.0688 12.9375 -358.8596 12.9375 Z" clip-path="url(#clipPath2)" stroke="none"/>
      <path d="M-157.9685 171.4187 L-169.9685 165.4187 L-169.9685 177.4187 Z" clip-path="url(#clipPath2)" stroke="none"/>
      <rect x="-348.5636" y="159.618" clip-path="url(#clipPath2)" fill="white" width="171.2031" height="23.6016" stroke="none"/>
      <text x="-346.5636" font-size="16px" y="177.7039" clip-path="url(#clipPath2)" font-family="sans-serif" stroke="none" xml:space="preserve">crm:P56_bears_feature</text>
      <path fill="none" d="M305.4963 20.9375 L305.4963 171.4187 L80.4402 171.4187" clip-path="url(#clipPath2)"/>
      <path d="M305.4963 12.9375 C307.7054 12.9375 309.4963 14.7283 309.4963 16.9375 C309.4963 19.1466 307.7054 20.9375 305.4963 20.9375 C303.2871 20.9375 301.4963 19.1466 301.4963 16.9375 C301.4963 14.7283 303.2871 12.9375 305.4963 12.9375 Z" clip-path="url(#clipPath2)" stroke="none"/>
      <path d="M69.4402 171.4187 L81.4402 177.4187 L81.4402 165.4187 Z" clip-path="url(#clipPath2)" stroke="none"/>
      <rect x="106.4245" y="159.618" clip-path="url(#clipPath2)" fill="white" width="171.2031" height="23.6016" stroke="none"/>
      <text x="108.4245" font-size="16px" y="177.7039" clip-path="url(#clipPath2)" font-family="sans-serif" stroke="none" xml:space="preserve">crm:P56_bears_feature</text>
      <path fill="none" d="M7.8221 145.8538 L7.8637 145.7628 L9.2837 141.5818 L10.2801 137.2583 L10.8251 132.9395 L10.9335 128.6524 L10.6205 124.4239 L9.9009 120.2808 L8.7899 116.25 L7.3024 112.3586 L5.4533 108.6333 L3.2578 105.1012 L0.7307 101.7891 L-2.1128 98.7239 L-5.2579 95.9325 L-8.6894 93.4419 L-12.3925 91.279 L-16.3521 89.4706 L-20.5532 88.0438 L-24.8767 87.0473 L-29.1955 86.5024 L-33.4826 86.394 L-37.7112 86.707 L-41.8543 87.4265 L-45.885 88.5376 L-49.7765 90.0251 L-53.5017 91.8741 L-57.0338 94.0697 L-60.346 96.5967 L-63.4112 99.4403 L-66.2025 102.5853 L-68.6931 106.0169 L-70.856 109.72 L-72.6644 113.6796 L-74.0913 117.8807 L-75.0877 122.2042 L-75.6326 126.523 L-75.7411 130.8101 L-75.428 135.0386 L-74.7287 139.0656 L-74.6943 139.1596" clip-path="url(#clipPath2)"/>
      <path d="M4.5027 153.1326 C2.4927 152.216 1.6063 149.8435 2.523 147.8335 C3.4396 145.8235 5.8121 144.9372 7.8221 145.8538 C9.8321 146.7704 10.7184 149.143 9.8018 151.1529 C8.8852 153.1629 6.5127 154.0493 4.5027 153.1326 Z" clip-path="url(#clipPath2)" stroke="none"/>
      <path d="M-70.9345 149.4971 L-69.3975 136.169 L-80.6747 140.2706 Z" clip-path="url(#clipPath2)" stroke="none"/>
      <rect x="-113.5814" y="102.368" clip-path="url(#clipPath2)" fill="white" width="171.2031" height="23.6016" stroke="none"/>
      <text x="-111.5814" font-size="16px" y="120.4539" clip-path="url(#clipPath2)" font-family="sans-serif" stroke="none" xml:space="preserve">crm:P56_bears_feature</text>
      <path fill="none" d="M66.5059 312.6162 L-22.0375 199.7408" clip-path="url(#clipPath2)" stroke="black"/>
      <path fill="black" d="M-26.9751 193.4464 L-23.5027 205.9741 L-21.4203 200.5276 L-15.6347 199.8021 Z" clip-path="url(#clipPath2)" stroke="none"/>
      <rect x="-39.1456" y="241.2244" clip-path="url(#clipPath2)" fill="white" width="117.8125" height="23.6016" stroke="none"/>
    </g>
    <g font-size="16px" stroke-linecap="butt" transform="matrix(1,0,0,1,589,226)" text-rendering="geometricPrecision" font-family="sans-serif" shape-rendering="geometricPrecision" stroke-miterlimit="1.45">
      <text x="-37.1456" xml:space="preserve" y="259.3104" clip-path="url(#clipPath2)" stroke="none">rdfs:subClassOf</text>
    </g>
    <g stroke-linecap="butt" transform="matrix(1,0,0,1,589,226)" fill="navy" text-rendering="geometricPrecision" shape-rendering="geometricPrecision" stroke="navy" stroke-miterlimit="1.45">
      <path fill="none" d="M3.9587 -145.5267 L4.0106 -145.6121 L4.2195 -146.0457 L5.6508 -149.9563 L6.6997 -154.0354 L7.3446 -158.2616 L7.5644 -162.6136 L7.3446 -166.9655 L6.6997 -171.1917 L5.6508 -175.2708 L4.2195 -179.1814 L2.4272 -182.9021 L0.2951 -186.4115 L-2.1552 -189.6882 L-4.9023 -192.7109 L-7.9249 -195.458 L-11.2017 -197.9083 L-14.7111 -200.0403 L-18.4318 -201.8327 L-22.3424 -203.264 L-26.4215 -204.3128 L-30.6477 -204.9578 L-34.9996 -205.1776 L-39.3515 -204.9578 L-43.5777 -204.3128 L-47.6568 -203.264 L-51.5675 -201.8327 L-55.2882 -200.0403 L-58.7976 -197.9083 L-62.0743 -195.458 L-65.0969 -192.7109 L-67.8441 -189.6882 L-70.2944 -186.4115 L-72.4264 -182.9021 L-74.2187 -179.1814 L-75.65 -175.2708 L-76.6989 -171.1917 L-77.3439 -166.9655 L-77.5636 -162.6136 L-77.3439 -158.2616 L-76.6989 -154.0354 L-76.2449 -152.2697 L-76.2054 -152.1778" clip-path="url(#clipPath2)"/>
      <path d="M0.4416 -138.3413 C-1.5426 -139.3125 -2.3638 -141.7083 -1.3925 -143.6925 C-0.4213 -145.6767 1.9745 -146.4979 3.9587 -145.5267 C5.9429 -144.5554 6.7641 -142.1596 5.7928 -140.1754 C4.8216 -138.1912 2.4258 -137.37 0.4416 -138.3413 Z" clip-path="url(#clipPath2)" stroke="none"/>
      <path d="M-72.2068 -141.9303 L-70.9794 -155.2905 L-82.1585 -150.9284 Z" clip-path="url(#clipPath2)" stroke="none"/>
      <rect x="-129.4918" y="-189.9768" clip-path="url(#clipPath2)" fill="white" width="188.9844" height="23.6016" stroke="none"/>
      <text x="-127.4918" font-size="16px" y="-171.8909" clip-path="url(#clipPath2)" font-family="sans-serif" stroke="none" xml:space="preserve">crm:P46_is_composed_of</text>
      <path fill="none" d="M-152.7039 -114.7695 L-358.8596 -114.7695 L-358.8596 -38.0677" clip-path="url(#clipPath2)"/>
      <path d="M-144.7039 -114.7695 C-144.7039 -112.5604 -146.4948 -110.7695 -148.7039 -110.7695 C-150.913 -110.7695 -152.7039 -112.5604 -152.7039 -114.7695 C-152.7039 -116.9787 -150.913 -118.7695 -148.7039 -118.7695 C-146.4948 -118.7695 -144.7039 -116.9787 -144.7039 -114.7695 Z" clip-path="url(#clipPath2)" stroke="none"/>
      <path d="M-358.8596 -27.0677 L-352.8596 -39.0677 L-364.8596 -39.0677 Z" clip-path="url(#clipPath2)" stroke="none"/>
      <rect x="-343.9363" y="-126.5703" clip-path="url(#clipPath2)" fill="white" width="171.2031" height="23.6016" stroke="none"/>
      <text x="-341.9363" font-size="16px" y="-108.4844" clip-path="url(#clipPath2)" font-family="sans-serif" stroke="none" xml:space="preserve">crm:P56_bears_feature</text>
      <path fill="none" d="M82.711 -118.7439 L305.4963 -114.7695 L305.4963 -38.0677" clip-path="url(#clipPath2)"/>
      <path d="M74.7123 -118.8866 C74.7517 -121.0954 76.5742 -122.854 78.783 -122.8146 C80.9918 -122.7752 82.7504 -120.9527 82.711 -118.7439 C82.6716 -116.5351 80.8491 -114.7765 78.6403 -114.8159 C76.4315 -114.8553 74.6729 -116.6778 74.7123 -118.8866 Z" clip-path="url(#clipPath2)" stroke="none"/>
      <path d="M305.4963 -27.0677 L311.4963 -39.0677 L299.4963 -39.0677 Z" clip-path="url(#clipPath2)" stroke="none"/>
      <rect x="111.0519" y="-128.512" clip-path="url(#clipPath2)" fill="white" width="171.2031" height="23.6016" stroke="none"/>
      <text x="113.0519" font-size="16px" y="-110.4261" clip-path="url(#clipPath2)" font-family="sans-serif" stroke="none" xml:space="preserve">crm:P56_bears_feature</text>
      <path fill="none" d="M-152.1896 -130.25 L-222.0104 -169.5242 L-478.5738 -169.5242 L-478.5738 240.2376 L-206.2 240.2376 L-106.1328 197.714" clip-path="url(#clipPath2)"/>
      <path d="M-145.217 -126.328 C-146.3001 -124.4025 -148.7389 -123.7196 -150.6644 -124.8027 C-152.5898 -125.8857 -153.2727 -128.3246 -152.1896 -130.25 C-151.1066 -132.1755 -148.6677 -132.8584 -146.7423 -131.7753 C-144.8168 -130.6923 -144.134 -128.2534 -145.217 -126.328 Z" clip-path="url(#clipPath2)" stroke="none"/>
      <path d="M-96.0089 193.4119 L-109.3997 192.583 L-104.7065 203.6272 Z" clip-path="url(#clipPath2)" stroke="none"/>
      <rect x="-573.066" y="23.5559" clip-path="url(#clipPath2)" fill="white" width="188.9844" height="23.6016" stroke="none"/>
      <text x="-571.066" font-size="16px" y="41.6418" clip-path="url(#clipPath2)" font-family="sans-serif" stroke="none" xml:space="preserve">crm:P46_is_composed_of</text>
      <path fill="none" d="M-150.8623 312.5963 L-65.7067 199.8275" clip-path="url(#clipPath2)" stroke="black"/>
      <path fill="black" d="M-60.8858 193.4433 L-72.1074 200.0065 L-66.3094 200.6255 L-64.1271 206.0327 Z" clip-path="url(#clipPath2)" stroke="none"/>
      <rect x="-164.7844" y="241.2244" clip-path="url(#clipPath2)" fill="white" width="117.8125" height="23.6016" stroke="none"/>
    </g>
    <g font-size="16px" stroke-linecap="butt" transform="matrix(1,0,0,1,589,226)" text-rendering="geometricPrecision" font-family="sans-serif" shape-rendering="geometricPrecision" stroke-miterlimit="1.45">
      <text x="-162.7844" xml:space="preserve" y="259.3104" clip-path="url(#clipPath2)" stroke="none">rdfs:subClassOf</text>
    </g>
    <g stroke-linecap="butt" transform="matrix(1,0,0,1,589,226)" fill="green" text-rendering="geometricPrecision" shape-rendering="geometricPrecision" stroke="green" stroke-miterlimit="1.45">
      <path fill="none" d="M61.4621 -142.9755 L180.0833 -171.1681" clip-path="url(#clipPath2)"/>
    </g>
    <g stroke-linecap="butt" transform="matrix(1,0,0,1,589,226)" fill-opacity="0" fill="rgb(0,0,0)" text-rendering="geometricPrecision" shape-rendering="geometricPrecision" stroke="rgb(0,0,0)" stroke-opacity="0" stroke-miterlimit="1.45">
      <path d="M53.6789 -141.1257 C53.1681 -143.2749 54.4963 -145.4314 56.6456 -145.9422 C58.7948 -146.453 60.9513 -145.1248 61.4621 -142.9755 C61.9729 -140.8262 60.6447 -138.6698 58.4954 -138.159 C56.3461 -137.6482 54.1897 -138.9764 53.6789 -141.1257 Z" stroke="none" clip-path="url(#clipPath2)"/>
    </g>
    <g stroke-linecap="butt" transform="matrix(1,0,0,1,589,226)" fill="green" text-rendering="geometricPrecision" shape-rendering="geometricPrecision" stroke="green" stroke-miterlimit="1.45">
      <path fill="none" d="M53.6789 -141.1257 C53.1681 -143.2749 54.4963 -145.4314 56.6456 -145.9422 C58.7948 -146.453 60.9513 -145.1248 61.4621 -142.9755 C61.9729 -140.8262 60.6447 -138.6698 58.4954 -138.159 C56.3461 -137.6482 54.1897 -138.9764 53.6789 -141.1257 Z" clip-path="url(#clipPath2)"/>
      <path fill="white" d="M194.6768 -174.6365 L177.723 -176.7742 L180.4977 -165.0994 Z" clip-path="url(#clipPath2)" stroke="none"/>
      <path fill="none" d="M194.6768 -174.6365 L177.723 -176.7742 L180.4977 -165.0994 Z" clip-path="url(#clipPath2)"/>
      <rect x="90.5286" y="-172.4084" clip-path="url(#clipPath2)" fill="white" width="90.2422" height="23.6016" stroke="none"/>
      <text x="92.5286" font-size="16px" y="-154.3224" clip-path="url(#clipPath2)" font-family="sans-serif" stroke="none" xml:space="preserve">dcterms:title</text>
      <path fill="none" d="M4.9594 195.1456 L57.4446 220.4498 L183.8966 220.4498" clip-path="url(#clipPath2)"/>
    </g>
    <g stroke-linecap="butt" transform="matrix(1,0,0,1,589,226)" fill-opacity="0" fill="rgb(0,0,0)" text-rendering="geometricPrecision" shape-rendering="geometricPrecision" stroke="rgb(0,0,0)" stroke-opacity="0" stroke-miterlimit="1.45">
      <path d="M-2.2468 191.6714 C-1.2875 189.6815 1.1034 188.846 3.0934 189.8054 C5.0833 190.7648 5.9188 193.1557 4.9594 195.1456 C4 197.1356 1.6091 197.971 -0.3809 197.0116 C-2.3708 196.0522 -3.2062 193.6613 -2.2468 191.6714 Z" stroke="none" clip-path="url(#clipPath2)"/>
    </g>
    <g stroke-linecap="butt" transform="matrix(1,0,0,1,589,226)" fill="green" text-rendering="geometricPrecision" shape-rendering="geometricPrecision" stroke="green" stroke-miterlimit="1.45">
      <path fill="none" d="M-2.2468 191.6714 C-1.2875 189.6815 1.1034 188.846 3.0934 189.8054 C5.0833 190.7648 5.9188 193.1557 4.9594 195.1456 C4 197.1356 1.6091 197.971 -0.3809 197.0116 C-2.3708 196.0522 -3.2062 193.6613 -2.2468 191.6714 Z" clip-path="url(#clipPath2)"/>
      <path fill="white" d="M198.8966 220.4498 L182.8966 214.4498 L182.8966 226.4498 Z" clip-path="url(#clipPath2)" stroke="none"/>
      <path fill="none" d="M198.8966 220.4498 L182.8966 214.4498 L182.8966 226.4498 Z" clip-path="url(#clipPath2)"/>
      <rect x="75.3456" y="208.649" clip-path="url(#clipPath2)" fill="white" width="90.2422" height="23.6016" stroke="none"/>
      <text x="77.3456" font-size="16px" y="226.735" clip-path="url(#clipPath2)" font-family="sans-serif" stroke="none" xml:space="preserve">dcterms:title</text>
    </g>
  </g>
</svg>
